<svg id="Layer_1" data-name="Layer 1" xmlns="http://www.w3.org/2000/svg" width="1055" height="155" viewBox="0 0 1055 155"><defs><style>.cls-1{fill:#fff;}</style></defs><path class="cls-1" d="M65.54,57.38l8.55-16q6.36-11.74,10.14-19.58A14,14,0,0,1,85.84,19a1.87,1.87,0,0,1,1.46-.69,2.08,2.08,0,0,1,1.44.55,1.67,1.67,0,0,1,.63,1.31,6.27,6.27,0,0,1-1,2.59l-.47.81c-.32.51-.74,1.23-1.25,2.15L51.26,89.56,10.37,19.22H43.91Z"/><path class="cls-1" d="M122.67,40.17c-.06,1.47-.09,3.26-.09,5.36V48.4l.33,33,16.22-.16,11.49-.12c1.88,0,2.82.56,2.82,1.69A1.47,1.47,0,0,1,152,84.44c-.23,0-1.55.06-4,.09H93.68l0-2.49,0-16L94,48.93l-.38-29.71H144.3a25.39,25.39,0,0,1,3.88.14,1.45,1.45,0,0,1,1.1,1.6c0,1.1-.7,1.65-2.11,1.65h-.33l-24-.28-.2,14.83,5.22.05,16.75-.29,3.68-.05a6.83,6.83,0,0,1,2.66.34,1.39,1.39,0,0,1,.64,1.36q0,1.89-3.15,1.89l-3.78-.11Z"/><path class="cls-1" d="M158.56,73.43a3,3,0,0,1,2,1.29,26.77,26.77,0,0,0,8.78,6.3,24.74,24.74,0,0,0,10.27,2.36q5.59,0,5.6-3.39a8.64,8.64,0,0,0-2-4.86q-2-2.7-9.38-10.7-9.33-10.1-12.45-15-4.11-6.47-4.11-12.3,0-8.8,7.85-14.4,7.7-5.51,19-5.51a32.7,32.7,0,0,1,14.5,3.21,18.92,18.92,0,0,1,4.28,2.87c1.2,1.09,1.8,2,1.8,2.73a1.33,1.33,0,0,1-.5,1,1.55,1.55,0,0,1-1,.45c-.55,0-1.34-.49-2.39-1.48a20.31,20.31,0,0,0-6.8-4,22.69,22.69,0,0,0-8.09-1.61,6.85,6.85,0,0,0-3.9,1,3.11,3.11,0,0,0-1.5,2.66,9.29,9.29,0,0,0,1.86,4.79,61.09,61.09,0,0,0,6.31,7.51q14.09,15,17.24,20.19a20.68,20.68,0,0,1,3.3,10.62,15.65,15.65,0,0,1-2.35,8.23,18.5,18.5,0,0,1-6.51,6.37Q192.45,86.5,181,86.49A32,32,0,0,1,162.49,81c-3.74-2.55-5.6-4.55-5.6-6a1.58,1.58,0,0,1,.5-1.13A1.62,1.62,0,0,1,158.56,73.43Z"/><path class="cls-1" d="M258.19,22.42l-.24,15-.14,14.21L258,84.53H228.76l.29-38.13-.15-13-.14-11-6.32.14-9,.2-1.34,0c-1.53,0-2.3-.57-2.3-1.72a1.5,1.5,0,0,1,1.34-1.72,17.8,17.8,0,0,1,2.35-.14h58.71a15.38,15.38,0,0,1,3.64.28,1.57,1.57,0,0,1,1,1.63c0,1.08-.82,1.63-2.44,1.63l-4.17-.15-11-.19Z"/><path class="cls-1" d="M311.74,40.17c-.07,1.47-.1,3.26-.1,5.36V48.4l.33,33,16.23-.16,11.48-.12c1.88,0,2.82.56,2.82,1.69a1.46,1.46,0,0,1-1.43,1.61c-.23,0-1.55.06-4,.09H282.74l.05-2.49,0-16L283,48.93l-.38-29.71h50.72a25.39,25.39,0,0,1,3.88.14,1.45,1.45,0,0,1,1.1,1.6q0,1.65-2.1,1.65h-.34l-24-.28-.19,14.83,5.21.05,16.75-.29,3.68-.05a6.83,6.83,0,0,1,2.66.34,1.4,1.4,0,0,1,.65,1.36c0,1.26-1.06,1.89-3.16,1.89l-3.78-.11Z"/><path class="cls-1" d="M388.14,73.72a54.62,54.62,0,0,0,9.92,5.37,60.79,60.79,0,0,0,11.44,3.48c1,.19,1.48.67,1.48,1.44,0,1-.73,1.58-2.2,1.58q-5,0-14.1-4.41a98.71,98.71,0,0,1-17.29-11.39v2l.05,8.13v4.64H348.29V82.38l.1-15.6.14-18.66-.09-28.9h19.22q12.91,0,19.51.71a40.5,40.5,0,0,1,11.24,2.68A25.06,25.06,0,0,1,410.36,33a26.37,26.37,0,0,1-.48,28.85Q402.58,73,388.14,73.72Zm-4.54-3,2.29,0q9.84,0,16.63-5.5a22.61,22.61,0,0,0,6.6-8.62A23.22,23.22,0,0,0,411.27,47a22.92,22.92,0,0,0-5.45-15,22.37,22.37,0,0,0-10.42-7.23q-6.25-2.1-17.63-2.25l-.43,32.07v8.66l.05,2.25A60.72,60.72,0,0,0,383.6,70.75Z"/><path class="cls-1" d="M496.49,57.38l8.56-16q6.34-11.74,10.13-19.58A14,14,0,0,1,516.79,19a1.87,1.87,0,0,1,1.46-.69,2.12,2.12,0,0,1,1.45.55,1.69,1.69,0,0,1,.62,1.31,6.21,6.21,0,0,1-1,2.59l-.48.81c-.32.51-.74,1.23-1.25,2.15L482.21,89.56,441.32,19.22h33.54Z"/><path class="cls-1" d="M551.81,17.25a34.76,34.76,0,0,1,14.59,3.21,33.55,33.55,0,0,1,15.79,14.59,35,35,0,0,1,4.36,17.18,34.27,34.27,0,0,1-18.67,30.29,34.39,34.39,0,0,1-16.07,4,35.2,35.2,0,0,1-31.92-21.15,34.25,34.25,0,0,1,1.58-30.24,33.69,33.69,0,0,1,15.65-14.59A34.75,34.75,0,0,1,551.81,17.25ZM548,20.46l-.29,31.15L548,77.5l0,5.84a18,18,0,0,0,3.11.28A32.13,32.13,0,0,0,570,77.79,30.55,30.55,0,0,0,581,64a32,32,0,0,0,2.4-12.2,31.18,31.18,0,0,0-4-15.5,30.24,30.24,0,0,0-13.88-13,32.8,32.8,0,0,0-14.12-3.16A20.15,20.15,0,0,0,548,20.46Z"/><path class="cls-1" d="M638,57.38l8.55-16q6.36-11.74,10.14-19.58A13.51,13.51,0,0,1,658.29,19a1.86,1.86,0,0,1,1.46-.69,2.08,2.08,0,0,1,1.44.55,1.67,1.67,0,0,1,.63,1.31,6.27,6.27,0,0,1-1,2.59l-.48.81c-.32.51-.73,1.23-1.24,2.15L623.7,89.56,582.81,19.22h33.55Z"/><path class="cls-1" d="M739.29,57.38l8.55-16Q754.2,29.63,758,21.79A14,14,0,0,1,759.59,19a1.87,1.87,0,0,1,1.46-.69,2.08,2.08,0,0,1,1.44.55,1.67,1.67,0,0,1,.63,1.31,6.27,6.27,0,0,1-1,2.59l-.47.81c-.32.51-.74,1.23-1.25,2.15L725,89.56,684.12,19.22h33.54Z"/><path class="cls-1" d="M794.61,17.25a34.76,34.76,0,0,1,14.59,3.21A33.59,33.59,0,0,1,825,35.05a35,35,0,0,1,4.36,17.18,34.33,34.33,0,0,1-18.67,30.29,34.39,34.39,0,0,1-16.07,4,35.2,35.2,0,0,1-31.92-21.15,34.25,34.25,0,0,1,1.58-30.24,33.71,33.71,0,0,1,15.64-14.59A34.83,34.83,0,0,1,794.61,17.25Zm-3.78,3.21-.29,31.15.24,25.89.05,5.84a18,18,0,0,0,3.11.28,32.13,32.13,0,0,0,18.9-5.83,30.55,30.55,0,0,0,11-13.79,32,32,0,0,0,2.4-12.2,31.18,31.18,0,0,0-4-15.5,30.24,30.24,0,0,0-13.88-13,32.8,32.8,0,0,0-14.12-3.16A20.06,20.06,0,0,0,790.83,20.46Z"/><path class="cls-1" d="M880.79,57.38l8.55-16q6.36-11.74,10.14-19.58a14.1,14.1,0,0,1,1.6-2.79,1.89,1.89,0,0,1,1.47-.69,2.11,2.11,0,0,1,1.44.55,1.67,1.67,0,0,1,.63,1.31,6.27,6.27,0,0,1-1,2.59q-.24.42-.48.81c-.32.51-.73,1.23-1.24,2.15L866.5,89.56,825.61,19.22h33.54Z"/><path class="cls-1" d="M65.47,107.73l18.35,33.2H67.91l-2.22-4.2H58l-6.77,0-1.15,0-1.51,2.8a10,10,0,0,1-.93,1.57.81.81,0,0,1-.66.31q-.78,0-.78-.69a3,3,0,0,1,.45-1.11c.29-.55,1.34-2.33,3.13-5.36l13.89-23.39ZM58.34,122.8l-4,6.75-3.21,5.55,6.84.1,6.87-.1Z"/><path class="cls-1" d="M105,135.75a26.83,26.83,0,0,0,4.76,2.57,28.93,28.93,0,0,0,5.48,1.67c.48.09.71.32.71.69s-.35.76-1,.76c-1.6,0-3.86-.71-6.76-2.11a47.65,47.65,0,0,1-8.3-5.47v.94l0,3.91v2.22h-14v-1l0-7.48.07-8.95,0-13.86H95.2q6.19,0,9.36.34a19.13,19.13,0,0,1,5.38,1.29,12,12,0,0,1,5.74,5,12.62,12.62,0,0,1-.23,13.83A12.45,12.45,0,0,1,105,135.75Zm-2.18-1.43,1.1,0a12.26,12.26,0,0,0,8-2.64,10.86,10.86,0,0,0,3.16-4.13,11.09,11.09,0,0,0,1-4.64,11,11,0,0,0-2.61-7.18,10.72,10.72,0,0,0-5-3.47,29.06,29.06,0,0,0-8.45-1.08l-.21,15.38v4.15l0,1.08A29.65,29.65,0,0,0,102.84,134.32Z"/><path class="cls-1" d="M139.77,111.14l-.11,7.19-.07,6.81.07,15.79h-14l.14-18.29-.07-6.22-.07-5.28-3,.07-4.34.1-.64,0c-.73,0-1.1-.28-1.1-.83s.21-.76.64-.82a7.37,7.37,0,0,1,1.13-.07h28.15a7.73,7.73,0,0,1,1.75.13.77.77,0,0,1,.46.78c0,.53-.39.79-1.17.79l-2-.07-5.28-.1Z"/><path class="cls-1" d="M176.7,110.23l-.14,16.27.14,13.81a14.69,14.69,0,0,0,2,.16,14.16,14.16,0,0,0,4.61-.8,14.74,14.74,0,0,0,4.17-2.18,15.4,15.4,0,0,0,2.41-2.39,16.23,16.23,0,0,0,2-2.91c.29-.55.6-.83.94-.83.5,0,.76.22.76.65a5.27,5.27,0,0,1-1.14,2.32,19.5,19.5,0,0,1-2.49,2.95,16,16,0,0,1-6.91,3.93,17.19,17.19,0,0,1-4.59.66A16.52,16.52,0,0,1,172,140.5a16,16,0,0,1-7.89-6.91,16.65,16.65,0,0,1,7.16-23.32,16.87,16.87,0,0,1,18.61,2.87c1.53,1.42,2.3,2.45,2.3,3.08a.64.64,0,0,1-.23.46.78.78,0,0,1-.51.2c-.3,0-.67-.3-1.1-.89a13.74,13.74,0,0,0-5.2-4.33,15.26,15.26,0,0,0-6.83-1.59A7.48,7.48,0,0,0,176.7,110.23Z"/><path class="cls-1" d="M210.48,109.61v1.6l-.14,12.58.14,17.14h-14l.14-18.75-.16-11.45,0-1.12Z"/><path class="cls-1" d="M244,124.86V121l0-6.08,0-2.78,0-1.75c0-.83.28-1.24.85-1.24a.79.79,0,0,1,.7.29,2.1,2.1,0,0,1,.19,1.09v.32c0,.32,0,.85,0,1.58l-.09,7.74-.07,7.09.06,7.46.08,7.48q-4.73-3-13.84-8.19T217,125.82l0,1.13.23,11.85,0,1.58c0,.66-.31,1-.92,1s-.94-.41-.94-1.22l0-1.6,0-2.6.09-11.77-.19-15.86Q224.66,114.1,244,124.86Z"/><path class="cls-1" d="M264.36,119.66c0,.7,0,1.56,0,2.57v1.38l.16,15.83,7.78-.08,5.51-.06c.9,0,1.35.28,1.35.82a.7.7,0,0,1-.69.77c-.11,0-.74,0-1.9,0H250.46l0-1.19,0-7.67.09-8.21-.18-14.25h24.33a14.32,14.32,0,0,1,1.86.06.7.7,0,0,1,.52.77c0,.53-.33.8-1,.8H276l-11.49-.14-.1,7.11,2.51,0,8-.14,1.76,0a3.22,3.22,0,0,1,1.28.16.65.65,0,0,1,.31.65c0,.6-.51.91-1.52.91l-1.81-.06Z"/><path class="cls-1" d="M313.69,108.53l5,17.09L321,133.2l2,6.86.27.87H309.32l-4.39-16.22L295.45,139l-9.72-13.55q-1.41,5-3.07,12.17a20.78,20.78,0,0,1-.87,3.27,1.06,1.06,0,0,1-1.06.52c-.68,0-1-.23-1-.69a20.79,20.79,0,0,1,.64-2.32l1.43-4.89,2.48-8.44,4.84-16.5,12.57,18.21Z"/><path class="cls-1" d="M342.72,107.73l18.35,33.2H345.16l-2.22-4.2h-7.68l-6.77,0-1.15,0-1.51,2.8a10,10,0,0,1-.93,1.57.81.81,0,0,1-.66.31q-.78,0-.78-.69a3,3,0,0,1,.45-1.11c.29-.55,1.34-2.33,3.13-5.36l13.89-23.39Zm-7.14,15.07-4,6.75-3.21,5.55,6.84.1,6.87-.1Z"/><path class="cls-1" d="M398.71,130.49a89.46,89.46,0,0,0,8.6,10.44H391.23a27.84,27.84,0,0,1-2.23-2.15,11.24,11.24,0,0,1-7.3,2.68,10,10,0,0,1-3.76-.72,7.54,7.54,0,0,1-2.87-1.94,7.31,7.31,0,0,1-1.74-4.94,7.82,7.82,0,0,1,1.5-4.7,14.46,14.46,0,0,1,4.76-3.88,36.36,36.36,0,0,1-2.1-4.55,10.05,10.05,0,0,1-.56-3.21,7.43,7.43,0,0,1,2.59-5.87q3.24-2.82,8.82-2.82c3,0,5.4.71,7.06,2.13a4.63,4.63,0,0,1,1.7,3.74c0,2.45-1.62,4.48-4.86,6.11q1.26,2.3,5.53,8.46,5.28-5.22,8.05-5.23c.78,0,1.17.35,1.17,1,0,.36-.09.59-.28.69a4.72,4.72,0,0,1-1.44.28,5.84,5.84,0,0,0-2.57,1.1A39.84,39.84,0,0,0,398.71,130.49ZM388,137.63c-1.44-1.75-2.63-3.29-3.56-4.64s-2.29-3.48-4.06-6.4a14.75,14.75,0,0,0-4.23,3.4,6,6,0,0,0-1.21,3.76,5.75,5.75,0,0,0,1.56,4.18,6.08,6.08,0,0,0,2.32,1.49,8.17,8.17,0,0,0,3,.55A9.67,9.67,0,0,0,388,137.63Zm3.42-18.09q4.17-1.92,4.17-4.79a3.61,3.61,0,0,0-1.91-3.24,10.64,10.64,0,0,0-5.41-1.15,8.94,8.94,0,0,0-1.12.07A36.34,36.34,0,0,0,391.37,119.54Z"/><path class="cls-1" d="M436,110.23l-.13,16.27.13,13.81a14.94,14.94,0,0,0,2,.16,14.11,14.11,0,0,0,4.6-.8,14.48,14.48,0,0,0,4.17-2.18,15.43,15.43,0,0,0,2.42-2.39,17.34,17.34,0,0,0,2-2.91c.29-.55.6-.83.94-.83.5,0,.75.22.75.65a5.21,5.21,0,0,1-1.13,2.32,19.5,19.5,0,0,1-2.49,2.95,16,16,0,0,1-6.91,3.93,17.19,17.19,0,0,1-4.59.66,16.52,16.52,0,0,1-6.45-1.37,16,16,0,0,1-7.89-6.91,16.65,16.65,0,0,1,7.16-23.32,16.87,16.87,0,0,1,18.61,2.87c1.53,1.42,2.29,2.45,2.29,3.08a.61.61,0,0,1-.23.46.76.76,0,0,1-.5.2c-.31,0-.67-.3-1.1-.89a13.82,13.82,0,0,0-5.2-4.33,15.29,15.29,0,0,0-6.83-1.59A7.58,7.58,0,0,0,436,110.23Z"/><path class="cls-1" d="M471,107.73l18.35,33.2H473.4l-2.22-4.2H463.5l-6.77,0-1.15,0-1.51,2.8a10,10,0,0,1-.93,1.57.81.81,0,0,1-.66.31q-.78,0-.78-.69a3,3,0,0,1,.45-1.11c.3-.55,1.34-2.33,3.13-5.36l13.89-23.39Zm-7.13,15.07-4,6.75-3.21,5.55,6.84.1,6.87-.1Z"/><path class="cls-1" d="M505.33,119.66l0,5.55.13,14.67v1.05h-14l.18-17.05-.18-14.27H515.7a13.64,13.64,0,0,1,1.86.06.71.71,0,0,1,.53.77c0,.53-.34.8-1,.8h-.16l-11.5-.14-.09,7.11,2.5,0,8-.14,1.76,0a3.25,3.25,0,0,1,1.28.16.65.65,0,0,1,.3.64c0,.6-.5.89-1.51.89l-1.81,0Z"/><path class="cls-1" d="M536,119.66c0,.7,0,1.56,0,2.57v1.38l.16,15.83,7.78-.08,5.5-.06c.91,0,1.36.28,1.36.82a.7.7,0,0,1-.69.77c-.11,0-.74,0-1.91,0H522.08l0-1.19,0-7.67.09-8.21L522,109.61h24.32a14.09,14.09,0,0,1,1.86.06.71.71,0,0,1,.53.77c0,.53-.34.8-1,.8h-.16l-11.5-.14-.09,7.11,2.5,0,8-.14,1.76,0a3.25,3.25,0,0,1,1.28.16.67.67,0,0,1,.3.65c0,.6-.5.91-1.51.91l-1.81-.06Z"/><path class="cls-1" d="M574.09,128.84l-3.31,0-6.7.07c-1,0-1.49-.28-1.49-.83s.48-.89,1.45-.89l1.62,0,4.11.1,6-.12,1.79,0c1,0,1.49.29,1.49.86s-.5.84-1.51.84l-1.66,0Z"/><path class="cls-1" d="M593.13,135.61a1.45,1.45,0,0,1,1,.62,13,13,0,0,0,4.21,3,11.89,11.89,0,0,0,4.92,1.13c1.79,0,2.69-.54,2.69-1.63a4.18,4.18,0,0,0-.94-2.33q-.94-1.29-4.5-5.13a60.49,60.49,0,0,1-6-7.18,11.08,11.08,0,0,1-2-5.9,8.14,8.14,0,0,1,3.76-6.9,15.26,15.26,0,0,1,9.11-2.64,15.81,15.81,0,0,1,7,1.53,9.18,9.18,0,0,1,2,1.38c.57.52.86,1,.86,1.31a.64.64,0,0,1-.24.47.77.77,0,0,1-.49.22,2.14,2.14,0,0,1-1.15-.71,9.69,9.69,0,0,0-3.26-1.94,10.75,10.75,0,0,0-3.88-.77,3.25,3.25,0,0,0-1.87.49,1.5,1.5,0,0,0-.72,1.28,4.48,4.48,0,0,0,.89,2.29,29.15,29.15,0,0,0,3,3.6q6.75,7.19,8.26,9.69a9.86,9.86,0,0,1,1.59,5.09,7.52,7.52,0,0,1-1.13,4,8.86,8.86,0,0,1-3.12,3,17.79,17.79,0,0,1-9.29,2.27,15.37,15.37,0,0,1-8.88-2.61c-1.79-1.23-2.69-2.18-2.69-2.87a.75.75,0,0,1,.24-.54A.77.77,0,0,1,593.13,135.61Z"/><path class="cls-1" d="M635.54,109.61v1.6l-.13,12.58.13,17.14h-14l.14-18.75-.16-11.45,0-1.12Z"/><path class="cls-1" d="M640.87,109.61h12.07a40.27,40.27,0,0,1,7.11.46,14.66,14.66,0,0,1,9.53,6.28,15.51,15.51,0,0,1-.09,18,14.82,14.82,0,0,1-9.23,6.13,17.89,17.89,0,0,1-2.62.36c-.76,0-2.44.07-5,.07H640.94l.07-15.14Zm14,1.47-.13,18.45.13,9.93a31,31,0,0,0,4.42-.24,13.27,13.27,0,0,0,3.09-1,13.66,13.66,0,0,0,6.45-5.69,14,14,0,0,0-.37-15.15q-4.28-6.36-12.69-6.36Z"/><path class="cls-1" d="M690.12,119.66c0,.7,0,1.56,0,2.57v1.38l.16,15.83,7.78-.08,5.51-.06c.9,0,1.35.28,1.35.82a.7.7,0,0,1-.68.77c-.11,0-.75,0-1.91,0H676.21l0-1.19,0-7.67.09-8.21-.19-14.25h24.33a14.09,14.09,0,0,1,1.86.06.71.71,0,0,1,.53.77c0,.53-.34.8-1,.8h-.16l-11.5-.14-.09,7.11,2.5,0,8-.14,1.77,0a3.16,3.16,0,0,1,1.27.16.65.65,0,0,1,.31.65c0,.6-.5.91-1.51.91l-1.82-.06Z"/><path class="cls-1" d="M735.79,124.86V121l0-6.08,0-2.78,0-1.75c0-.83.29-1.24.85-1.24a.79.79,0,0,1,.7.29,2.08,2.08,0,0,1,.2,1.09v.32c0,.32,0,.85,0,1.58l-.1,7.74-.07,7.09.06,7.46.08,7.48q-4.73-3-13.84-8.19t-14.75-8.21l0,1.13.23,11.85,0,1.58c0,.66-.3,1-.91,1s-.95-.41-.95-1.22l0-1.6,0-2.6.09-11.77-.18-15.86Q716.47,114.1,735.79,124.86Z"/><path class="cls-1" d="M774.27,109.1l-.18,13.11.18,18v.75H761v-.75l.18-18.25,0-6.75v-1l-.46.14-3.33,1a2.6,2.6,0,0,1-.87.18q-.69,0-.69-.78a.83.83,0,0,1,.36-.78,12.42,12.42,0,0,1,2.08-.64l5.76-1.49,2.15-.57Z"/><path class="cls-1" d="M794.6,140.13l.1-16.23-.1-13.58-1,0a10.94,10.94,0,0,0-4.19.91,13,13,0,0,0-3.83,2.37,10.32,10.32,0,0,0-3.52,7.9,7.14,7.14,0,0,0,3,6.33A6.49,6.49,0,0,0,788.8,129a6.06,6.06,0,0,0,3-.78,3.12,3.12,0,0,1,1-.43q.6,0,.6.66c0,.51-.49,1-1.46,1.4a8,8,0,0,1-8.75-1.6,9.14,9.14,0,0,1-2.73-6.91,11.69,11.69,0,0,1,4.61-9.41,14.48,14.48,0,0,1,17.64-.34q5.84,4.4,5.84,13.08a17,17,0,0,1-4,11.5,15.8,15.8,0,0,1-6,4.33,15.1,15.1,0,0,1-6,1.26,11.18,11.18,0,0,1-6.86-2.13c-1.4-1-2.1-2-2.1-2.87a.93.93,0,0,1,.32-.69,1,1,0,0,1,.72-.3c.43,0,.81.33,1.15,1a6.11,6.11,0,0,0,2.53,2.64,9.15,9.15,0,0,0,4.32.92A10,10,0,0,0,794.6,140.13Z"/><path class="cls-1" d="M836.49,109.61l-4.84,14.73-5.37,16.59H810.39l.79-1.63,4.47-9.18,9.11-19H819.3q-7.2,0-9.3.78a3.14,3.14,0,0,1-1,.23c-.46,0-.69-.44-.69-1.31s.33-1.24,1-1.24l3.45.09H815l10.6,0Z"/><path class="cls-1" d="M851.75,118.12c-.67,0-1.24-.07-1.7-.07q-4.15,0-6.22,1.75a1.43,1.43,0,0,1-.71.39.74.74,0,0,1-.49-.28.76.76,0,0,1-.27-.5,1.19,1.19,0,0,1,.12-.42l.27-.75.42-1.15c.44-1.16,1-2.69,1.56-4.57l1-2.87,6.93.09,3,0,5.16-.14,1,0c.58,0,.87.18.87.55a1.49,1.49,0,0,1-.4,1.06,1.27,1.27,0,0,1-1,.43,9.75,9.75,0,0,1-1.08-.07q-5.34-.27-13.09-.32h-.46l-2,6a18.15,18.15,0,0,1,5.44-.69,23.55,23.55,0,0,1,7.18,1,12.28,12.28,0,0,1,6.82,4.8,11.4,11.4,0,0,1,1.83,6.43,12.25,12.25,0,0,1-1.85,6.58q-4,6.43-12.49,6.43a14.8,14.8,0,0,1-9.68-3.15,9.38,9.38,0,0,1-3.49-7.68,9.21,9.21,0,0,1,1.54-5.35q.75-1.08,1.44-1.08a.9.9,0,0,1,.68.34,1.08,1.08,0,0,1,.31.74.75.75,0,0,1-.15.47c-.1.13-.43.5-1,1.11a5.54,5.54,0,0,0-1.31,4,8.13,8.13,0,0,0,1.61,5,10,10,0,0,0,4.68,3.3,12.68,12.68,0,0,0,4.5.9c.15,0,.49,0,1-.07Z"/><path class="cls-1" d="M1052.72,136.8a2.79,2.79,0,0,0-1.76.47,2.18,2.18,0,0,1-3-.12,14.35,14.35,0,0,0-2.35-1.18c-.71-.35-1.77-.7-2.12-1.29a20.49,20.49,0,0,1-1.77-3.65c-.23-.47.12-.83.71-.94.35-.12.59-.12.94-.24s.47-.35.36-.59-.12-.35-.24-.59a36.05,36.05,0,0,1-2.35-3.53c-1.3-2.24-2.59-4.48-3.77-6.83-.71-1.41-1.3-2.7-2-4.11-.94-2.12-2-4.35-2.94-6.59a9.88,9.88,0,0,1-.83-4.11,1.94,1.94,0,0,0-.59-1.53c-.23-.24-.47-.59-.7-.83-1.18-2-2.36-4.11-3.42-6.12a38.83,38.83,0,0,1-2-3.77c-.59-1.18-.94-2.47-1.53-3.65a70.83,70.83,0,0,1-3.06-8.36.88.88,0,0,1,.37-1c.59-.38,1.29-.71,1.87-1.07a15.79,15.79,0,0,0,1.87-1.17c1.3-.94,2.59-2,3.89-3.06a12.92,12.92,0,0,0,2.24-2c.82-.94,1.53-2,2.24-3a.9.9,0,0,1,1.23-.28,1,1,0,0,1,.19.17,14.38,14.38,0,0,1,1.29,1.41c.94,1.29,2.24,2,3.3,3.06a1.33,1.33,0,0,0,2.12-.12c.11-.12.11-.23.23-.37s.35-.24.59-.24a1.83,1.83,0,0,1,1.76,1.9,1.8,1.8,0,0,1-.23.81c-.12.24-.23.35-.23.59a3.28,3.28,0,0,0,.11,2.12,1.79,1.79,0,0,1-.23,2.24c-.12.12-.12.47-.12.71h.71l.11-.12c.95-.7,1.3-.59,1.42.59a20.41,20.41,0,0,1,.12,2.71,1,1,0,0,0,.82.94c.36,0,.59-.35.59-.94a9.53,9.53,0,0,0-.23-1.77,15.47,15.47,0,0,1-.24-2.35c0-1.65.24-3.18.24-4.83a3.4,3.4,0,0,0-1.3-3.06,11.41,11.41,0,0,0-1.53-.94.9.9,0,0,1-.59-1.06,2,2,0,0,0-.71-1.77c-.94-.94-1.87-1.76-2.82-2.7s-1.87-2-2.83-3a1.4,1.4,0,0,1-.59-1.29c.12-.36.24-.82.36-1.18.11-1.29.35-2.59.47-3.88a17.1,17.1,0,0,0-.12-2.48,15.18,15.18,0,0,0-.47-3.18,29.17,29.17,0,0,0-1.87-5.29,19.73,19.73,0,0,0-5.42-6.6c-.35-.23-.82-.59-.59-1.17a7.14,7.14,0,0,1,.94-1.87,1.48,1.48,0,0,0,.47-1.18,3.58,3.58,0,0,1,2.36-3.53,2.43,2.43,0,0,0,1.18-.94,8.87,8.87,0,0,1,.94-1.41.55.55,0,0,1,.7-.24c.24,0,.36.35.48.59a3,3,0,0,1-.12,2,1.41,1.41,0,0,0,.35,1.65.81.81,0,0,0,.71.12c.11,0,.35-.38.35-.48a11.08,11.08,0,0,1,1.18-3.29,3,3,0,0,0,.12-3.77.57.57,0,0,1,0-.81.61.61,0,0,1,.22-.13,4.57,4.57,0,0,0,1.16-.93c.47-.59.12-1.18-.71-1.18h-.59a1.57,1.57,0,0,1-1.64-.82l-.71-1.06a1.41,1.41,0,0,1-.47-1.3.75.75,0,0,0-.59-.82,1.67,1.67,0,0,1-1.29-1.06c-.36-.71-.83-1.53-1.18-2.24,0-.12-.12-.24-.24-.36-.59-.47-.59-.82-.23-1.41a10.52,10.52,0,0,0,.82-2,.75.75,0,0,0-.25-1l-.09,0a.89.89,0,0,0-1.18.48c-.24.47-.36,1.06-.59,1.53-.35,1.18-1.06,1.41-2.12.82h-.12a5.5,5.5,0,0,0-3.3-.72H1024a2,2,0,0,0-2,1,1.36,1.36,0,0,1-1.3.7,2.09,2.09,0,0,0-1.53.71,14,14,0,0,0-1.65,2.59,4.6,4.6,0,0,0-.11,3.53,2.3,2.3,0,0,1,.11.94c.12.37,0,.83.24,1.18a14.3,14.3,0,0,0,1.17,2.35c.24.47.38.83-.11,1.18a4.76,4.76,0,0,1-1.3.82c-.23.12-.59.12-.7.36s-.36.47-.24.71.35.47.47.58a1.28,1.28,0,0,0,1.3-.23c.47-.35,1.06-.83,1.53-1.18s.94-.35,1.17.23c.12.36.24.71.36,1.18s.11,1.06.82,1.18a1.14,1.14,0,0,1,.94,1.18,10.81,10.81,0,0,1-.35,3.88c-.23.71-.59.94-1.3.71a3.85,3.85,0,0,0-1.17-.12,1.13,1.13,0,0,0-1.23,1,1.2,1.2,0,0,0,0,.42c.24.7,0,.94-.7,1.06a2.83,2.83,0,0,0-1.87.7,10.41,10.41,0,0,0-1.3,1.18c-1.29,1.29-2.71,2.59-4,3.88a54.31,54.31,0,0,1-6.95,5.54c-1.77,1.17-3.65,2.24-5.41,3.41a1.5,1.5,0,0,0-.71,1.3c-.12,1.06-.24,2-.35,3.06s-.47,2.24-.71,3.29c-.71,3.06-1.41,6.12-2.24,9.18a1.49,1.49,0,0,0,1,1.86H996c.47.12.94.36,1.41.48a1,1,0,0,1,.82.94v1.76a2,2,0,0,1-.71,1.53,3.72,3.72,0,0,0-1,2,17.36,17.36,0,0,1-.71,1.87c-.12.36-.59.59-.24,1,.12.11.59,0,1-.12.58-.12.94,0,.7.59a2.32,2.32,0,0,1-.47.94,10,10,0,0,1-1.18,1.17c-.23.24-.47.38-.23.71a.92.92,0,0,0,.59.24.89.89,0,0,0,.47-.24A13.09,13.09,0,0,0,997.62,82a10.15,10.15,0,0,0,1.18-1.87,25.4,25.4,0,0,0,.82-2.83,3.85,3.85,0,0,0,.12-1.17,8.81,8.81,0,0,1,.12-3.89c.12-.35.47-.82.59-1.18s.35-.47.35-.7c.35-1.65.71-3.42,1.06-5.06a22,22,0,0,1,1.41-4.71,14.41,14.41,0,0,0,.94-3.87,2.81,2.81,0,0,1,1.65-2.59l1-.36c1.65-.82,3.19-1.64,4.83-2.59a33,33,0,0,0,5.31-3.77,1.19,1.19,0,0,1,1.77.12c.23.23.47.58.7.82a14.52,14.52,0,0,1,1.18,3.88,15.94,15.94,0,0,1-3.06,10.95,7.49,7.49,0,0,1-5.42,3.06c-.82.12-1.76,0-2.47.83a2.45,2.45,0,0,1-.94.47,4.18,4.18,0,0,0-1.06.47,7,7,0,0,0-3.3,6.36,5.91,5.91,0,0,0,.6,2.47,11.05,11.05,0,0,0,1.64,2.47,1.28,1.28,0,0,1,.12,1.65c-.47.94-.94,2-1.41,3.06-.71,1.53-1.42,2.94-2.25,4.48-.59,1.06-1.29,1.87-1.87,2.95l-3.18,4.93a.64.64,0,0,1-.86.29l-.08,0a15.13,15.13,0,0,1-1.77-1.18C994.1,94.65,992.8,94,991.5,93s-2.47-2.36-3.64-3.53a2.21,2.21,0,0,1-.59-1.65,24,24,0,0,0-.47-3.06,18,18,0,0,0-2.25-5.42,11.21,11.21,0,0,0-4-4.48.86.86,0,0,1-.33-1.16l.1-.14a3.65,3.65,0,0,1,1.76-1.18,4.24,4.24,0,0,0,1.3-.59,4.09,4.09,0,0,1,1.77-.93c.94-.24,1.17-.71,1.05-1.65v-.71a17.16,17.16,0,0,1,.59-2.24c.12-.35.24-.71.47-.83.83-.7.71-1-.23-1.52-.12,0-.12,0-.24-.12a1.35,1.35,0,0,1-.7-1.77,1.23,1.23,0,0,0,.11-.94,28.71,28.71,0,0,0-.82-3.06,6.75,6.75,0,0,0-1.06-1.53c-.24-.38-.59-.71-.59-1.06,0-.95-.23-1.06-1.06-.83a1.49,1.49,0,0,1-1.41-.23c-.59-.47-1.3-.94-1.87-1.41a1.74,1.74,0,0,0-2.12,0,1.85,1.85,0,0,1-1.76.23,2.47,2.47,0,0,0-2.48.59,19.26,19.26,0,0,1-3.41,2.71,1.52,1.52,0,0,0-.59.82,6.23,6.23,0,0,0,.12,2.94c.12.36.23.59.37,1a.91.91,0,0,1-.37.82c-.82.59-.47,1.18,0,1.65a2.18,2.18,0,0,1,.59.82,6.26,6.26,0,0,0,2,2.59,4.43,4.43,0,0,1,2,3.54c0,.93-.12,1.17-1.06,1.17-.71,0-1.06.12-1.29.83-.47,1.05-.94,1.17-2,1.05a3.26,3.26,0,0,0-2.12.12,25.34,25.34,0,0,1-4.11,1.77,2.59,2.59,0,0,0-1.29.59c-.94.7-2,1.53-2.94,2.35l-2.48,2.12-.23.24c-.71.59-1.41,1.29-2.12,1.87-.59.35-1.3.58-1.87.94s-1.18.47-1.18,1.18a5.37,5.37,0,0,1-.94,2.59c-.94,1.52-1.87,3-2.83,4.7s-1.64,3.18-2.47,4.83a3.53,3.53,0,0,0-.23,1.06,1.19,1.19,0,0,1-.59,1.29c-.71.59-1.41,1.06-2.12,1.65a1.31,1.31,0,0,0-.24.71.54.54,0,0,0,.48.35c.35.12.7,0,.82.47s-.4.64-.62.75-.36.12-.59.23-.59.24-.83.38a.88.88,0,0,0-.35,1,.6.6,0,0,0,.67.52.49.49,0,0,0,.16,0c.23,0,.47-.12.7-.12a20.66,20.66,0,0,1,2-.58,3.15,3.15,0,0,0,2.83-2.12c.35-.71.59-.82,1.41-.59a1.56,1.56,0,0,0,2.12-1.18,31.45,31.45,0,0,1,1.07-3.19L954.32,92a5.07,5.07,0,0,1,.91-1.51,14,14,0,0,1,2.83-1.65c.71-.37,1.53-.7,2.24-1.06s1.65-.82,2.47-1.29,1.3-.24,1.65.59a6.82,6.82,0,0,1,.47,3.76,10.5,10.5,0,0,1-2.12,5.3,6.91,6.91,0,0,1-3.29,2.47,5.42,5.42,0,0,0-2.25,1.3,13,13,0,0,0-2.82,3.88,6.54,6.54,0,0,0-.12,4.49,1.5,1.5,0,0,1-.12,1.41c-.59.94-1.18,2-1.76,2.94a14.55,14.55,0,0,0-.95,2.36c-.47,1.29-.82,2.59-1.17,3.88-.12.59-.24,1.06-.83,1.3-.12,0-.23.12-.35.23a7.59,7.59,0,0,1-2.83,2.59c-1.29,1.06-2.7,2-3.88,3.18a33.64,33.64,0,0,0-2.94,4.11l-2.11,3.17c-.11.11-.23.35-.47.35a19.08,19.08,0,0,1-2,1.18,1.18,1.18,0,0,0-.58,1.64,4.44,4.44,0,0,1,.23,1.3c-.23,1.06.38,1.87.47,2.94,0,.12.12.12.12.24a2.12,2.12,0,0,0,2.47-.24,1.65,1.65,0,0,1,2.12-.47,19.92,19.92,0,0,0,2.47.94,4.39,4.39,0,0,0,4-.82.69.69,0,0,0,0-1.29,2.17,2.17,0,0,0-2.24-.12c-.35.12-.82.23-1.06,0-.59-.47-1.29-.94-1.41-1.77,0-.12,0-.23.12-.23a5.49,5.49,0,0,1,1.06-1.3c1.29-1.06,2.7-2.12,4-3.18,1.06-.82,2-1.64,3.06-2.47.7-.59,1.41-1.41,2.47-1.29,1.53.11,2.25-.94,3.06-1.87a33.27,33.27,0,0,0,2.48-3.07l2.47-2.82c1.17-1.3,2.24-2.71,3.41-4a10.38,10.38,0,0,1,5.19-3.42,6.12,6.12,0,0,1,1.41-.24A10.35,10.35,0,0,1,975,114.8c.83.59,1.77,1.17,2.48,1.76a16.51,16.51,0,0,1,2,2,1.05,1.05,0,0,1-.12,1.64c-.83.83-1.65,1.65-2.47,2.36-.47.47-.47.59-.12,1.17s.37,1-.12,1.42-.7.59-.94.82a3.23,3.23,0,0,1-1.77.94,3.09,3.09,0,0,0-2.11,1.3,18,18,0,0,0-1.29,2.6,1.81,1.81,0,0,0,1.77,2.47,1.3,1.3,0,0,1,1.17.58,2.55,2.55,0,0,1,.38,2,2.44,2.44,0,0,0,.47,2c.59.82,1.29,1.76,2,2.59a2.75,2.75,0,0,0,3.41.94c.59-.23,1.06-.47,1.65-.7a.85.85,0,0,0,.12-1.53,1.5,1.5,0,0,0-.71-.24c-2-.24-2-.24-2.35-2.12-.24-1.3-.59-2.59-.82-3.88a7.05,7.05,0,0,1,.11-3.89,25.25,25.25,0,0,1,1.3-2.47q.71-1.41,1.41,0a.74.74,0,0,0,1.41,0,20.06,20.06,0,0,1,1.3-2.12.69.69,0,0,1,1.29,0c.71.94,1.3,2,2.12,2.94a26.32,26.32,0,0,0,2.47,2.59c1.3,1.3,3,2.12,4,3.53.35.47.82,1.06,1.17,1.53a5.8,5.8,0,0,1,1.3,2.71c.35,1.65.82,1.65,1.87,1.18.47-.12.7,0,.82.35a3.18,3.18,0,0,0,1.3,1.77,1.83,1.83,0,0,0,2.82-.71,1.19,1.19,0,0,1,1.3-.82,3.38,3.38,0,0,0,2.59-.71,13.7,13.7,0,0,0,2-1.65,17,17,0,0,0,1.41-1.53c.35-.47,0-.94-.59-1.06a2.09,2.09,0,0,0-1.65.59,3.1,3.1,0,0,1-2.24.59,9.8,9.8,0,0,0-1.87-.12,1.36,1.36,0,0,1-1.29-.59,7.3,7.3,0,0,0-1.42-1.18c-.23-.11-.35-.35-.58-.46a2.39,2.39,0,0,1-.36-.59c-.47-.71-1.06-1.42-1.53-2.12s-.59-1.18-.94-1.65a52.28,52.28,0,0,1-3.3-6.83,13.84,13.84,0,0,0-1.29-2.24,3.94,3.94,0,0,1-.83-1.53,3.12,3.12,0,0,0-.82-1.65.93.93,0,0,1-.12-1.3c1.06-1.53,2.12-3.06,3.3-4.48.94-1.18,2-2.12,2.94-3.3a1.54,1.54,0,0,1,1.17-.46c.59.12.7,0,.82-.7v-.38l.35-.35c.12.12.24.12.24.24s0,.47.12.7a1.7,1.7,0,0,0,.59.71.66.66,0,0,0,.58-.71c0-.47-.11-1.06-.11-1.53a6.53,6.53,0,0,1,0-1.53,13.72,13.72,0,0,1,1.53-2.47l2.12-2.83c.82-1,1.53-2,2.35-3.06q1.56-1.91,3.3-3.65a25.22,25.22,0,0,1,2.59-2.24c.37-.23.82-.35,1.06.12a20.64,20.64,0,0,1,1.29,2.12c.71,1.17,1.41,2.47,2.24,3.77s1.65,2.59,2.59,3.88,1.65,2.35,2.59,3.53a3.23,3.23,0,0,1,.94,2.25,2.23,2.23,0,0,0,.36,1.17c.82,1.65,1.76,3.18,2.59,4.83a34.1,34.1,0,0,1,1.87,4.24,18.28,18.28,0,0,0,1.52,3.41c.12.12.12.24.24.35.83,1.77,1.65,3.65,2.48,5.42.82,2,2,4,2.11,6.36,0,.12.12.23.12.47a9.54,9.54,0,0,1,.24,1.77,1.59,1.59,0,0,0,.23.82c.24.35.71.35.82,0a1.5,1.5,0,0,1,1.07-.82c.58-.24.94-.12,1.17.46a10.05,10.05,0,0,1,.47,1.77,3.7,3.7,0,0,1-.23,1.65,1.92,1.92,0,0,0,.12,2.24c.23.59.59,1.18.82,1.77a1.42,1.42,0,0,0,1.41.94,1.57,1.57,0,0,0,1.53-.94c.24-.59.47-.71,1.18-.59a5.91,5.91,0,0,1,.82.24,6.64,6.64,0,0,0,1.54.82c1.87.35,3.76.47,5.29-.94l1.77-1.77C1053.56,137.52,1053.31,136.93,1052.72,136.8Zm-59.57-34.49c-1.17,1.65-2.35,3.18-3.53,4.83-.7.94-1.41,2-2.12,3-.47.58-.94.58-1.29,0l-3.18-4.6a16.89,16.89,0,0,1-1.29-1.76c-.83-.94-.71-1.3,0-2.36s1.64-2.24,2.47-3.41c.23-.35.35-.82.58-1.18.38-.59.71-.71,1.42-.35.94.47,1.77.94,2.71,1.41,1.41.71,2.94,1.42,4.35,2.12.35.23.83.47.83,1.18C993.74,101.49,993.51,102,993.15,102.31Z"/></svg>