<svg id="Layer_1" data-name="Layer 1" xmlns="http://www.w3.org/2000/svg" xmlns:xlink="http://www.w3.org/1999/xlink" width="491mm" height="146mm" viewBox="0 0 1391.81 413.86"><defs><style>.cls-1,.cls-4,.cls-6,.cls-8{fill:none;}.cls-2{isolation:isolate;}.cls-3{fill:#fff;}.cls-4{stroke:#000;stroke-width:3px;}.cls-5{clip-path:url(#clip-path);}.cls-6{stroke:#717070;}.cls-7{clip-path:url(#clip-path-2);}.cls-8{stroke:#020101;stroke-width:9px;}.cls-9{fill:#1d1d1b;}</style><clipPath id="clip-path"><rect class="cls-1" x="13.27" y="141.59" width="1361.5" height="26.14"/></clipPath><clipPath id="clip-path-2"><rect class="cls-1" x="13.27" y="337.52" width="1361.5" height="26.14"/></clipPath></defs><g id="Component_7_2" data-name="Component 7 2"><g id="Man_21._maj" data-name="Man 21. maj" class="cls-2"><g class="cls-2"><path class="cls-3" d="M184.24,195.84l9,24.08,9-24.08h5.21v28.65h-3.61V200.65h-.08l-8.92,23.84h-3.24l-8.93-23.84h-.08v23.84H179V195.84Z"/><path class="cls-3" d="M231.59,224.41a4.78,4.78,0,0,1-2.44.53,2.9,2.9,0,0,1-2.1-.75,3.21,3.21,0,0,1-.78-2.42,8.11,8.11,0,0,1-3.27,2.42,10.65,10.65,0,0,1-4,.75,10.48,10.48,0,0,1-2.66-.33,6,6,0,0,1-2.18-1,4.83,4.83,0,0,1-1.46-1.78,7.07,7.07,0,0,1,.06-5.56,5.3,5.3,0,0,1,1.58-1.83,7.13,7.13,0,0,1,2.24-1.06q1.26-.36,2.58-.6c.94-.19,1.82-.33,2.66-.43A13.78,13.78,0,0,0,224,212a3.74,3.74,0,0,0,1.52-.76,1.86,1.86,0,0,0,.56-1.46,3.42,3.42,0,0,0-.42-1.81,2.83,2.83,0,0,0-1.08-1,4.45,4.45,0,0,0-1.48-.49,11.28,11.28,0,0,0-1.63-.12,7.15,7.15,0,0,0-3.6.83,3.48,3.48,0,0,0-1.56,3.11h-3.4a7.31,7.31,0,0,1,.8-3.25,6,6,0,0,1,1.92-2.15,8.26,8.26,0,0,1,2.74-1.19,14.51,14.51,0,0,1,3.3-.36,19.92,19.92,0,0,1,2.79.2,7.3,7.3,0,0,1,2.5.83,4.84,4.84,0,0,1,1.8,1.74,5.58,5.58,0,0,1,.68,2.92V219.6a8.32,8.32,0,0,0,.14,1.77c.09.37.41.56.94.56a3.49,3.49,0,0,0,1-.2Zm-5.52-10.67a4.32,4.32,0,0,1-1.68.7q-1,.23-2.19.36c-.76.1-1.52.2-2.3.32a8.44,8.44,0,0,0-2.08.59,3.71,3.71,0,0,0-1.5,1.14,3.18,3.18,0,0,0-.58,2,2.74,2.74,0,0,0,.34,1.42,2.84,2.84,0,0,0,.88.94,3.77,3.77,0,0,0,1.26.53,7.46,7.46,0,0,0,1.52.16,8,8,0,0,0,2.88-.47,5.87,5.87,0,0,0,2-1.16,4.78,4.78,0,0,0,1.12-1.52,3.9,3.9,0,0,0,.36-1.55Z"/><path class="cls-3" d="M238,203.75V207H238a7.17,7.17,0,0,1,6.73-3.78,8.84,8.84,0,0,1,3.4.57,5.5,5.5,0,0,1,2.2,1.56,5.9,5.9,0,0,1,1.18,2.39,12.71,12.71,0,0,1,.34,3.07v13.64h-3.4v-14a3.89,3.89,0,0,0-4.2-4.18,6.83,6.83,0,0,0-2.71.49,5.05,5.05,0,0,0-1.9,1.36,6.12,6.12,0,0,0-1.14,2.07,8.53,8.53,0,0,0-.38,2.59v11.71h-3.4V203.75Z"/></g><g class="cls-2"><path class="cls-3" d="M189.53,250.26a8.45,8.45,0,0,1,1.74-3.19,8,8,0,0,1,2.94-2.11,10.12,10.12,0,0,1,4-.76,10.86,10.86,0,0,1,3.46.54,8.43,8.43,0,0,1,2.82,1.57,7.2,7.2,0,0,1,1.91,2.55,8.45,8.45,0,0,1,.7,3.53,9,9,0,0,1-.58,3.33,9.6,9.6,0,0,1-1.54,2.59,13.13,13.13,0,0,1-2.21,2.06c-.82.62-1.68,1.21-2.56,1.77l-2.64,1.59a20.15,20.15,0,0,0-2.42,1.66,11.28,11.28,0,0,0-1.88,1.91,5.36,5.36,0,0,0-1,2.35h14.57v3H188.29a14.93,14.93,0,0,1,.9-4.32,11.34,11.34,0,0,1,1.78-3.11,13.46,13.46,0,0,1,2.44-2.33,33.24,33.24,0,0,1,2.84-1.88c1.2-.75,2.25-1.44,3.16-2.07a13.55,13.55,0,0,0,2.26-1.91A6.67,6.67,0,0,0,203,255a6.8,6.8,0,0,0,.46-2.61,4.83,4.83,0,0,0-.44-2.11,5.1,5.1,0,0,0-2.92-2.67,6.21,6.21,0,0,0-2.12-.36,5,5,0,0,0-2.54.62,5.33,5.33,0,0,0-1.74,1.63,6.63,6.63,0,0,0-1,2.27,9.5,9.5,0,0,0-.26,2.54h-3.4A11.38,11.38,0,0,1,189.53,250.26Z"/><path class="cls-3" d="M220.42,272.66V252.27h-7.36v-2.73a17.16,17.16,0,0,0,2.8-.22,7.45,7.45,0,0,0,2.46-.83,5.41,5.41,0,0,0,1.86-1.64,6.17,6.17,0,0,0,1-2.65h2.61v28.46Z"/><path class="cls-3" d="M239.6,268.2v4.46h-4.45V268.2Z"/></g><g class="cls-2"><path class="cls-3" d="M188.65,300.07v3.05h.08a8.05,8.05,0,0,1,10.16-2.73,4.44,4.44,0,0,1,2.2,2.73,7.22,7.22,0,0,1,2.74-2.61,7.71,7.71,0,0,1,3.75-.92,10.69,10.69,0,0,1,2.82.34,5.75,5.75,0,0,1,2.16,1.06,4.74,4.74,0,0,1,1.4,1.87,6.89,6.89,0,0,1,.5,2.75v15.21h-3.4V307.21a10.21,10.21,0,0,0-.16-1.8,3.8,3.8,0,0,0-.6-1.47,3.07,3.07,0,0,0-1.22-1,4.87,4.87,0,0,0-2-.36,5.38,5.38,0,0,0-4,1.44,5.21,5.21,0,0,0-1.44,3.85v12.93h-3.4V307.21a8.93,8.93,0,0,0-.18-1.85,4,4,0,0,0-.62-1.46,2.87,2.87,0,0,0-1.18-1,4.52,4.52,0,0,0-1.9-.34,5.05,5.05,0,0,0-2.54.6,5.72,5.72,0,0,0-1.72,1.44,5.82,5.82,0,0,0-1,1.75,4.94,4.94,0,0,0-.3,1.5v12.93h-3.41V300.07Z"/><path class="cls-3" d="M237.91,320.73a4.75,4.75,0,0,1-2.44.53,2.94,2.94,0,0,1-2.1-.74,3.25,3.25,0,0,1-.78-2.43,8.2,8.2,0,0,1-3.26,2.43,11.26,11.26,0,0,1-6.68.42,6.22,6.22,0,0,1-2.19-1,4.83,4.83,0,0,1-1.46-1.78,7.07,7.07,0,0,1,.06-5.56,5.3,5.3,0,0,1,1.58-1.83,7.41,7.41,0,0,1,2.25-1.06q1.26-.36,2.58-.6c.93-.19,1.82-.33,2.66-.42a14.74,14.74,0,0,0,2.22-.41,3.56,3.56,0,0,0,1.52-.76,1.86,1.86,0,0,0,.56-1.46,3.44,3.44,0,0,0-.42-1.81,2.91,2.91,0,0,0-1.08-1,4.37,4.37,0,0,0-1.48-.48,11.25,11.25,0,0,0-1.62-.12,7.16,7.16,0,0,0-3.6.82,3.49,3.49,0,0,0-1.56,3.11h-3.41a7.45,7.45,0,0,1,.8-3.25,6,6,0,0,1,1.92-2.15,8.1,8.1,0,0,1,2.75-1.18,14.39,14.39,0,0,1,3.3-.36,18.48,18.48,0,0,1,2.78.2,7.08,7.08,0,0,1,2.5.82,4.7,4.7,0,0,1,1.8,1.74,5.51,5.51,0,0,1,.68,2.92v10.66a8.21,8.21,0,0,0,.14,1.76c.1.37.41.56.94.56a3.43,3.43,0,0,0,1-.2Zm-5.52-10.67a4.18,4.18,0,0,1-1.68.7c-.69.15-1.42.27-2.18.36s-1.53.2-2.3.33a8.19,8.19,0,0,0-2.08.58,3.75,3.75,0,0,0-1.5,1.14,3.2,3.2,0,0,0-.59,2,2.74,2.74,0,0,0,.35,1.42,2.77,2.77,0,0,0,.88.95,3.76,3.76,0,0,0,1.26.52,7.38,7.38,0,0,0,1.52.16,8.2,8.2,0,0,0,2.88-.46,6.11,6.11,0,0,0,2-1.17A4.53,4.53,0,0,0,232,315.1a3.9,3.9,0,0,0,.36-1.55Z"/><path class="cls-3" d="M243.34,327.46a5.09,5.09,0,0,1-3.63,1.26,8.59,8.59,0,0,1-1.72-.16v-2.93l.34.06a1.51,1.51,0,0,0,.3,0h.72a1.68,1.68,0,0,0,1.53-.62,4.49,4.49,0,0,0,.4-2.23V300.07h3.4v23.36A5.33,5.33,0,0,1,243.34,327.46Zm-2.06-31.12v-4.18h3.4v4.18Z"/></g></g><g id="Man_21._maj-2" data-name="Man 21. maj-2" class="cls-2"><g class="cls-2"><path class="cls-3" d="M184.24,195.84l9,24.08,9-24.08h5.21v28.65h-3.61V200.65h-.08l-8.92,23.84h-3.24l-8.93-23.84h-.08v23.84H179V195.84Z"/><path class="cls-3" d="M231.59,224.41a4.78,4.78,0,0,1-2.44.53,2.9,2.9,0,0,1-2.1-.75,3.21,3.21,0,0,1-.78-2.42,8.11,8.11,0,0,1-3.27,2.42,10.65,10.65,0,0,1-4,.75,10.48,10.48,0,0,1-2.66-.33,6,6,0,0,1-2.18-1,4.83,4.83,0,0,1-1.46-1.78,7.07,7.07,0,0,1,.06-5.56,5.3,5.3,0,0,1,1.58-1.83,7.13,7.13,0,0,1,2.24-1.06q1.26-.36,2.58-.6c.94-.19,1.82-.33,2.66-.43A13.78,13.78,0,0,0,224,212a3.74,3.74,0,0,0,1.52-.76,1.86,1.86,0,0,0,.56-1.46,3.42,3.42,0,0,0-.42-1.81,2.83,2.83,0,0,0-1.08-1,4.45,4.45,0,0,0-1.48-.49,11.28,11.28,0,0,0-1.63-.12,7.15,7.15,0,0,0-3.6.83,3.48,3.48,0,0,0-1.56,3.11h-3.4a7.31,7.31,0,0,1,.8-3.25,6,6,0,0,1,1.92-2.15,8.26,8.26,0,0,1,2.74-1.19,14.51,14.51,0,0,1,3.3-.36,19.92,19.92,0,0,1,2.79.2,7.3,7.3,0,0,1,2.5.83,4.84,4.84,0,0,1,1.8,1.74,5.58,5.58,0,0,1,.68,2.92V219.6a8.32,8.32,0,0,0,.14,1.77c.09.37.41.56.94.56a3.49,3.49,0,0,0,1-.2Zm-5.52-10.67a4.32,4.32,0,0,1-1.68.7q-1,.23-2.19.36c-.76.1-1.52.2-2.3.32a8.44,8.44,0,0,0-2.08.59,3.71,3.71,0,0,0-1.5,1.14,3.18,3.18,0,0,0-.58,2,2.74,2.74,0,0,0,.34,1.42,2.84,2.84,0,0,0,.88.94,3.77,3.77,0,0,0,1.26.53,7.46,7.46,0,0,0,1.52.16,8,8,0,0,0,2.88-.47,5.87,5.87,0,0,0,2-1.16,4.78,4.78,0,0,0,1.12-1.52,3.9,3.9,0,0,0,.36-1.55Z"/><path class="cls-3" d="M238,203.75V207H238a7.17,7.17,0,0,1,6.73-3.78,8.84,8.84,0,0,1,3.4.57,5.5,5.5,0,0,1,2.2,1.56,5.9,5.9,0,0,1,1.18,2.39,12.71,12.71,0,0,1,.34,3.07v13.64h-3.4v-14a3.89,3.89,0,0,0-4.2-4.18,6.83,6.83,0,0,0-2.71.49,5.05,5.05,0,0,0-1.9,1.36,6.12,6.12,0,0,0-1.14,2.07,8.53,8.53,0,0,0-.38,2.59v11.71h-3.4V203.75Z"/></g><g class="cls-2"><path class="cls-3" d="M189.53,250.26a8.45,8.45,0,0,1,1.74-3.19,8,8,0,0,1,2.94-2.11,10.12,10.12,0,0,1,4-.76,10.86,10.86,0,0,1,3.46.54,8.43,8.43,0,0,1,2.82,1.57,7.2,7.2,0,0,1,1.91,2.55,8.45,8.45,0,0,1,.7,3.53,9,9,0,0,1-.58,3.33,9.6,9.6,0,0,1-1.54,2.59,13.13,13.13,0,0,1-2.21,2.06c-.82.62-1.68,1.21-2.56,1.77l-2.64,1.59a20.15,20.15,0,0,0-2.42,1.66,11.28,11.28,0,0,0-1.88,1.91,5.36,5.36,0,0,0-1,2.35h14.57v3H188.29a14.93,14.93,0,0,1,.9-4.32,11.34,11.34,0,0,1,1.78-3.11,13.46,13.46,0,0,1,2.44-2.33,33.24,33.24,0,0,1,2.84-1.88c1.2-.75,2.25-1.44,3.16-2.07a13.55,13.55,0,0,0,2.26-1.91A6.67,6.67,0,0,0,203,255a6.8,6.8,0,0,0,.46-2.61,4.83,4.83,0,0,0-.44-2.11,5.1,5.1,0,0,0-2.92-2.67,6.21,6.21,0,0,0-2.12-.36,5,5,0,0,0-2.54.62,5.33,5.33,0,0,0-1.74,1.63,6.63,6.63,0,0,0-1,2.27,9.5,9.5,0,0,0-.26,2.54h-3.4A11.38,11.38,0,0,1,189.53,250.26Z"/><path class="cls-3" d="M220.42,272.66V252.27h-7.36v-2.73a17.16,17.16,0,0,0,2.8-.22,7.45,7.45,0,0,0,2.46-.83,5.41,5.41,0,0,0,1.86-1.64,6.17,6.17,0,0,0,1-2.65h2.61v28.46Z"/><path class="cls-3" d="M239.6,268.2v4.46h-4.45V268.2Z"/></g><g class="cls-2"><path class="cls-3" d="M188.65,300.07v3.05h.08a8.05,8.05,0,0,1,10.16-2.73,4.44,4.44,0,0,1,2.2,2.73,7.22,7.22,0,0,1,2.74-2.61,7.71,7.71,0,0,1,3.75-.92,10.69,10.69,0,0,1,2.82.34,5.75,5.75,0,0,1,2.16,1.06,4.74,4.74,0,0,1,1.4,1.87,6.89,6.89,0,0,1,.5,2.75v15.21h-3.4V307.21a10.21,10.21,0,0,0-.16-1.8,3.8,3.8,0,0,0-.6-1.47,3.07,3.07,0,0,0-1.22-1,4.87,4.87,0,0,0-2-.36,5.38,5.38,0,0,0-4,1.44,5.21,5.21,0,0,0-1.44,3.85v12.93h-3.4V307.21a8.93,8.93,0,0,0-.18-1.85,4,4,0,0,0-.62-1.46,2.87,2.87,0,0,0-1.18-1,4.52,4.52,0,0,0-1.9-.34,5.05,5.05,0,0,0-2.54.6,5.72,5.72,0,0,0-1.72,1.44,5.82,5.82,0,0,0-1,1.75,4.94,4.94,0,0,0-.3,1.5v12.93h-3.41V300.07Z"/><path class="cls-3" d="M237.91,320.73a4.75,4.75,0,0,1-2.44.53,2.94,2.94,0,0,1-2.1-.74,3.25,3.25,0,0,1-.78-2.43,8.2,8.2,0,0,1-3.26,2.43,11.26,11.26,0,0,1-6.68.42,6.22,6.22,0,0,1-2.19-1,4.83,4.83,0,0,1-1.46-1.78,7.07,7.07,0,0,1,.06-5.56,5.3,5.3,0,0,1,1.58-1.83,7.41,7.41,0,0,1,2.25-1.06q1.26-.36,2.58-.6c.93-.19,1.82-.33,2.66-.42a14.74,14.74,0,0,0,2.22-.41,3.56,3.56,0,0,0,1.52-.76,1.86,1.86,0,0,0,.56-1.46,3.44,3.44,0,0,0-.42-1.81,2.91,2.91,0,0,0-1.08-1,4.37,4.37,0,0,0-1.48-.48,11.25,11.25,0,0,0-1.62-.12,7.16,7.16,0,0,0-3.6.82,3.49,3.49,0,0,0-1.56,3.11h-3.41a7.45,7.45,0,0,1,.8-3.25,6,6,0,0,1,1.92-2.15,8.1,8.1,0,0,1,2.75-1.18,14.39,14.39,0,0,1,3.3-.36,18.48,18.48,0,0,1,2.78.2,7.08,7.08,0,0,1,2.5.82,4.7,4.7,0,0,1,1.8,1.74,5.51,5.51,0,0,1,.68,2.92v10.66a8.21,8.21,0,0,0,.14,1.76c.1.37.41.56.94.56a3.43,3.43,0,0,0,1-.2Zm-5.52-10.67a4.18,4.18,0,0,1-1.68.7c-.69.15-1.42.27-2.18.36s-1.53.2-2.3.33a8.19,8.19,0,0,0-2.08.58,3.75,3.75,0,0,0-1.5,1.14,3.2,3.2,0,0,0-.59,2,2.74,2.74,0,0,0,.35,1.42,2.77,2.77,0,0,0,.88.95,3.76,3.76,0,0,0,1.26.52,7.38,7.38,0,0,0,1.52.16,8.2,8.2,0,0,0,2.88-.46,6.11,6.11,0,0,0,2-1.17A4.53,4.53,0,0,0,232,315.1a3.9,3.9,0,0,0,.36-1.55Z"/><path class="cls-3" d="M243.34,327.46a5.09,5.09,0,0,1-3.63,1.26,8.59,8.59,0,0,1-1.72-.16v-2.93l.34.06a1.51,1.51,0,0,0,.3,0h.72a1.68,1.68,0,0,0,1.53-.62,4.49,4.49,0,0,0,.4-2.23V300.07h3.4v23.36A5.33,5.33,0,0,1,243.34,327.46Zm-2.06-31.12v-4.18h3.4v4.18Z"/></g></g><path id="Path_1055" data-name="Path 1055" class="cls-1" d="M99.24,102.23l1164.63.29s-1.19,14,23.76,22,69,8.16,69,8.16V247.05s-44.06-1.16-69,7.3-23.76,22.41-23.76,22.41L99.24,277.85s6.06-15.05-18.75-23.5S0,246.24,0,246.24V134.3s55.68-1.76,80.49-9.75S99.24,102.23,99.24,102.23Z"/><g id="Rectangle_491" data-name="Rectangle 491"><rect x="1.24" y="92.38" width="1390.57" height="320.9"/><rect class="cls-4" x="2.74" y="93.88" width="1387.57" height="317.89"/></g><g class="cls-5"><g id="Repeat_Grid_4" data-name="Repeat Grid 4"><g id="Rectangle_490" data-name="Rectangle 490"><path class="cls-3" d="M20.27,141.59h5a7,7,0,0,1,7,7v14a7,7,0,0,1-7,7h-5a7,7,0,0,1-7-7v-14A7,7,0,0,1,20.27,141.59Z"/><path class="cls-6" d="M20.27,142.09h5a6.51,6.51,0,0,1,6.5,6.52v14a6.51,6.51,0,0,1-6.5,6.52h-5a6.51,6.51,0,0,1-6.5-6.52v-14A6.51,6.51,0,0,1,20.27,142.09Z"/></g><g id="Rectangle_490-2" data-name="Rectangle 490-2"><path class="cls-3" d="M59.3,141.59h5a7,7,0,0,1,7,7v14a7,7,0,0,1-7,7h-5a7,7,0,0,1-7-7v-14A7,7,0,0,1,59.3,141.59Z"/><path class="cls-6" d="M59.3,142.09h5a6.51,6.51,0,0,1,6.5,6.52v14a6.51,6.51,0,0,1-6.5,6.52h-5a6.51,6.51,0,0,1-6.51-6.52v-14A6.51,6.51,0,0,1,59.3,142.09Z"/></g><g id="Rectangle_490-3" data-name="Rectangle 490-3"><path class="cls-3" d="M98.32,141.59h5a7,7,0,0,1,7,7v14a7,7,0,0,1-7,7h-5a7,7,0,0,1-7-7v-14A7,7,0,0,1,98.32,141.59Z"/><path class="cls-6" d="M98.32,142.09h5a6.51,6.51,0,0,1,6.5,6.52v14a6.51,6.51,0,0,1-6.5,6.52h-5a6.52,6.52,0,0,1-6.51-6.52v-14A6.52,6.52,0,0,1,98.32,142.09Z"/></g><g id="Rectangle_490-4" data-name="Rectangle 490-4"><path class="cls-3" d="M137.34,141.59h5a7,7,0,0,1,7,7v14a7,7,0,0,1-7,7h-5a7,7,0,0,1-7-7v-14A7,7,0,0,1,137.34,141.59Z"/><path class="cls-6" d="M137.34,142.09h5a6.51,6.51,0,0,1,6.51,6.52v14a6.51,6.51,0,0,1-6.51,6.52h-5a6.51,6.51,0,0,1-6.5-6.52v-14A6.51,6.51,0,0,1,137.34,142.09Z"/></g><g id="Rectangle_490-5" data-name="Rectangle 490-5"><path class="cls-3" d="M176.36,141.59h5a7,7,0,0,1,7,7v14a7,7,0,0,1-7,7h-5a7,7,0,0,1-7-7v-14A7,7,0,0,1,176.36,141.59Z"/><path class="cls-6" d="M176.36,142.09h5a6.51,6.51,0,0,1,6.5,6.52v14a6.51,6.51,0,0,1-6.5,6.52h-5a6.51,6.51,0,0,1-6.5-6.52v-14A6.51,6.51,0,0,1,176.36,142.09Z"/></g><g id="Rectangle_490-6" data-name="Rectangle 490-6"><path class="cls-3" d="M215.39,141.59h5a7,7,0,0,1,7,7v14a7,7,0,0,1-7,7h-5a7,7,0,0,1-7-7v-14A7,7,0,0,1,215.39,141.59Z"/><path class="cls-6" d="M215.39,142.09h5a6.51,6.51,0,0,1,6.5,6.52v14a6.51,6.51,0,0,1-6.5,6.52h-5a6.51,6.51,0,0,1-6.51-6.52v-14A6.51,6.51,0,0,1,215.39,142.09Z"/></g><g id="Rectangle_490-7" data-name="Rectangle 490-7"><path class="cls-3" d="M254.41,141.59h5a7,7,0,0,1,7,7v14a7,7,0,0,1-7,7h-5a7,7,0,0,1-7-7v-14A7,7,0,0,1,254.41,141.59Z"/><path class="cls-6" d="M254.41,142.09h5a6.52,6.52,0,0,1,6.51,6.52v14a6.52,6.52,0,0,1-6.51,6.52h-5a6.51,6.51,0,0,1-6.5-6.52v-14A6.51,6.51,0,0,1,254.41,142.09Z"/></g><g id="Rectangle_490-8" data-name="Rectangle 490-8"><path class="cls-3" d="M293.43,141.59h5a7,7,0,0,1,7,7v14a7,7,0,0,1-7,7h-5a7,7,0,0,1-7-7v-14A7,7,0,0,1,293.43,141.59Z"/><path class="cls-6" d="M293.43,142.09h5a6.51,6.51,0,0,1,6.51,6.52v14a6.51,6.51,0,0,1-6.51,6.52h-5a6.51,6.51,0,0,1-6.5-6.52v-14A6.51,6.51,0,0,1,293.43,142.09Z"/></g><g id="Rectangle_490-9" data-name="Rectangle 490-9"><path class="cls-3" d="M332.45,141.59h5a7,7,0,0,1,7,7v14a7,7,0,0,1-7,7h-5a7,7,0,0,1-7-7v-14A7,7,0,0,1,332.45,141.59Z"/><path class="cls-6" d="M332.45,142.09h5a6.51,6.51,0,0,1,6.5,6.52v14a6.51,6.51,0,0,1-6.5,6.52h-5a6.51,6.51,0,0,1-6.5-6.52v-14A6.51,6.51,0,0,1,332.45,142.09Z"/></g><g id="Rectangle_490-10" data-name="Rectangle 490-10"><path class="cls-3" d="M371.48,141.59h5a7,7,0,0,1,7,7v14a7,7,0,0,1-7,7h-5a7,7,0,0,1-7-7v-14A7,7,0,0,1,371.48,141.59Z"/><path class="cls-6" d="M371.48,142.09h5a6.51,6.51,0,0,1,6.5,6.52v14a6.51,6.51,0,0,1-6.5,6.52h-5a6.52,6.52,0,0,1-6.51-6.52v-14A6.52,6.52,0,0,1,371.48,142.09Z"/></g><g id="Rectangle_490-11" data-name="Rectangle 490-11"><path class="cls-3" d="M410.5,141.59h5a7,7,0,0,1,7,7v14a7,7,0,0,1-7,7h-5a7,7,0,0,1-7-7v-14A7,7,0,0,1,410.5,141.59Z"/><path class="cls-6" d="M410.5,142.09h5a6.52,6.52,0,0,1,6.51,6.52v14a6.52,6.52,0,0,1-6.51,6.52h-5a6.51,6.51,0,0,1-6.5-6.52v-14A6.51,6.51,0,0,1,410.5,142.09Z"/></g><g id="Rectangle_490-12" data-name="Rectangle 490-12"><path class="cls-3" d="M449.52,141.59h5a7,7,0,0,1,7,7v14a7,7,0,0,1-7,7h-5a7,7,0,0,1-7-7v-14A7,7,0,0,1,449.52,141.59Z"/><path class="cls-6" d="M449.52,142.09h5a6.51,6.51,0,0,1,6.5,6.52v14a6.51,6.51,0,0,1-6.5,6.52h-5a6.51,6.51,0,0,1-6.5-6.52v-14A6.51,6.51,0,0,1,449.52,142.09Z"/></g><g id="Rectangle_490-13" data-name="Rectangle 490-13"><path class="cls-3" d="M488.55,141.59h5a7,7,0,0,1,7,7v14a7,7,0,0,1-7,7h-5a7,7,0,0,1-7-7v-14A7,7,0,0,1,488.55,141.59Z"/><path class="cls-6" d="M488.55,142.09h5a6.51,6.51,0,0,1,6.5,6.52v14a6.51,6.51,0,0,1-6.5,6.52h-5a6.51,6.51,0,0,1-6.51-6.52v-14A6.51,6.51,0,0,1,488.55,142.09Z"/></g><g id="Rectangle_490-14" data-name="Rectangle 490-14"><path class="cls-3" d="M527.57,141.59h5a7,7,0,0,1,7,7v14a7,7,0,0,1-7,7h-5a7,7,0,0,1-7-7v-14A7,7,0,0,1,527.57,141.59Z"/><path class="cls-6" d="M527.57,142.09h5a6.51,6.51,0,0,1,6.5,6.52v14a6.51,6.51,0,0,1-6.5,6.52h-5a6.52,6.52,0,0,1-6.51-6.52v-14A6.52,6.52,0,0,1,527.57,142.09Z"/></g><g id="Rectangle_490-15" data-name="Rectangle 490-15"><path class="cls-3" d="M566.59,141.59h5a7,7,0,0,1,7,7v14a7,7,0,0,1-7,7h-5a7,7,0,0,1-7-7v-14A7,7,0,0,1,566.59,141.59Z"/><path class="cls-6" d="M566.59,142.09h5a6.51,6.51,0,0,1,6.51,6.52v14a6.51,6.51,0,0,1-6.51,6.52h-5a6.51,6.51,0,0,1-6.5-6.52v-14A6.51,6.51,0,0,1,566.59,142.09Z"/></g><g id="Rectangle_490-16" data-name="Rectangle 490-16"><path class="cls-3" d="M605.61,141.59h5a7,7,0,0,1,7,7v14a7,7,0,0,1-7,7h-5a7,7,0,0,1-7-7v-14A7,7,0,0,1,605.61,141.59Z"/><path class="cls-6" d="M605.61,142.09h5a6.51,6.51,0,0,1,6.5,6.52v14a6.51,6.51,0,0,1-6.5,6.52h-5a6.51,6.51,0,0,1-6.5-6.52v-14A6.51,6.51,0,0,1,605.61,142.09Z"/></g><g id="Rectangle_490-17" data-name="Rectangle 490-17"><path class="cls-3" d="M644.64,141.59h5a7,7,0,0,1,7,7v14a7,7,0,0,1-7,7h-5a7,7,0,0,1-7-7v-14A7,7,0,0,1,644.64,141.59Z"/><path class="cls-6" d="M644.64,142.09h5a6.51,6.51,0,0,1,6.5,6.52v14a6.51,6.51,0,0,1-6.5,6.52h-5a6.51,6.51,0,0,1-6.51-6.52v-14A6.51,6.51,0,0,1,644.64,142.09Z"/></g><g id="Rectangle_490-18" data-name="Rectangle 490-18"><path class="cls-3" d="M683.66,141.59h5a7,7,0,0,1,7,7v14a7,7,0,0,1-7,7h-5a7,7,0,0,1-7-7v-14A7,7,0,0,1,683.66,141.59Z"/><path class="cls-6" d="M683.66,142.09h5a6.52,6.52,0,0,1,6.51,6.52v14a6.52,6.52,0,0,1-6.51,6.52h-5a6.51,6.51,0,0,1-6.5-6.52v-14A6.51,6.51,0,0,1,683.66,142.09Z"/></g><g id="Rectangle_490-19" data-name="Rectangle 490-19"><path class="cls-3" d="M722.68,141.59h5a7,7,0,0,1,7,7v14a7,7,0,0,1-7,7h-5a7,7,0,0,1-7-7v-14A7,7,0,0,1,722.68,141.59Z"/><path class="cls-6" d="M722.68,142.09h5a6.51,6.51,0,0,1,6.51,6.52v14a6.51,6.51,0,0,1-6.51,6.52h-5a6.51,6.51,0,0,1-6.5-6.52v-14A6.51,6.51,0,0,1,722.68,142.09Z"/></g><g id="Rectangle_490-20" data-name="Rectangle 490-20"><path class="cls-3" d="M761.7,141.59h5a7,7,0,0,1,7,7v14a7,7,0,0,1-7,7h-5a7,7,0,0,1-7-7v-14A7,7,0,0,1,761.7,141.59Z"/><path class="cls-6" d="M761.7,142.09h5a6.51,6.51,0,0,1,6.5,6.52v14a6.51,6.51,0,0,1-6.5,6.52h-5a6.51,6.51,0,0,1-6.5-6.52v-14A6.51,6.51,0,0,1,761.7,142.09Z"/></g><g id="Rectangle_490-21" data-name="Rectangle 490-21"><path class="cls-3" d="M800.73,141.59h5a7,7,0,0,1,7,7v14a7,7,0,0,1-7,7h-5a7,7,0,0,1-7-7v-14A7,7,0,0,1,800.73,141.59Z"/><path class="cls-6" d="M800.73,142.09h5a6.51,6.51,0,0,1,6.5,6.52v14a6.51,6.51,0,0,1-6.5,6.52h-5a6.52,6.52,0,0,1-6.51-6.52v-14A6.52,6.52,0,0,1,800.73,142.09Z"/></g><g id="Rectangle_490-22" data-name="Rectangle 490-22"><path class="cls-3" d="M839.75,141.59h5a7,7,0,0,1,7,7v14a7,7,0,0,1-7,7h-5a7,7,0,0,1-7-7v-14A7,7,0,0,1,839.75,141.59Z"/><path class="cls-6" d="M839.75,142.09h5a6.52,6.52,0,0,1,6.51,6.52v14a6.52,6.52,0,0,1-6.51,6.52h-5a6.51,6.51,0,0,1-6.5-6.52v-14A6.51,6.51,0,0,1,839.75,142.09Z"/></g><g id="Rectangle_490-23" data-name="Rectangle 490-23"><path class="cls-3" d="M878.77,141.59h5a7,7,0,0,1,7,7v14a7,7,0,0,1-7,7h-5a7,7,0,0,1-7-7v-14A7,7,0,0,1,878.77,141.59Z"/><path class="cls-6" d="M878.77,142.09h5a6.51,6.51,0,0,1,6.5,6.52v14a6.51,6.51,0,0,1-6.5,6.52h-5a6.51,6.51,0,0,1-6.5-6.52v-14A6.51,6.51,0,0,1,878.77,142.09Z"/></g><g id="Rectangle_490-24" data-name="Rectangle 490-24"><path class="cls-3" d="M917.8,141.59h5a7,7,0,0,1,7,7v14a7,7,0,0,1-7,7h-5a7,7,0,0,1-7-7v-14A7,7,0,0,1,917.8,141.59Z"/><path class="cls-6" d="M917.8,142.09h5a6.51,6.51,0,0,1,6.5,6.52v14a6.51,6.51,0,0,1-6.5,6.52h-5a6.51,6.51,0,0,1-6.51-6.52v-14A6.51,6.51,0,0,1,917.8,142.09Z"/></g><g id="Rectangle_490-25" data-name="Rectangle 490-25"><path class="cls-3" d="M956.82,141.59h5a7,7,0,0,1,7,7v14a7,7,0,0,1-7,7h-5a7,7,0,0,1-7-7v-14A7,7,0,0,1,956.82,141.59Z"/><rect class="cls-6" x="950.31" y="142.09" width="18.01" height="27.09" rx="6.52"/></g><g id="Rectangle_490-26" data-name="Rectangle 490-26"><path class="cls-3" d="M995.84,141.59h5a7,7,0,0,1,7,7v14a7,7,0,0,1-7,7h-5a7,7,0,0,1-7-7v-14A7,7,0,0,1,995.84,141.59Z"/><path class="cls-6" d="M995.84,142.09h5a6.51,6.51,0,0,1,6.51,6.52v14a6.51,6.51,0,0,1-6.51,6.52h-5a6.51,6.51,0,0,1-6.5-6.52v-14A6.51,6.51,0,0,1,995.84,142.09Z"/></g><g id="Rectangle_490-27" data-name="Rectangle 490-27"><path class="cls-3" d="M1034.86,141.59h5a7,7,0,0,1,7,7v14a7,7,0,0,1-7,7h-5a7,7,0,0,1-7-7v-14A7,7,0,0,1,1034.86,141.59Z"/><path class="cls-6" d="M1034.86,142.09h5a6.51,6.51,0,0,1,6.5,6.52v14a6.51,6.51,0,0,1-6.5,6.52h-5a6.51,6.51,0,0,1-6.5-6.52v-14A6.51,6.51,0,0,1,1034.86,142.09Z"/></g><g id="Rectangle_490-28" data-name="Rectangle 490-28"><path class="cls-3" d="M1073.89,141.59h5a7,7,0,0,1,7,7v14a7,7,0,0,1-7,7h-5a7,7,0,0,1-7-7v-14A7,7,0,0,1,1073.89,141.59Z"/><path class="cls-6" d="M1073.89,142.09h5a6.51,6.51,0,0,1,6.5,6.52v14a6.51,6.51,0,0,1-6.5,6.52h-5a6.51,6.51,0,0,1-6.51-6.52v-14A6.51,6.51,0,0,1,1073.89,142.09Z"/></g><g id="Rectangle_490-29" data-name="Rectangle 490-29"><path class="cls-3" d="M1112.91,141.59h5a7,7,0,0,1,7,7v14a7,7,0,0,1-7,7h-5a7,7,0,0,1-7-7v-14A7,7,0,0,1,1112.91,141.59Z"/><path class="cls-6" d="M1112.91,142.09h5a6.52,6.52,0,0,1,6.51,6.52v14a6.52,6.52,0,0,1-6.51,6.52h-5a6.52,6.52,0,0,1-6.51-6.52v-14A6.52,6.52,0,0,1,1112.91,142.09Z"/></g><g id="Rectangle_490-30" data-name="Rectangle 490-30"><path class="cls-3" d="M1151.93,141.59h5a7,7,0,0,1,7,7v14a7,7,0,0,1-7,7h-5a7,7,0,0,1-7-7v-14A7,7,0,0,1,1151.93,141.59Z"/><path class="cls-6" d="M1151.93,142.09h5a6.51,6.51,0,0,1,6.51,6.52v14a6.51,6.51,0,0,1-6.51,6.52h-5a6.51,6.51,0,0,1-6.5-6.52v-14A6.51,6.51,0,0,1,1151.93,142.09Z"/></g><g id="Rectangle_490-31" data-name="Rectangle 490-31"><path class="cls-3" d="M1191,141.59h5a7,7,0,0,1,7,7v14a7,7,0,0,1-7,7h-5a7,7,0,0,1-7-7v-14A7,7,0,0,1,1191,141.59Z"/><path class="cls-6" d="M1191,142.09h5a6.51,6.51,0,0,1,6.5,6.52v14a6.51,6.51,0,0,1-6.5,6.52h-5a6.51,6.51,0,0,1-6.5-6.52v-14A6.51,6.51,0,0,1,1191,142.09Z"/></g><g id="Rectangle_490-32" data-name="Rectangle 490-32"><path class="cls-3" d="M1230,141.59h5a7,7,0,0,1,7,7v14a7,7,0,0,1-7,7h-5a7,7,0,0,1-7-7v-14A7,7,0,0,1,1230,141.59Z"/><path class="cls-6" d="M1230,142.09h5a6.51,6.51,0,0,1,6.5,6.52v14a6.51,6.51,0,0,1-6.5,6.52h-5a6.51,6.51,0,0,1-6.51-6.52v-14A6.51,6.51,0,0,1,1230,142.09Z"/></g><g id="Rectangle_490-33" data-name="Rectangle 490-33"><path class="cls-3" d="M1269,141.59h5a7,7,0,0,1,7,7v14a7,7,0,0,1-7,7h-5a7,7,0,0,1-7-7v-14A7,7,0,0,1,1269,141.59Z"/><path class="cls-6" d="M1269,142.09h5a6.52,6.52,0,0,1,6.51,6.52v14a6.52,6.52,0,0,1-6.51,6.52h-5a6.51,6.51,0,0,1-6.5-6.52v-14A6.51,6.51,0,0,1,1269,142.09Z"/></g><g id="Rectangle_490-34" data-name="Rectangle 490-34"><path class="cls-3" d="M1308,141.59h5a7,7,0,0,1,7,7v14a7,7,0,0,1-7,7h-5a7,7,0,0,1-7-7v-14A7,7,0,0,1,1308,141.59Z"/><path class="cls-6" d="M1308,142.09h5a6.51,6.51,0,0,1,6.5,6.52v14a6.51,6.51,0,0,1-6.5,6.52h-5a6.51,6.51,0,0,1-6.5-6.52v-14A6.51,6.51,0,0,1,1308,142.09Z"/></g><g id="Rectangle_490-35" data-name="Rectangle 490-35"><path class="cls-3" d="M1347,141.59h5a7,7,0,0,1,7,7v14a7,7,0,0,1-7,7h-5a7,7,0,0,1-7-7v-14A7,7,0,0,1,1347,141.59Z"/><path class="cls-6" d="M1347,142.09h5a6.51,6.51,0,0,1,6.5,6.52v14a6.51,6.51,0,0,1-6.5,6.52h-5a6.51,6.51,0,0,1-6.5-6.52v-14A6.51,6.51,0,0,1,1347,142.09Z"/></g></g></g><g class="cls-7"><g id="Repeat_Grid_3" data-name="Repeat Grid 3"><g id="Rectangle_490-36" data-name="Rectangle 490-36"><path class="cls-3" d="M20.27,337.52h5a7,7,0,0,1,7,7v14a7,7,0,0,1-7,7h-5a7,7,0,0,1-7-7v-14A7,7,0,0,1,20.27,337.52Z"/><path class="cls-6" d="M20.27,338h5a6.51,6.51,0,0,1,6.5,6.52v14a6.51,6.51,0,0,1-6.5,6.53h-5a6.51,6.51,0,0,1-6.5-6.53v-14A6.51,6.51,0,0,1,20.27,338Z"/></g><g id="Rectangle_490-37" data-name="Rectangle 490-37"><path class="cls-3" d="M59.3,337.52h5a7,7,0,0,1,7,7v14a7,7,0,0,1-7,7h-5a7,7,0,0,1-7-7v-14A7,7,0,0,1,59.3,337.52Z"/><path class="cls-6" d="M59.3,338h5a6.51,6.51,0,0,1,6.5,6.52v14a6.51,6.51,0,0,1-6.5,6.53h-5a6.51,6.51,0,0,1-6.51-6.53v-14A6.51,6.51,0,0,1,59.3,338Z"/></g><g id="Rectangle_490-38" data-name="Rectangle 490-38"><path class="cls-3" d="M98.32,337.52h5a7,7,0,0,1,7,7v14a7,7,0,0,1-7,7h-5a7,7,0,0,1-7-7v-14A7,7,0,0,1,98.32,337.52Z"/><path class="cls-6" d="M98.32,338h5a6.51,6.51,0,0,1,6.5,6.52v14a6.51,6.51,0,0,1-6.5,6.53h-5a6.52,6.52,0,0,1-6.51-6.53v-14A6.52,6.52,0,0,1,98.32,338Z"/></g><g id="Rectangle_490-39" data-name="Rectangle 490-39"><path class="cls-3" d="M137.34,337.52h5a7,7,0,0,1,7,7v14a7,7,0,0,1-7,7h-5a7,7,0,0,1-7-7v-14A7,7,0,0,1,137.34,337.52Z"/><path class="cls-6" d="M137.34,338h5a6.51,6.51,0,0,1,6.51,6.52v14a6.51,6.51,0,0,1-6.51,6.53h-5a6.51,6.51,0,0,1-6.5-6.53v-14A6.51,6.51,0,0,1,137.34,338Z"/></g><g id="Rectangle_490-40" data-name="Rectangle 490-40"><path class="cls-3" d="M176.36,337.52h5a7,7,0,0,1,7,7v14a7,7,0,0,1-7,7h-5a7,7,0,0,1-7-7v-14A7,7,0,0,1,176.36,337.52Z"/><path class="cls-6" d="M176.36,338h5a6.51,6.51,0,0,1,6.5,6.52v14a6.51,6.51,0,0,1-6.5,6.53h-5a6.51,6.51,0,0,1-6.5-6.53v-14A6.51,6.51,0,0,1,176.36,338Z"/></g><g id="Rectangle_490-41" data-name="Rectangle 490-41"><path class="cls-3" d="M215.39,337.52h5a7,7,0,0,1,7,7v14a7,7,0,0,1-7,7h-5a7,7,0,0,1-7-7v-14A7,7,0,0,1,215.39,337.52Z"/><path class="cls-6" d="M215.39,338h5a6.51,6.51,0,0,1,6.5,6.52v14a6.51,6.51,0,0,1-6.5,6.53h-5a6.51,6.51,0,0,1-6.51-6.53v-14A6.51,6.51,0,0,1,215.39,338Z"/></g><g id="Rectangle_490-42" data-name="Rectangle 490-42"><path class="cls-3" d="M254.41,337.52h5a7,7,0,0,1,7,7v14a7,7,0,0,1-7,7h-5a7,7,0,0,1-7-7v-14A7,7,0,0,1,254.41,337.52Z"/><path class="cls-6" d="M254.41,338h5a6.52,6.52,0,0,1,6.51,6.52v14a6.52,6.52,0,0,1-6.51,6.53h-5a6.51,6.51,0,0,1-6.5-6.53v-14A6.51,6.51,0,0,1,254.41,338Z"/></g><g id="Rectangle_490-43" data-name="Rectangle 490-43"><path class="cls-3" d="M293.43,337.52h5a7,7,0,0,1,7,7v14a7,7,0,0,1-7,7h-5a7,7,0,0,1-7-7v-14A7,7,0,0,1,293.43,337.52Z"/><path class="cls-6" d="M293.43,338h5a6.51,6.51,0,0,1,6.51,6.52v14a6.51,6.51,0,0,1-6.51,6.53h-5a6.51,6.51,0,0,1-6.5-6.53v-14A6.51,6.51,0,0,1,293.43,338Z"/></g><g id="Rectangle_490-44" data-name="Rectangle 490-44"><path class="cls-3" d="M332.45,337.52h5a7,7,0,0,1,7,7v14a7,7,0,0,1-7,7h-5a7,7,0,0,1-7-7v-14A7,7,0,0,1,332.45,337.52Z"/><path class="cls-6" d="M332.45,338h5a6.51,6.51,0,0,1,6.5,6.52v14a6.51,6.51,0,0,1-6.5,6.53h-5a6.51,6.51,0,0,1-6.5-6.53v-14A6.51,6.51,0,0,1,332.45,338Z"/></g><g id="Rectangle_490-45" data-name="Rectangle 490-45"><path class="cls-3" d="M371.48,337.52h5a7,7,0,0,1,7,7v14a7,7,0,0,1-7,7h-5a7,7,0,0,1-7-7v-14A7,7,0,0,1,371.48,337.52Z"/><path class="cls-6" d="M371.48,338h5a6.51,6.51,0,0,1,6.5,6.52v14a6.51,6.51,0,0,1-6.5,6.53h-5a6.52,6.52,0,0,1-6.51-6.53v-14A6.52,6.52,0,0,1,371.48,338Z"/></g><g id="Rectangle_490-46" data-name="Rectangle 490-46"><path class="cls-3" d="M410.5,337.52h5a7,7,0,0,1,7,7v14a7,7,0,0,1-7,7h-5a7,7,0,0,1-7-7v-14A7,7,0,0,1,410.5,337.52Z"/><path class="cls-6" d="M410.5,338h5a6.52,6.52,0,0,1,6.51,6.52v14a6.52,6.52,0,0,1-6.51,6.53h-5a6.51,6.51,0,0,1-6.5-6.53v-14A6.51,6.51,0,0,1,410.5,338Z"/></g><g id="Rectangle_490-47" data-name="Rectangle 490-47"><path class="cls-3" d="M449.52,337.52h5a7,7,0,0,1,7,7v14a7,7,0,0,1-7,7h-5a7,7,0,0,1-7-7v-14A7,7,0,0,1,449.52,337.52Z"/><path class="cls-6" d="M449.52,338h5a6.51,6.51,0,0,1,6.5,6.52v14a6.51,6.51,0,0,1-6.5,6.53h-5a6.51,6.51,0,0,1-6.5-6.53v-14A6.51,6.51,0,0,1,449.52,338Z"/></g><g id="Rectangle_490-48" data-name="Rectangle 490-48"><path class="cls-3" d="M488.55,337.52h5a7,7,0,0,1,7,7v14a7,7,0,0,1-7,7h-5a7,7,0,0,1-7-7v-14A7,7,0,0,1,488.55,337.52Z"/><rect class="cls-6" x="482.04" y="338.03" width="18.01" height="27.09" rx="6.5"/></g><g id="Rectangle_490-49" data-name="Rectangle 490-49"><path class="cls-3" d="M527.57,337.52h5a7,7,0,0,1,7,7v14a7,7,0,0,1-7,7h-5a7,7,0,0,1-7-7v-14A7,7,0,0,1,527.57,337.52Z"/><path class="cls-6" d="M527.57,338h5a6.51,6.51,0,0,1,6.5,6.52v14a6.51,6.51,0,0,1-6.5,6.53h-5a6.52,6.52,0,0,1-6.51-6.53v-14A6.52,6.52,0,0,1,527.57,338Z"/></g><g id="Rectangle_490-50" data-name="Rectangle 490-50"><path class="cls-3" d="M566.59,337.52h5a7,7,0,0,1,7,7v14a7,7,0,0,1-7,7h-5a7,7,0,0,1-7-7v-14A7,7,0,0,1,566.59,337.52Z"/><path class="cls-6" d="M566.59,338h5a6.51,6.51,0,0,1,6.51,6.52v14a6.51,6.51,0,0,1-6.51,6.53h-5a6.51,6.51,0,0,1-6.5-6.53v-14A6.51,6.51,0,0,1,566.59,338Z"/></g><g id="Rectangle_490-51" data-name="Rectangle 490-51"><path class="cls-3" d="M605.61,337.52h5a7,7,0,0,1,7,7v14a7,7,0,0,1-7,7h-5a7,7,0,0,1-7-7v-14A7,7,0,0,1,605.61,337.52Z"/><path class="cls-6" d="M605.61,338h5a6.51,6.51,0,0,1,6.5,6.52v14a6.51,6.51,0,0,1-6.5,6.53h-5a6.51,6.51,0,0,1-6.5-6.53v-14A6.51,6.51,0,0,1,605.61,338Z"/></g><g id="Rectangle_490-52" data-name="Rectangle 490-52"><path class="cls-3" d="M644.64,337.52h5a7,7,0,0,1,7,7v14a7,7,0,0,1-7,7h-5a7,7,0,0,1-7-7v-14A7,7,0,0,1,644.64,337.52Z"/><path class="cls-6" d="M644.64,338h5a6.51,6.51,0,0,1,6.5,6.52v14a6.51,6.51,0,0,1-6.5,6.53h-5a6.51,6.51,0,0,1-6.51-6.53v-14A6.51,6.51,0,0,1,644.64,338Z"/></g><g id="Rectangle_490-53" data-name="Rectangle 490-53"><path class="cls-3" d="M683.66,337.52h5a7,7,0,0,1,7,7v14a7,7,0,0,1-7,7h-5a7,7,0,0,1-7-7v-14A7,7,0,0,1,683.66,337.52Z"/><path class="cls-6" d="M683.66,338h5a6.52,6.52,0,0,1,6.51,6.52v14a6.52,6.52,0,0,1-6.51,6.53h-5a6.51,6.51,0,0,1-6.5-6.53v-14A6.51,6.51,0,0,1,683.66,338Z"/></g><g id="Rectangle_490-54" data-name="Rectangle 490-54"><path class="cls-3" d="M722.68,337.52h5a7,7,0,0,1,7,7v14a7,7,0,0,1-7,7h-5a7,7,0,0,1-7-7v-14A7,7,0,0,1,722.68,337.52Z"/><path class="cls-6" d="M722.68,338h5a6.51,6.51,0,0,1,6.51,6.52v14a6.51,6.51,0,0,1-6.51,6.53h-5a6.51,6.51,0,0,1-6.5-6.53v-14A6.51,6.51,0,0,1,722.68,338Z"/></g><g id="Rectangle_490-55" data-name="Rectangle 490-55"><path class="cls-3" d="M761.7,337.52h5a7,7,0,0,1,7,7v14a7,7,0,0,1-7,7h-5a7,7,0,0,1-7-7v-14A7,7,0,0,1,761.7,337.52Z"/><path class="cls-6" d="M761.7,338h5a6.51,6.51,0,0,1,6.5,6.52v14a6.51,6.51,0,0,1-6.5,6.53h-5a6.51,6.51,0,0,1-6.5-6.53v-14A6.51,6.51,0,0,1,761.7,338Z"/></g><g id="Rectangle_490-56" data-name="Rectangle 490-56"><path class="cls-3" d="M800.73,337.52h5a7,7,0,0,1,7,7v14a7,7,0,0,1-7,7h-5a7,7,0,0,1-7-7v-14A7,7,0,0,1,800.73,337.52Z"/><path class="cls-6" d="M800.73,338h5a6.51,6.51,0,0,1,6.5,6.52v14a6.51,6.51,0,0,1-6.5,6.53h-5a6.52,6.52,0,0,1-6.51-6.53v-14A6.52,6.52,0,0,1,800.73,338Z"/></g><g id="Rectangle_490-57" data-name="Rectangle 490-57"><path class="cls-3" d="M839.75,337.52h5a7,7,0,0,1,7,7v14a7,7,0,0,1-7,7h-5a7,7,0,0,1-7-7v-14A7,7,0,0,1,839.75,337.52Z"/><path class="cls-6" d="M839.75,338h5a6.52,6.52,0,0,1,6.51,6.52v14a6.52,6.52,0,0,1-6.51,6.53h-5a6.51,6.51,0,0,1-6.5-6.53v-14A6.51,6.51,0,0,1,839.75,338Z"/></g><g id="Rectangle_490-58" data-name="Rectangle 490-58"><path class="cls-3" d="M878.77,337.52h5a7,7,0,0,1,7,7v14a7,7,0,0,1-7,7h-5a7,7,0,0,1-7-7v-14A7,7,0,0,1,878.77,337.52Z"/><path class="cls-6" d="M878.77,338h5a6.51,6.51,0,0,1,6.5,6.52v14a6.51,6.51,0,0,1-6.5,6.53h-5a6.51,6.51,0,0,1-6.5-6.53v-14A6.51,6.51,0,0,1,878.77,338Z"/></g><g id="Rectangle_490-59" data-name="Rectangle 490-59"><path class="cls-3" d="M917.8,337.52h5a7,7,0,0,1,7,7v14a7,7,0,0,1-7,7h-5a7,7,0,0,1-7-7v-14A7,7,0,0,1,917.8,337.52Z"/><path class="cls-6" d="M917.8,338h5a6.51,6.51,0,0,1,6.5,6.52v14a6.51,6.51,0,0,1-6.5,6.53h-5a6.51,6.51,0,0,1-6.51-6.53v-14A6.51,6.51,0,0,1,917.8,338Z"/></g><g id="Rectangle_490-60" data-name="Rectangle 490-60"><path class="cls-3" d="M956.82,337.52h5a7,7,0,0,1,7,7v14a7,7,0,0,1-7,7h-5a7,7,0,0,1-7-7v-14A7,7,0,0,1,956.82,337.52Z"/><rect class="cls-6" x="950.31" y="338.03" width="18.01" height="27.09" rx="6.52"/></g><g id="Rectangle_490-61" data-name="Rectangle 490-61"><path class="cls-3" d="M995.84,337.52h5a7,7,0,0,1,7,7v14a7,7,0,0,1-7,7h-5a7,7,0,0,1-7-7v-14A7,7,0,0,1,995.84,337.52Z"/><path class="cls-6" d="M995.84,338h5a6.51,6.51,0,0,1,6.51,6.52v14a6.51,6.51,0,0,1-6.51,6.53h-5a6.51,6.51,0,0,1-6.5-6.53v-14A6.51,6.51,0,0,1,995.84,338Z"/></g><g id="Rectangle_490-62" data-name="Rectangle 490-62"><path class="cls-3" d="M1034.86,337.52h5a7,7,0,0,1,7,7v14a7,7,0,0,1-7,7h-5a7,7,0,0,1-7-7v-14A7,7,0,0,1,1034.86,337.52Z"/><path class="cls-6" d="M1034.86,338h5a6.51,6.51,0,0,1,6.5,6.52v14a6.51,6.51,0,0,1-6.5,6.53h-5a6.51,6.51,0,0,1-6.5-6.53v-14A6.51,6.51,0,0,1,1034.86,338Z"/></g><g id="Rectangle_490-63" data-name="Rectangle 490-63"><path class="cls-3" d="M1073.89,337.52h5a7,7,0,0,1,7,7v14a7,7,0,0,1-7,7h-5a7,7,0,0,1-7-7v-14A7,7,0,0,1,1073.89,337.52Z"/><path class="cls-6" d="M1073.89,338h5a6.51,6.51,0,0,1,6.5,6.52v14a6.51,6.51,0,0,1-6.5,6.53h-5a6.51,6.51,0,0,1-6.51-6.53v-14A6.51,6.51,0,0,1,1073.89,338Z"/></g><g id="Rectangle_490-64" data-name="Rectangle 490-64"><path class="cls-3" d="M1112.91,337.52h5a7,7,0,0,1,7,7v14a7,7,0,0,1-7,7h-5a7,7,0,0,1-7-7v-14A7,7,0,0,1,1112.91,337.52Z"/><path class="cls-6" d="M1112.91,338h5a6.52,6.52,0,0,1,6.51,6.52v14a6.52,6.52,0,0,1-6.51,6.53h-5a6.52,6.52,0,0,1-6.51-6.53v-14A6.52,6.52,0,0,1,1112.91,338Z"/></g><g id="Rectangle_490-65" data-name="Rectangle 490-65"><path class="cls-3" d="M1151.93,337.52h5a7,7,0,0,1,7,7v14a7,7,0,0,1-7,7h-5a7,7,0,0,1-7-7v-14A7,7,0,0,1,1151.93,337.52Z"/><path class="cls-6" d="M1151.93,338h5a6.51,6.51,0,0,1,6.51,6.52v14a6.51,6.51,0,0,1-6.51,6.53h-5a6.51,6.51,0,0,1-6.5-6.53v-14A6.51,6.51,0,0,1,1151.93,338Z"/></g><g id="Rectangle_490-66" data-name="Rectangle 490-66"><path class="cls-3" d="M1191,337.52h5a7,7,0,0,1,7,7v14a7,7,0,0,1-7,7h-5a7,7,0,0,1-7-7v-14A7,7,0,0,1,1191,337.52Z"/><path class="cls-6" d="M1191,338h5a6.51,6.51,0,0,1,6.5,6.52v14a6.51,6.51,0,0,1-6.5,6.53h-5a6.51,6.51,0,0,1-6.5-6.53v-14A6.51,6.51,0,0,1,1191,338Z"/></g><g id="Rectangle_490-67" data-name="Rectangle 490-67"><path class="cls-3" d="M1230,337.52h5a7,7,0,0,1,7,7v14a7,7,0,0,1-7,7h-5a7,7,0,0,1-7-7v-14A7,7,0,0,1,1230,337.52Z"/><path class="cls-6" d="M1230,338h5a6.51,6.51,0,0,1,6.5,6.52v14a6.51,6.51,0,0,1-6.5,6.53h-5a6.51,6.51,0,0,1-6.51-6.53v-14A6.51,6.51,0,0,1,1230,338Z"/></g><g id="Rectangle_490-68" data-name="Rectangle 490-68"><path class="cls-3" d="M1269,337.52h5a7,7,0,0,1,7,7v14a7,7,0,0,1-7,7h-5a7,7,0,0,1-7-7v-14A7,7,0,0,1,1269,337.52Z"/><path class="cls-6" d="M1269,338h5a6.52,6.52,0,0,1,6.51,6.52v14a6.52,6.52,0,0,1-6.51,6.53h-5a6.51,6.51,0,0,1-6.5-6.53v-14A6.51,6.51,0,0,1,1269,338Z"/></g><g id="Rectangle_490-69" data-name="Rectangle 490-69"><path class="cls-3" d="M1308,337.52h5a7,7,0,0,1,7,7v14a7,7,0,0,1-7,7h-5a7,7,0,0,1-7-7v-14A7,7,0,0,1,1308,337.52Z"/><path class="cls-6" d="M1308,338h5a6.51,6.51,0,0,1,6.5,6.52v14a6.51,6.51,0,0,1-6.5,6.53h-5a6.51,6.51,0,0,1-6.5-6.53v-14A6.51,6.51,0,0,1,1308,338Z"/></g><g id="Rectangle_490-70" data-name="Rectangle 490-70"><path class="cls-3" d="M1347,337.52h5a7,7,0,0,1,7,7v14a7,7,0,0,1-7,7h-5a7,7,0,0,1-7-7v-14A7,7,0,0,1,1347,337.52Z"/><path class="cls-6" d="M1347,338h5a6.51,6.51,0,0,1,6.5,6.52v14a6.51,6.51,0,0,1-6.5,6.53h-5a6.51,6.51,0,0,1-6.5-6.53v-14A6.51,6.51,0,0,1,1347,338Z"/></g></g></g><g id="Rectangle_504" data-name="Rectangle 504"><path class="cls-3" d="M16,385.18H180.1a5,5,0,0,1,5,5h0a5,5,0,0,1-5,5H16a5,5,0,0,1-5-5h0A5,5,0,0,1,16,385.18Z"/><path class="cls-6" d="M16,385.68H180.1a4.51,4.51,0,0,1,4.51,4.52h0a4.51,4.51,0,0,1-4.51,4.51H16a4.5,4.5,0,0,1-4.5-4.51h0A4.5,4.5,0,0,1,16,385.68Z"/></g><g id="Rectangle_505" data-name="Rectangle 505"><path class="cls-3" d="M218.13,385.18H382.22a5,5,0,0,1,5,5h0a5,5,0,0,1-5,5H218.13a5,5,0,0,1-5-5h0A5,5,0,0,1,218.13,385.18Z"/><path class="cls-6" d="M218.13,385.68H382.22a4.5,4.5,0,0,1,4.5,4.52h0a4.5,4.5,0,0,1-4.5,4.51H218.13a4.51,4.51,0,0,1-4.51-4.51h0A4.51,4.51,0,0,1,218.13,385.68Z"/></g><g id="Rectangle_506" data-name="Rectangle 506"><path class="cls-3" d="M418.24,385.18h164.1a5,5,0,0,1,5,5h0a5,5,0,0,1-5,5H418.24a5,5,0,0,1-5-5h0A5,5,0,0,1,418.24,385.18Z"/><path class="cls-6" d="M418.24,385.68h164.1a4.51,4.51,0,0,1,4.5,4.52h0a4.51,4.51,0,0,1-4.5,4.51H418.24a4.51,4.51,0,0,1-4.5-4.51h0A4.51,4.51,0,0,1,418.24,385.68Z"/></g><g id="Rectangle_507" data-name="Rectangle 507"><path class="cls-3" d="M612.36,385.18H776.45a5,5,0,0,1,5,5h0a5,5,0,0,1-5,5H612.36a5,5,0,0,1-5-5h0A5,5,0,0,1,612.36,385.18Z"/><path class="cls-6" d="M612.36,385.68H776.45a4.5,4.5,0,0,1,4.5,4.52h0a4.5,4.5,0,0,1-4.5,4.51H612.36a4.51,4.51,0,0,1-4.51-4.51h0A4.51,4.51,0,0,1,612.36,385.68Z"/></g><g id="Rectangle_508" data-name="Rectangle 508"><path class="cls-3" d="M1009.09,384.18h163.09a5.51,5.51,0,0,1,5.5,5.51h0a5.51,5.51,0,0,1-5.5,5.52H1009.09a5.52,5.52,0,0,1-5.51-5.52h0A5.51,5.51,0,0,1,1009.09,384.18Z"/><path class="cls-6" d="M1009.09,384.68h163.09a5,5,0,0,1,5,5h0a5,5,0,0,1-5,5H1009.09a5,5,0,0,1-5-5h0A5,5,0,0,1,1009.09,384.68Z"/></g><g id="Rectangle_510" data-name="Rectangle 510"><path class="cls-3" d="M806.47,385.18H970.56a5,5,0,0,1,5,5h0a5,5,0,0,1-5,5H806.47a5,5,0,0,1-5-5h0A5,5,0,0,1,806.47,385.18Z"/><path class="cls-6" d="M806.47,385.68H970.56a4.51,4.51,0,0,1,4.51,4.52h0a4.51,4.51,0,0,1-4.51,4.51H806.47a4.5,4.5,0,0,1-4.5-4.51h0A4.5,4.5,0,0,1,806.47,385.68Z"/></g><g id="Rectangle_509" data-name="Rectangle 509"><path class="cls-3" d="M1202.7,385.18h164.09a5,5,0,0,1,5,5h0a5,5,0,0,1-5,5H1202.7a5,5,0,0,1-5-5h0A5,5,0,0,1,1202.7,385.18Z"/><path class="cls-6" d="M1202.7,385.68h164.09a4.51,4.51,0,0,1,4.51,4.52h0a4.51,4.51,0,0,1-4.51,4.51H1202.7a4.5,4.5,0,0,1-4.5-4.51h0A4.5,4.5,0,0,1,1202.7,385.68Z"/></g><g id="Rectangle_511" data-name="Rectangle 511"><path class="cls-3" d="M21.51,112.27h163.1a5.51,5.51,0,0,1,5.5,5.52h0a5.51,5.51,0,0,1-5.5,5.51H21.51a5.51,5.51,0,0,1-5.5-5.51h0A5.51,5.51,0,0,1,21.51,112.27Z"/><path class="cls-6" d="M21.51,112.77h163.1a5,5,0,0,1,5,5h0a5,5,0,0,1-5,5H21.51a5,5,0,0,1-5-5h0A5,5,0,0,1,21.51,112.77Z"/></g><g id="Rectangle_512" data-name="Rectangle 512"><path class="cls-3" d="M223.63,112.27H386.72a5.52,5.52,0,0,1,5.51,5.52h0a5.51,5.51,0,0,1-5.51,5.51H223.63a5.51,5.51,0,0,1-5.5-5.51h0A5.51,5.51,0,0,1,223.63,112.27Z"/><path class="cls-6" d="M223.63,112.77H386.72a5,5,0,0,1,5,5h0a5,5,0,0,1-5,5H223.63a5,5,0,0,1-5-5h0A5,5,0,0,1,223.63,112.77Z"/></g><g id="Rectangle_513" data-name="Rectangle 513"><path class="cls-3" d="M423.75,112.27H586.84a5.51,5.51,0,0,1,5.5,5.52h0a5.51,5.51,0,0,1-5.5,5.51H423.75a5.51,5.51,0,0,1-5.51-5.51h0A5.52,5.52,0,0,1,423.75,112.27Z"/><path class="cls-6" d="M423.75,112.77H586.84a5,5,0,0,1,5,5h0a5,5,0,0,1-5,5H423.75a5,5,0,0,1-5-5h0A5,5,0,0,1,423.75,112.77Z"/></g><g id="Rectangle_514" data-name="Rectangle 514"><path class="cls-3" d="M617.86,112.27H781a5.52,5.52,0,0,1,5.51,5.52h0A5.51,5.51,0,0,1,781,123.3H617.86a5.51,5.51,0,0,1-5.5-5.51h0A5.51,5.51,0,0,1,617.86,112.27Z"/><path class="cls-6" d="M617.86,112.77H781a5,5,0,0,1,5,5h0a5,5,0,0,1-5,5H617.86a5,5,0,0,1-5-5h0A5,5,0,0,1,617.86,112.77Z"/></g><g id="Rectangle_515" data-name="Rectangle 515"><path class="cls-3" d="M1014.09,111.26h163.09a5.52,5.52,0,0,1,5.51,5.52h0a5.52,5.52,0,0,1-5.51,5.52H1014.09a5.51,5.51,0,0,1-5.5-5.52h0A5.51,5.51,0,0,1,1014.09,111.26Z"/><path class="cls-6" d="M1014.09,111.77h163.09a5,5,0,0,1,5,5h0a5,5,0,0,1-5,5H1014.09a5,5,0,0,1-5-5h0A5,5,0,0,1,1014.09,111.77Z"/></g><g id="Rectangle_516" data-name="Rectangle 516"><path class="cls-3" d="M812,112.27h163.1a5.51,5.51,0,0,1,5.5,5.52h0a5.51,5.51,0,0,1-5.5,5.51H812a5.51,5.51,0,0,1-5.5-5.51h0A5.51,5.51,0,0,1,812,112.27Z"/><path class="cls-6" d="M812,112.77h163.1a5,5,0,0,1,5,5h0a5,5,0,0,1-5,5H812a5,5,0,0,1-5-5h0A5,5,0,0,1,812,112.77Z"/></g><g id="Rectangle_517" data-name="Rectangle 517"><path class="cls-3" d="M1208.2,112.27h163.1a5.51,5.51,0,0,1,5.5,5.52h0a5.51,5.51,0,0,1-5.5,5.51H1208.2a5.51,5.51,0,0,1-5.5-5.51h0A5.51,5.51,0,0,1,1208.2,112.27Z"/><path class="cls-6" d="M1208.2,112.77h163.1a5,5,0,0,1,5,5h0a5,5,0,0,1-5,5H1208.2a5,5,0,0,1-5-5h0A5,5,0,0,1,1208.2,112.77Z"/></g><path id="Path_1056" data-name="Path 1056" class="cls-8" d="M209.24,5.08V109.3l973.33,2V5.08Z"/><path class="cls-9" d="M538.19,57.45a10.07,10.07,0,0,1,2.89,3,7,7,0,0,1,.95,3.56,8.29,8.29,0,0,1-2.39,5.69q-2.92,3.23-8.81,3.49c-2.16.11-5.21.16-9.13.16H508.41l0-1.26.05-5.21.08-10.26-.11-11.17,0-8.76H522.8q5.4,0,7.43.18a19.65,19.65,0,0,1,4.17.84,15.38,15.38,0,0,1,4.27,2.13A11.53,11.53,0,0,1,541.76,43a10.3,10.3,0,0,1,1.72,5.82A9.85,9.85,0,0,1,542.06,54,8.54,8.54,0,0,1,538.19,57.45Zm-2.17.7a10.63,10.63,0,0,1-2.15.24,7.2,7.2,0,0,1-3.43-.7,2.07,2.07,0,0,1-1.3-1.83c0-.41.14-.61.43-.61a2.25,2.25,0,0,1,.89.27,8.85,8.85,0,0,0,4,.94,6.65,6.65,0,0,0,6-3.12,8,8,0,0,0,1.29-4.49,8.64,8.64,0,0,0-3-6.57,12.62,12.62,0,0,0-5.07-2.88,26,26,0,0,0-7.37-.88h-1.48l-.16,16.11.16,17,2.42,0a33.2,33.2,0,0,0,6.23-.45,9.2,9.2,0,0,0,3.71-1.52A6.81,6.81,0,0,0,540.26,64a5.35,5.35,0,0,0-1.06-3.21A9.65,9.65,0,0,0,536,58.15Z"/><path class="cls-9" d="M558.52,59.6v8.32a9.3,9.3,0,0,0,.3,3.06c.37.83,1.26,1.24,2.66,1.24a12.48,12.48,0,0,0,6.16-1.71,16.61,16.61,0,0,0,5.28-4.71,8.6,8.6,0,0,1,1-1.26,1.08,1.08,0,0,1,.7-.27.92.92,0,0,1,.75.34,1.2,1.2,0,0,1,.3.84c0,.75-.6,1.77-1.8,3a18.14,18.14,0,0,1-5.87,4A17,17,0,0,1,561.21,74,15.38,15.38,0,0,1,546,58.79a15.7,15.7,0,0,1,1.07-5.6,14.89,14.89,0,0,1,3-4.84,15.24,15.24,0,0,1,11.28-5,14.93,14.93,0,0,1,9,2.93q6.29,4.56,6.23,13.24h-6.25l-8.06,0Zm6.88-1.78V50c0-1.68-.08-2.68-.11-3a1.85,1.85,0,0,0-.38-.92c-.5-.7-1.52-1-3.06-1s-2.56.4-3,1.2a10.9,10.9,0,0,0-.38,3.78v7.82l3.28.11Z"/><path class="cls-9" d="M580.25,68.43a2.32,2.32,0,0,1,1.37.81,10.83,10.83,0,0,0,3.81,2.18,13.6,13.6,0,0,0,4.62.91,2.71,2.71,0,0,0,1.49-.34,1.14,1.14,0,0,0,.5-1,2.74,2.74,0,0,0-.69-1.55q-.68-.92-3.05-3.46a92.43,92.43,0,0,1-7.48-8.69,8.66,8.66,0,0,1-1.7-4.82,7.05,7.05,0,0,1,1.17-3.85,9.9,9.9,0,0,1,3.26-3.13,14.79,14.79,0,0,1,8-2.15,19.71,19.71,0,0,1,7,1.4c1.92.73,2.88,1.53,2.88,2.39a1,1,0,0,1-.34.72,1.05,1.05,0,0,1-.77.32,4.55,4.55,0,0,1-1.9-1,10.45,10.45,0,0,0-6.21-2,3.42,3.42,0,0,0-1.78.37,1.29,1.29,0,0,0-.61,1.16A4.15,4.15,0,0,0,590.87,49a63,63,0,0,0,4.52,4.73Q598.72,57,599.62,58a17.88,17.88,0,0,1,1.74,2.33,9,9,0,0,1,1.42,4.88c0,2.76-1.34,5-4,6.69A14.57,14.57,0,0,1,590.72,74a18.65,18.65,0,0,1-9.43-2.36,9.72,9.72,0,0,1-1.65-1.18,1.44,1.44,0,0,1-.44-1Q579.2,68.46,580.25,68.43Z"/><path class="cls-9" d="M621.31,34.62,621,43.3l0,.83a42.09,42.09,0,0,0,4.24-.19l.56,0c.79,0,1.19.37,1.19,1.09s-.42,1-1.24,1a9.25,9.25,0,0,1-.94-.06c-1.41-.1-2.43-.16-3-.16H621L621,51l.09,10.43.07,5.58a8.57,8.57,0,0,0,.3,2.74,1,1,0,0,0,1,.78,3.09,3.09,0,0,0,2.08-1.13,8,8,0,0,0,1.7-2.77c.38-1,.83-1.55,1.35-1.55s.91.34.91,1a5.3,5.3,0,0,1-.91,2.53,10.94,10.94,0,0,1-2.21,2.65,12.05,12.05,0,0,1-8.21,2.77,9.41,9.41,0,0,1-7.36-2.88,7.7,7.7,0,0,1-1.85-3.23,18.35,18.35,0,0,1-.52-4.95V61l0-5.66V45.71l-.54,0c-.17,0-.53,0-1.07.05s-.82,0-1.13,0c-.88,0-1.31-.33-1.31-1s.42-1,1.26-1l.83,0,2,.14v-3A84.94,84.94,0,0,0,621.31,34.62Z"/><path class="cls-9" d="M644.14,44.07v.78L644.08,49l-.05,6.5L644,65.43l.11,5.55.05,2.42h-13.8l.13-9.88.08-8.73,0-4.59-.08-5.1,0-1Zm-7-9.39q7.1,0,7.09,3.7a3.09,3.09,0,0,1-1.87,2.81,11.21,11.21,0,0,1-5.25,1q-6.74,0-6.74-3.81C630.41,36,632.67,34.71,637.18,34.68Z"/><path class="cls-9" d="M664.22,36.74l0,1.37,0,9.46,0,4.08,0,7.44.1,13.26V73.4H650.5V72.14l.07-4.27,0-7.74L650.66,50l0-5.45-.09-6,0-1.83Z"/><path class="cls-9" d="M684.2,36.74H698l-.1,10.15a15.1,15.1,0,0,1,4.23-2.65,11.82,11.82,0,0,1,4.55-.89,13.72,13.72,0,0,1,9.48,3.84,14.49,14.49,0,0,1,4.75,11.25A15.54,15.54,0,0,1,716,70.23a12.85,12.85,0,0,1-9.1,3.76,11.21,11.21,0,0,1-4.7-.94,14.5,14.5,0,0,1-4.24-3.14V73.4H684.2V72.19l.09-13,0-9.29ZM697.85,49.1V67.41a35.26,35.26,0,0,0,2.84,2.77,6.49,6.49,0,0,0,3.9,1.74,1.49,1.49,0,0,0,1.56-1.15,13.86,13.86,0,0,0,.18-2.71V50l0-1.18a7.19,7.19,0,0,0-.36-2.78,1.41,1.41,0,0,0-1.39-.74,6.32,6.32,0,0,0-3,.94A21.31,21.31,0,0,0,697.85,49.1Z"/><path class="cls-9" d="M739.07,44.07v.78L739,49l-.06,6.5-.08,9.89L739,71l0,2.42h-13.8l.13-9.88.08-8.73-.05-4.59-.08-5.1,0-1Zm-7-9.39q7.1,0,7.09,3.7a3.1,3.1,0,0,1-1.86,2.81,11.26,11.26,0,0,1-5.25,1c-4.5,0-6.74-1.27-6.74-3.81S727.6,34.71,732.11,34.68Z"/><path class="cls-9" d="M759.16,36.74l0,1.37-.06,9.46,0,4.08-.05,7.44.11,13.26V73.4H745.44V72.14l.06-4.27,0-7.74L745.6,50l0-5.45-.08-6,0-1.83Z"/><path class="cls-9" d="M779.11,36.74l0,1.37-.06,9.46,0,4.08L779,59.09l.11,13.26V73.4H765.39V72.14l.06-4.27,0-7.74L765.55,50l0-5.45-.08-6,0-1.83Z"/><path class="cls-9" d="M796.06,59.6v8.32a9.71,9.71,0,0,0,.29,3.06c.38.83,1.27,1.24,2.66,1.24a12.51,12.51,0,0,0,6.17-1.71,16.47,16.47,0,0,0,5.27-4.71,8.45,8.45,0,0,1,1-1.26,1.06,1.06,0,0,1,.7-.27,1,1,0,0,1,.75.34,1.2,1.2,0,0,1,.3.84c0,.75-.6,1.77-1.8,3a18.25,18.25,0,0,1-5.87,4A17.06,17.06,0,0,1,798.74,74a15.13,15.13,0,0,1-14-9.4,15,15,0,0,1-1.2-5.8,15.49,15.49,0,0,1,1.07-5.6,15.23,15.23,0,0,1,23.23-6.91q6.28,4.56,6.23,13.24h-6.26l-8,0Zm6.87-1.78V50c0-1.68-.07-2.68-.1-3a2,2,0,0,0-.38-.92c-.5-.7-1.52-1-3.06-1s-2.56.4-3,1.2a11,11,0,0,0-.37,3.78v7.82l3.27.11Z"/><path class="cls-9" d="M832.34,34.62,832,43.3l0,.83a42.09,42.09,0,0,0,4.24-.19l.56,0c.79,0,1.19.37,1.19,1.09s-.42,1-1.24,1a9.25,9.25,0,0,1-.94-.06c-1.41-.1-2.43-.16-3-.16H832L832,51l.09,10.43.07,5.58a8.57,8.57,0,0,0,.3,2.74,1,1,0,0,0,1,.78,3.09,3.09,0,0,0,2.08-1.13,8,8,0,0,0,1.7-2.77c.38-1,.83-1.55,1.35-1.55s.91.34.91,1a5.19,5.19,0,0,1-.91,2.53,10.94,10.94,0,0,1-2.21,2.65,12.05,12.05,0,0,1-8.21,2.77,9.41,9.41,0,0,1-7.36-2.88A7.8,7.8,0,0,1,819,67.94a18.83,18.83,0,0,1-.51-4.95V61l0-5.66V45.71l-.54,0c-.17,0-.53,0-1.07.05s-.82,0-1.13,0c-.87,0-1.31-.33-1.31-1s.42-1,1.26-1l.83,0,2,.14v-3A84.94,84.94,0,0,0,832.34,34.62Z"/><path class="cls-9" d="M856.13,34.62l-.29,8.68,0,.83a42,42,0,0,0,4.24-.19l.57,0c.79,0,1.18.37,1.18,1.09s-.41,1-1.24,1a9.25,9.25,0,0,1-.94-.06c-1.41-.1-2.42-.16-3-.16h-.78l0,5.21.1,10.43L856,67a8.64,8.64,0,0,0,.29,2.74,1.05,1.05,0,0,0,1,.78,3.09,3.09,0,0,0,2.08-1.13,8.1,8.1,0,0,0,1.7-2.77c.37-1,.82-1.55,1.34-1.55s.91.34.91,1a5.19,5.19,0,0,1-.91,2.53,10.91,10.91,0,0,1-2.2,2.65A12.06,12.06,0,0,1,852,74.05a9.42,9.42,0,0,1-7.36-2.88,7.92,7.92,0,0,1-1.85-3.23,18.83,18.83,0,0,1-.51-4.95V61l0-5.66V45.71l-.54,0c-.18,0-.54,0-1.08.05s-.82,0-1.12,0c-.88,0-1.32-.33-1.32-1s.42-1,1.26-1l.84,0,2,.14v-3A84.81,84.81,0,0,0,856.13,34.62Z"/><path class="cls-9" d="M876.22,59.6v8.32a9.3,9.3,0,0,0,.3,3.06c.37.83,1.26,1.24,2.66,1.24a12.48,12.48,0,0,0,6.16-1.71,16.61,16.61,0,0,0,5.28-4.71,8.6,8.6,0,0,1,1-1.26,1.08,1.08,0,0,1,.7-.27.92.92,0,0,1,.75.34,1.2,1.2,0,0,1,.3.84c0,.75-.6,1.77-1.8,3a18.14,18.14,0,0,1-5.87,4A17,17,0,0,1,878.91,74a15.38,15.38,0,0,1-15.23-15.2,15.7,15.7,0,0,1,1.07-5.6,14.89,14.89,0,0,1,3-4.84,15.24,15.24,0,0,1,11.28-5,14.93,14.93,0,0,1,9,2.93q6.28,4.56,6.23,13.24H888l-8.06,0Zm6.88-1.78V50c0-1.68-.08-2.68-.11-3a1.85,1.85,0,0,0-.38-.92c-.5-.7-1.52-1-3.06-1s-2.56.4-2.95,1.2a10.9,10.9,0,0,0-.38,3.78v7.82l3.28.11Z"/><path class="cls-9" d="M912.18,52.4l0,10.31.1,10.69h-13.8l0-1.48,0-5.47.09-9.86-.13-11,0-1.56h13.78v5.54a36.45,36.45,0,0,1,4.29-4.14,9.2,9.2,0,0,1,5.25-2,4.42,4.42,0,0,1,2.48.65,1.91,1.91,0,0,1,1,1.63,1.64,1.64,0,0,1-.59,1.29,2.2,2.2,0,0,1-1.48.51,3,3,0,0,1-1.26-.32,4.69,4.69,0,0,0-2-.56A6.28,6.28,0,0,0,916.2,48,20.14,20.14,0,0,0,912.18,52.4Z"/></g></svg>