<svg id="Layer_1_Image" data-name="Layer 1 Image" xmlns="http://www.w3.org/2000/svg" width="320" height="360" viewBox="0 0 320 360"><path d="M317.77,344c-1.89-.32-3.46.63-4.72,1.26-2.84,1.89-4.73,1.89-7.88-.32a39.72,39.72,0,0,0-6.29-3.15c-1.89-.94-4.73-1.89-5.67-3.46-2.21-2.83-3.15-6.61-4.73-9.76-.63-1.26.32-2.21,1.89-2.52.95-.32,1.58-.32,2.52-.63s1.26-.95.95-1.58-.32-.94-.63-1.57a97,97,0,0,1-6.3-9.45c-3.46-6-6.93-12-10.08-18.26-1.89-3.78-3.46-7.24-5.35-11-2.52-5.67-5.35-11.65-7.87-17.64a26.42,26.42,0,0,1-2.21-11,5.21,5.21,0,0,0-1.57-4.09c-.63-.63-1.26-1.58-1.89-2.21-3.15-5.35-6.3-11-9.13-16.37a102.55,102.55,0,0,1-5.36-10.08c-1.57-3.15-2.52-6.61-4.09-9.76-3.46-7.24-5.67-14.8-8.19-22.36a2.39,2.39,0,0,1,1-2.83c1.57-1,3.46-1.89,5-2.84a43.21,43.21,0,0,0,5-3.14c3.47-2.52,6.93-5.36,10.4-8.19a33.79,33.79,0,0,0,6-5.35c2.2-2.52,4.09-5.36,6-7.88a2.37,2.37,0,0,1,3.78-.31,37.09,37.09,0,0,1,3.46,3.78c2.52,3.46,6,5.35,8.82,8.18,2.21,1.89,3.78,1.58,5.67-.31.31-.32.31-.63.63-1,.63-.31.94-.63,1.57-.63a4.89,4.89,0,0,1,4.1,7.25c-.32.63-.63.94-.63,1.57a8.78,8.78,0,0,0,.31,5.67c.95,2.2,1.26,4.09-.63,6-.31.32-.31,1.26-.31,1.89h1.89l.31-.31c2.52-1.89,3.47-1.58,3.78,1.57a54.9,54.9,0,0,1,.32,7.24,2.7,2.7,0,0,0,2.2,2.52c.95,0,1.57-.94,1.57-2.52a24.74,24.74,0,0,0-.62-4.72,46.45,46.45,0,0,1-.63-6.3c0-4.41.63-8.5.63-12.91,0-3.15-.63-6.3-3.47-8.18a28.27,28.27,0,0,0-4.09-2.52,2.41,2.41,0,0,1-1.58-2.84,5.38,5.38,0,0,0-1.89-4.72c-2.52-2.52-5-4.73-7.55-7.24s-5-5.36-7.56-7.88c-.95-.94-1.89-1.89-1.58-3.46.32-.95.63-2.2.95-3.15.31-3.46.94-6.93,1.26-10.39a45.66,45.66,0,0,0-.32-6.61c-.31-2.84-.31-5.67-1.26-8.51-1.57-4.72-2.52-9.76-5-14.17-3.78-6.92-8.19-12.91-14.49-17.63-.94-.63-2.2-1.58-1.57-3.15a19,19,0,0,1,2.51-5,4,4,0,0,0,1.26-3.15,9.57,9.57,0,0,1,6.3-9.44,6.29,6.29,0,0,0,3.15-2.52,26.7,26.7,0,0,1,2.52-3.78,1.51,1.51,0,0,1,1.89-.63c.63,0,.94.94,1.26,1.57.31,1.89.63,3.78-.32,5.36a3.78,3.78,0,0,0,.95,4.4,2.09,2.09,0,0,0,1.89.32c.31,0,.94-1,.94-1.26a29.73,29.73,0,0,1,3.15-8.82c2.21-3.15,2.84-6.61.32-10.07a1.53,1.53,0,0,1,.63-2.52A12.53,12.53,0,0,0,282.19,38c1.26-1.58.31-3.15-1.89-3.15h-1.58a4.24,4.24,0,0,1-4.41-2.21l-1.89-2.83a3.76,3.76,0,0,1-1.26-3.46,2,2,0,0,0-1.57-2.21,4.53,4.53,0,0,1-3.46-2.83c-.95-1.89-2.21-4.1-3.15-6,0-.32-.32-.63-.63-.95-1.58-1.26-1.58-2.2-.63-3.78a27.37,27.37,0,0,0,2.2-5.35A2,2,0,0,0,263,2.36c-1-.63-2.52,0-3.15,1.26s-.95,2.84-1.58,4.1c-.94,3.15-2.83,3.78-5.66,2.2h-.32A14.59,14.59,0,0,0,243.45,8h-2.52c-2.2,0-4.09.32-5.35,2.52a3.62,3.62,0,0,1-3.46,1.89,5.55,5.55,0,0,0-4.1,1.89,36.7,36.7,0,0,0-4.4,6.93,12.3,12.3,0,0,0-.32,9.45,6,6,0,0,1,.32,2.51c.31,1,0,2.21.63,3.15a38.56,38.56,0,0,0,3.14,6.3c.63,1.26,1,2.21-.31,3.15a13.08,13.08,0,0,1-3.46,2.2c-.63.32-1.58.32-1.89.95-.32.31-.95,1.26-.63,1.89,0,.63.94,1.26,1.26,1.57a3.4,3.4,0,0,0,3.46-.63c1.26-.94,2.83-2.2,4.09-3.15,1.58-.94,2.52-.94,3.15.63.32.95.63,1.89.95,3.15s.31,2.84,2.2,3.15a3.07,3.07,0,0,1,2.52,3.15,29.14,29.14,0,0,1-.94,10.39c-.63,1.89-1.58,2.52-3.47,1.89a9.85,9.85,0,0,0-3.15-.31A3,3,0,0,0,228,74.48c.63,1.89,0,2.52-1.89,2.83a7.69,7.69,0,0,0-5,1.89,30.91,30.91,0,0,0-3.47,3.15c-3.46,3.46-7.24,6.93-10.7,10.39-5.67,5.67-12,10.08-18.58,14.8-4.73,3.15-9.76,6-14.49,9.13a4,4,0,0,0-1.89,3.47c-.31,2.83-.63,5.35-.94,8.18-.63,2.84-1.26,6-1.89,8.82-1.89,8.19-3.78,16.37-6,24.56a4,4,0,0,0,2.83,5c1.26.32,2.52.95,3.78,1.26a2.67,2.67,0,0,1,2.2,2.52v4.72a5.55,5.55,0,0,1-1.89,4.1c-1.57,1.26-2.2,3.15-2.83,5.35-.32,1.57-1.26,3.15-1.89,5-.32.94-1.58,1.57-.63,2.52.31.31,1.57,0,2.52-.32,1.57-.31,2.52,0,1.89,1.58a6.43,6.43,0,0,1-1.26,2.52,30,30,0,0,1-3.15,3.14c-.63.63-1.26,1-.63,1.89a2.36,2.36,0,0,0,1.57.63,2.32,2.32,0,0,0,1.26-.63,36.57,36.57,0,0,0,3.47-3.46,27.3,27.3,0,0,0,3.15-5,69.48,69.48,0,0,0,2.2-7.56,10.49,10.49,0,0,0,.32-3.14,23.29,23.29,0,0,1,.31-10.4c.32-.94,1.26-2.2,1.58-3.14.31-.63.94-1.26.94-1.89.94-4.41,1.89-9.14,2.83-13.54a58.32,58.32,0,0,1,3.78-12.6A38.34,38.34,0,0,0,188,129.9c.32-2.84,1.26-5.67,4.41-6.93l2.83-.94c4.41-2.21,8.51-4.41,12.92-6.93A89.78,89.78,0,0,0,222.36,105c1.57-1.26,3.14-1.26,4.72.32.63.63,1.26,1.57,1.89,2.2,1.26,3.46,2.83,6.61,3.15,10.39a42.61,42.61,0,0,1-8.19,29.29,20.11,20.11,0,0,1-14.49,8.18c-2.2.32-4.72,0-6.61,2.21a6.36,6.36,0,0,1-2.52,1.26,11,11,0,0,0-2.83,1.26c-6,4.09-9.13,9.76-8.82,17a15.57,15.57,0,0,0,1.58,6.61c.94,2.52,2.83,4.41,4.4,6.62a3.38,3.38,0,0,1,.32,4.41c-1.26,2.52-2.52,5.35-3.78,8.18-1.89,4.1-3.78,7.88-6,12-1.58,2.83-3.47,5-5,7.87L171.66,236a1.71,1.71,0,0,1-2.52.63,41.75,41.75,0,0,1-4.73-3.15c-3.46-2.21-6.92-4.1-10.39-6.61-3.46-2.84-6.61-6.3-9.76-9.45a5.9,5.9,0,0,1-1.57-4.41,64.77,64.77,0,0,0-1.26-8.19,48.44,48.44,0,0,0-6-14.48c-2.83-4.73-5.66-9.13-10.7-12a2.27,2.27,0,0,1-.63-3.46,9.63,9.63,0,0,1,4.72-3.15,11.87,11.87,0,0,0,3.47-1.58,11.26,11.26,0,0,1,4.72-2.51c2.52-.63,3.15-1.89,2.83-4.41v-1.89a42.73,42.73,0,0,1,1.58-6c.31-.94.63-1.89,1.26-2.2,2.2-1.89,1.89-2.83-.63-4.09-.32,0-.32,0-.63-.32-1.89-.94-2.52-2.52-1.89-4.72a3.35,3.35,0,0,0,.31-2.52,80.12,80.12,0,0,0-2.2-8.19,18.88,18.88,0,0,0-2.84-4.09c-.63-1-1.57-1.89-1.57-2.84,0-2.52-.63-2.83-2.83-2.2a4,4,0,0,1-3.78-.63c-1.58-1.26-3.47-2.52-5-3.78a4.73,4.73,0,0,0-5.67,0,5,5,0,0,1-4.72.63,6.59,6.59,0,0,0-6.62,1.58c-2.83,2.51-5.66,5.35-9.13,7.24a4,4,0,0,0-1.57,2.2c-.32,2.52-.63,5.36.31,7.87.32.95.63,1.58,1,2.52a2.46,2.46,0,0,1-1,2.21c-2.2,1.57-1.26,3.15,0,4.41a5.73,5.73,0,0,1,1.58,2.2c.94,2.83,3.15,5,5.35,6.93,3.15,2.52,5.35,5.35,5.35,9.45,0,2.51-.31,3.14-2.83,3.14-1.89,0-2.83.32-3.46,2.21-1.26,2.83-2.52,3.15-5.36,2.83-1.89-.31-4.41-.63-5.67.32a68.07,68.07,0,0,1-11,4.72,7,7,0,0,0-3.46,1.58c-2.52,1.88-5.35,4.09-7.87,6.29l-6.62,5.67-.63.63c-1.89,1.58-3.77,3.47-5.66,5-1.58.94-3.47,1.57-5,2.52-1.58.63-3.15,1.26-3.15,3.15,0,2.52-1.26,4.72-2.52,6.93-2.52,4.09-5,8.18-7.56,12.59-2.52,4.1-4.41,8.5-6.61,12.91a9.09,9.09,0,0,0-.63,2.84c.31,1.57-.32,2.52-1.58,3.46-1.88,1.57-3.77,2.83-5.66,4.41a3.33,3.33,0,0,0-.63,1.89,1.41,1.41,0,0,0,1.26.94c.94.32,1.89,0,2.2,1.26S23,254,22.4,254.28c-.32.32-.95.32-1.58.63s-1.57.63-2.2,1a2.39,2.39,0,0,0-.95,2.83A1.6,1.6,0,0,0,19.88,260c.63,0,1.26-.32,1.89-.32a52.29,52.29,0,0,1,5.35-1.57c3.78-.31,6-2.2,7.56-5.67.94-1.89,1.57-2.2,3.78-1.57,3.15.63,4.72-.32,5.66-3.15S45.7,242,47,239.17l7.56-15.12A13,13,0,0,1,57,220a36.59,36.59,0,0,1,7.56-4.41c1.89-1,4.1-1.89,6-2.83,2.2-1.26,4.4-2.21,6.61-3.47,2.2-.94,3.46-.63,4.41,1.58a18.28,18.28,0,0,1,1.26,10.07,28.14,28.14,0,0,1-5.67,14.17,18.78,18.78,0,0,1-8.82,6.62,14.3,14.3,0,0,0-6,3.46c-2.84,3.15-6,6.3-7.56,10.39a17.42,17.42,0,0,0-.31,12,4.05,4.05,0,0,1-.32,3.78c-1.57,2.52-3.15,5.35-4.72,7.87a37,37,0,0,0-2.52,6.3c-1.26,3.46-2.21,6.92-3.15,10.39-.32,1.57-.63,2.83-2.21,3.46-.31,0-.62.32-.94.63-1.57,3.15-4.72,5-7.56,6.93-3.46,2.83-7.24,5.35-10.39,8.5-3.15,3.47-5.35,7.24-7.87,11L9.17,334.9c-.31.31-.63.94-1.26.94A48.13,48.13,0,0,1,2.56,339C.67,339.93.35,341.51,1,343.4a11.12,11.12,0,0,1,.63,3.46c-.63,2.84,1,5,1.26,7.87,0,.32.32.32.32.63,1.57,1.26,5.35.95,6.61-.63a4.42,4.42,0,0,1,5.67-1.26A55.84,55.84,0,0,0,22.08,356c4.1,1.26,7.56,0,10.71-2.2,1.57-1,1.57-2.52,0-3.46a5.83,5.83,0,0,0-6-.32c-.94.32-2.2.63-2.83,0-1.57-1.26-3.46-2.52-3.78-4.72,0-.32,0-.63.32-.63a15.14,15.14,0,0,1,2.83-3.47c3.46-2.83,7.24-5.67,10.71-8.5,2.83-2.2,5.35-4.41,8.18-6.61,1.89-1.58,3.78-3.78,6.62-3.47,4.09.32,6-2.51,8.19-5a86.32,86.32,0,0,0,6.61-8.19l6.61-7.56c3.15-3.46,6-7.24,9.13-10.71A27.68,27.68,0,0,1,93.25,282a16.06,16.06,0,0,1,3.78-.63,27.84,27.84,0,0,1,12.91,3.78c2.2,1.58,4.72,3.15,6.61,4.72a43,43,0,0,1,5.35,5.36c1.26,1.57,1.26,2.83-.31,4.41-2.21,2.2-4.41,4.41-6.61,6.29-1.26,1.26-1.26,1.58-.32,3.15,1.26,1.58,1,2.52-.31,3.78-.95.95-1.89,1.58-2.52,2.21a8.71,8.71,0,0,1-4.73,2.52,8.3,8.3,0,0,0-5.66,3.46A47.69,47.69,0,0,0,98,328a4.85,4.85,0,0,0,4.72,6.61,3.5,3.5,0,0,1,3.15,1.57c1.26,1.58,1.26,3.47,1,5.36a6.55,6.55,0,0,0,1.26,5.35c1.57,2.21,3.46,4.72,5.35,6.93,2.52,3.15,5.35,3.78,9.13,2.52,1.58-.63,2.84-1.26,4.41-1.89,1.89-.95,1.89-2.84.32-4.09a4.41,4.41,0,0,0-1.89-.63c-5.36-.63-5.36-.63-6.3-5.67-.63-3.47-1.58-6.93-2.2-10.39s-1-6.93.31-10.4a66.57,66.57,0,0,1,3.46-6.61q1.89-3.78,3.78,0c1,1.89,2.84,1.89,3.78,0a55.74,55.74,0,0,1,3.47-5.67c.94-1.57,2.51-1.57,3.46,0,1.89,2.52,3.46,5.36,5.67,7.88a69.73,69.73,0,0,0,6.61,6.92c3.46,3.47,7.87,5.67,10.71,9.45.94,1.26,2.2,2.83,3.15,4.09a15.54,15.54,0,0,1,3.46,7.25c.94,4.4,2.2,4.4,5,3.15,1.26-.32,1.89,0,2.2.94a8.49,8.49,0,0,0,3.47,4.72,4.86,4.86,0,0,0,7.55-1.89c.63-1.57,1.58-2.2,3.47-2.2,2.52,0,5,0,6.93-1.89a36.69,36.69,0,0,0,5.35-4.41,49.13,49.13,0,0,0,3.78-4.09c.94-1.26,0-2.52-1.58-2.84-1.89-.31-3.15.63-4.41,1.58a8.22,8.22,0,0,1-6,1.57,27.47,27.47,0,0,0-5-.31,3.69,3.69,0,0,1-3.46-1.58,18.57,18.57,0,0,0-3.78-3.15c-.63-.31-.94-.94-1.57-1.25a7,7,0,0,1-.95-1.58c-1.26-1.89-2.83-3.78-4.09-5.67-.95-1.57-1.58-3.15-2.52-4.41-3.78-5.66-6-12.28-8.82-18.26a36.89,36.89,0,0,0-3.46-6,10.37,10.37,0,0,1-2.21-4.1,8.37,8.37,0,0,0-2.2-4.41,2.46,2.46,0,0,1-.32-3.46c2.84-4.09,5.67-8.19,8.82-12,2.52-3.14,5.35-5.66,7.87-8.81A4,4,0,0,1,172,265c1.58.31,1.89,0,2.21-1.89v-1l.94-.94c.32.31.63.31.63.63.32.63,0,1.26.32,1.89a4.61,4.61,0,0,0,1.57,1.89,1.76,1.76,0,0,0,1.57-1.89c0-1.26-.31-2.84-.31-4.1a17.49,17.49,0,0,1,0-4.09,37.66,37.66,0,0,1,4.09-6.61l5.67-7.56c2.21-2.83,4.1-5.35,6.3-8.19a129.63,129.63,0,0,1,8.82-9.76,63.85,63.85,0,0,1,6.92-6c1-.63,2.21-.95,2.84.31a53.87,53.87,0,0,1,3.46,5.67c1.89,3.15,3.78,6.61,6,10.08s4.4,6.93,6.92,10.39c2.21,3.15,4.41,6.3,6.93,9.45,1.58,1.89,2.52,3.46,2.52,6a6.1,6.1,0,0,0,.94,3.15c2.21,4.41,4.73,8.5,6.93,12.91a89.25,89.25,0,0,1,5,11.34c1.26,3.14,2.21,6.29,4.09,9.13.32.31.32.63.63.94,2.21,4.73,4.41,9.76,6.62,14.49,2.2,5.35,5.35,10.7,5.67,17,0,.32.31.63.31,1.26a24.76,24.76,0,0,1,.63,4.73,4.5,4.5,0,0,0,.63,2.2c.63.94,1.89.94,2.2,0a4,4,0,0,1,2.84-2.2c1.57-.63,2.52-.32,3.15,1.25a26.71,26.71,0,0,1,1.26,4.73,10,10,0,0,1-.63,4.41,5.19,5.19,0,0,0,.31,6c.63,1.57,1.58,3.15,2.21,4.72a3.79,3.79,0,0,0,3.77,2.52,4.22,4.22,0,0,0,4.1-2.52c.63-1.57,1.26-1.89,3.15-1.57a18.23,18.23,0,0,1,2.2.63c1.26.63,2.52,1.89,4.1,2.2,5,.95,10.07,1.26,14.17-2.52l4.72-4.72C320,345.92,319.34,344.34,317.77,344ZM158.43,251.76c-3.15,4.41-6.3,8.5-9.44,12.91-1.89,2.52-3.78,5.36-5.67,7.88-1.26,1.57-2.52,1.57-3.47,0l-8.5-12.29a43.27,43.27,0,0,1-3.46-4.72c-2.21-2.52-1.89-3.46,0-6.3,2.2-2.83,4.41-6,6.61-9.13.63-.94.94-2.2,1.57-3.15,1-1.57,1.89-1.89,3.78-.94,2.52,1.26,4.73,2.52,7.25,3.78,3.77,1.89,7.87,3.78,11.65,5.66.94.63,2.2,1.26,2.2,3.15C160,249.56,159.38,250.82,158.43,251.76Z"/></svg>