<?xml version="1.0" encoding="utf-8"?>
<!-- Generator: Adobe Illustrator 25.2.3, SVG Export Plug-In . SVG Version: 6.00 Build 0)  -->
<svg version="1.1" id="Layer_1" xmlns="http://www.w3.org/2000/svg" xmlns:xlink="http://www.w3.org/1999/xlink" x="0px" y="0px"
	 viewBox="0 0 325.3 245.2" style="enable-background:new 0 0 325.3 245.2;" xml:space="preserve">
<g>
	<g>
		<path d="M71.6,17.6c0.1-0.2,0.2-0.3,0.3-0.4"/>
		<path d="M111.8,60.9h-2.5c-1.9,0-1.7,0-5.5,0.1l-11.5,0.1c-0.1-6.4-0.2-7.5-0.2-17.8v-3.8c0-2.5,0-3.7,0-3.7c0-2.3,0-2.3,0.1-3.8
			H93h7.5l9.8,0.1c1.6,0,2.2-0.3,2.2-1.3c0-0.8-0.6-1.2-1.9-1.2h-1.3c-0.9,0-1.5,0-1.7,0.1h-2.4l-2.4,0.1l-2.4,0.1
			c-2,0.1-3.2,0.1-4.8,0.1c-0.6,0-1.9,0-3.5-0.1l0.1-10.4c6.6,0,8.6,0,15.1,0.1c0.2,0.1,0.4,0.1,0.7,0.1h1.2c1,0,1.5-0.3,1.5-1.2
			c0-1.2-0.1-1.2-3.5-1.2H74.2h-2.3c-0.1,0.1-0.2,0.3-0.3,0.4c-0.2,0.3-0.4,0.8-0.7,1.4c-1.3,2.8-4.8,9.7-7.1,13.9l-6.1,11.3
			l-15.3-27H18.7l28.8,49.7l24.2-43.7c0,1.1,0,2.3,0,3.8c0.1,5.9,0.1,10.4,0.1,11.8l-0.1,3.9v3.9l-0.1,3.8v7.5l-0.1,3.7v1.8h38.4
			c3.7,0,3.8-0.1,3.8-1.2C113.9,61.3,113.3,60.9,111.8,60.9z"/>
	</g>
	<path d="M118.2,56.4c3.3,3.7,8.6,6.1,13.4,6.1c2.5,0,3.9-0.9,3.9-2.4c0-0.9-0.6-2.3-1.4-3.4c-1.1-1.5-2.3-2.9-6.6-7.6
		c-5.3-5.6-7.1-7.8-8.8-10.5c-1.9-3.1-2.9-5.9-2.9-8.6c0-8.2,7.9-14.2,18.7-14.2c4.2,0,7.5,0.8,10.7,2.4c2.2,1.2,4,2.8,4,3.8
		c0,0.6-0.6,1-1.2,1c-0.4,0-0.7-0.2-1.6-1c-2.4-2.3-6.9-4-10.4-4c-2.4,0-3.9,1-3.9,2.6c0,1.8,1.7,4.3,5.7,8.6
		c3.6,3.8,7.1,7.6,8.9,9.8c4,4.8,5.7,8.3,5.7,11.8c0,8.3-8.2,13.9-20.2,13.9c-4.7,0-9.2-1.3-13.1-4c-2.4-1.7-3.6-3-3.7-4
		c0-0.6,0.5-1.2,1.1-1.2C117.1,55.5,117.5,55.7,118.2,56.4z"/>
	<path d="M195.3,17.2c2.9,0,3.3,0.2,3.3,1.3c0,0.8-0.6,1.2-1.8,1.2c-0.2,0-1.5-0.1-2.8-0.1c-0.5,0-2.1,0-4.4-0.1
		c-4.5-0.1-3.3-0.1-4.2-0.1c0,0.9-0.1,1.7-0.1,1.8v2.9l-0.1,2.9v3l-0.1,3.3v3.3l-0.1,3.4c0,0,0,3.6,0,8.4v4.2c0,4.8,0.1,8.3,0.1,9.5
		c0,0.3,0,0.7,0.1,1.2h-20.6c0.1-2.1-0.1-1.8,0.1-8.5l0.1-3.5v-5c0-5.7,0.1-10,0.1-10s0-2.6-0.1-6.1l-0.1-3v-2.6l-0.1-2.6v-2.6h-2.2
		c-3,0-1.5-0.1-4.9,0.1l-1.3,0.1h-1.6l-0.8,0.1H153c-1.2,0-1.7-0.3-1.7-1.2c0-1,0.3-1.2,2.6-1.2H195.3z"/>
	<path d="M222.6,32c-0.1,1.5-0.1,1.5-0.1,3.8c0,0,0,1.2,0,3.7v3.8c0,10.2,0.1,11.4,0.2,17.8l11.5-0.1c3.8-0.1,3.6-0.1,5.5-0.1h2.5
		c1.5,0,2.1,0.3,2.1,1.2c0,1.2-0.1,1.2-3.8,1.2h-38.4v-1.8l0.1-3.7v-7.5l0.1-3.8v-3.9l0.1-3.9c0-1.3,0-5.8-0.1-11.8
		c0-5.3-0.1-7.3-0.2-9.8h35.8c3.4,0,3.5,0.1,3.5,1.2c0,0.8-0.5,1.2-1.5,1.2h-1.2c-0.3,0-0.5,0-0.7-0.1c-6.5-0.1-8.5-0.1-15.1-0.1
		l-0.1,10.4c1.5,0.1,2.9,0.1,3.5,0.1c1.7,0,2.8,0,4.8-0.1l2.4-0.1l2.4-0.1h2.4c0.2-0.1,0.8-0.1,1.7-0.1h1.3c1.3,0,1.9,0.3,1.9,1.2
		c0,1-0.6,1.3-2.2,1.3l-9.8-0.1h-7.5H222.6z"/>
	<path d="M262,17.2c12.1,0,17.3,0.6,21.6,2.4c6.7,2.8,11.3,9.8,11.3,17.2c0,10.3-7.9,18.3-18.5,18.9c4.5,3.1,9.1,5,15.1,6.2
		c0.7,0.1,1,0.5,1,1c0,0.7-0.6,1.1-1.6,1.1c-2.1,0-6.3-1.3-10.3-3.3c-3.9-1.9-6.7-3.8-11.8-7.9v7.2v3.3h-20.5
		c0-5.1,0.1-8.2,0.1-12.5c0.1-6.7,0.1-10.2,0.1-13.2l-0.1-20.4H262z M268.8,47.9c0,0.1,0,1.2,0.1,2.1c1.8,1.7,2.4,2.2,4.4,3.7
		c0.8,0.1,1.4,0.1,1.7,0.1c10.1,0,17.9-7.2,17.9-16.6c0-7.3-4.6-13.8-11.3-15.9c-3.3-1.1-6.7-1.5-12.4-1.6
		c-0.2,6.2-0.3,9.3-0.3,13.1v3.2l-0.1,3.2v3.2V47.9z"/>
	<path d="M63.8,87.9c2.3-4.2,5.8-11.1,7.1-13.9c1-1.9,1.3-2.4,2.1-2.4c0.8,0,1.5,0.6,1.5,1.3c0,0.5-0.2,1-1,2.4
		c-0.2,0.3-0.5,0.8-0.9,1.5l-25,45L18.7,72.2h23.7l15.3,27L63.8,87.9z"/>
	<path d="M121.4,95.2c0,13.6-11,24.5-24.8,24.5c-13.1,0-24.2-11.3-24.2-24.5c0-13.6,11-24.4,24.6-24.4
		C110.4,70.8,121.4,81.8,121.4,95.2z M94.3,74.5c-0.3,5.9,0,6.1-0.1,9.1c0,2.3-0.1,4.2-0.1,6.5v6.8c0,2.7,0.1,7.1,0.1,9.5v2.4
		c0,6.1,0.1,3.3,0.1,8.8c0.8,0.1,1.4,0.1,2.1,0.1c12.9,0,22.8-9.8,22.8-22.6c0-12.3-10-22.1-22.5-22.1c-0.9,0-1.5,0.1-2.4,0.2
		L94.3,74.5z"/>
	<path d="M163.9,87.9c2.3-4.2,5.8-11.1,7.1-13.9c1-1.9,1.3-2.4,2.1-2.4c0.8,0,1.5,0.6,1.5,1.3c0,0.5-0.2,1-1,2.4
		c-0.2,0.3-0.5,0.8-0.9,1.5l-25,45l-28.8-49.7h23.7l15.3,27L163.9,87.9z"/>
	<path d="M63.8,142.9c2.3-4.2,5.8-11.1,7.1-13.9c1-1.9,1.3-2.4,2.1-2.4c0.8,0,1.5,0.6,1.5,1.3c0,0.5-0.2,1-1,2.4
		c-0.2,0.3-0.5,0.8-0.9,1.5l-25,45l-28.8-49.7h23.7l15.3,27L63.8,142.9z"/>
	<path d="M121.4,150.2c0,13.6-11,24.5-24.8,24.5c-13.1,0-24.2-11.3-24.2-24.5c0-13.6,11-24.4,24.6-24.4
		C110.4,125.8,121.4,136.8,121.4,150.2z M94.3,129.5c-0.3,5.9,0,6.1-0.1,9.1c0,2.3-0.1,4.2-0.1,6.5v6.8c0,2.7,0.1,7.1,0.1,9.5v2.4
		c0,6.1,0.1,3.3,0.1,8.8c0.8,0.1,1.4,0.1,2.1,0.1c12.9,0,22.8-9.8,22.8-22.6c0-12.3-10-22.1-22.5-22.1c-0.9,0-1.5,0.1-2.4,0.2
		L94.3,129.5z"/>
	<path d="M163.9,142.9c2.3-4.2,5.8-11.1,7.1-13.9c1-1.9,1.3-2.4,2.1-2.4c0.8,0,1.5,0.6,1.5,1.3c0,0.5-0.2,1-1,2.4
		c-0.2,0.3-0.5,0.8-0.9,1.5l-25,45l-28.8-49.7h23.7l15.3,27L163.9,142.9z"/>
</g>
<g>
	<path d="M35.5,199c6.7,0,8.2,0.2,10.9,1c5.2,1.6,8.5,5.6,8.5,10.3c0,3.6-1.9,6.8-5,8.2c2.3,1.7,3.6,3.8,3.6,6.1
		c0,3.3-2.4,6.6-5.6,7.8c-2,0.8-3.5,0.9-7.8,1c-0.7,0-1.1,0.1-2.8,0.1h-2.8H22V233c0-1,0.1-0.2,0.1-2.4v-3.3l0.1-3.2v-3.2l0.1-3.3
		l-0.1-3.5c-0.2-9.3-0.1-5.8-0.1-10.5c0-2.4,0-2.3-0.1-4.7H35.5z M39.7,231.7c5.2,0,7.6-0.5,9.5-2c1.7-1.3,2.7-3.2,2.7-5.2
		c0-2.2-1.2-4-4-5.5c-0.8,0.2-1.3,0.2-2,0.2c-2.7,0-4.4-0.9-4.4-2.4c0-0.3,0.2-0.5,0.4-0.5c0.2,0,0.5,0.1,0.8,0.3
		c1,0.5,2.6,0.9,3.8,0.9c3.9,0,6.8-3,6.8-7.1c0-3.4-1.9-6.2-5.3-7.9c-2.7-1.4-5-1.8-9.4-1.8h-1.1c-0.1,4-0.2,7.1-0.2,9.1v7.7
		c0,2.7,0.1,7.2,0.1,10.5v1.8v0.7l0.1,0.7v0.7H39.7z"/>
	<path d="M72.7,214.6c0,0,0,1.1,0,3.3v3.2c0,7.7,0.1,8.3,0.1,12.4H57.4c0.1-7.5,0.2-15.4,0.2-20.4c0-2.4-0.1-3.9-0.1-5.4v-2.4
		l-0.1-2.4l-0.1-2.4V199h15.4L72.7,214.6z"/>
	<path d="M112.1,216.2c0,10.1-8.2,18.3-18.5,18.3c-9.8,0-18.1-8.4-18.1-18.3c0-10.1,8.2-18.2,18.4-18.2
		C103.9,197.9,112.1,206.1,112.1,216.2z M91.8,200.7c-0.2,4.4,0,4.5-0.1,6.8c0,1.7-0.1,3.1-0.1,4.9v5.1c0,2,0.1,5.3,0.1,7.1v1.8
		c0,4.5,0.1,2.5,0.1,6.6c0.6,0.1,1,0.1,1.6,0.1c9.6,0,17-7.3,17-16.9c0-9.2-7.5-16.5-16.8-16.5c-0.7,0-1.1,0.1-1.8,0.2L91.8,200.7z"
		/>
	<path d="M148.2,220.6c4-3.9,6.8-5.7,8.8-5.7c0.8,0,1.3,0.4,1.3,1.1c0,0.8-0.2,0.8-1.9,1c-1.6,0.2-3.5,1.4-7.2,4.9
		c2.3,3.4,5.7,7.5,9.4,11.5h-17.7c-1.1-0.9-1.4-1.2-2.4-2.4c-2.5,2.1-5.1,3-8.2,3c-5.3,0-9.1-3.5-9.1-8.4c0-3.9,2.1-6.8,6.9-9.4
		c-2.2-4.2-2.9-6.2-2.9-8.6c0-5.7,5-9.5,12.5-9.5c5.9,0,9.6,2.5,9.6,6.5c0,2.7-1.8,4.9-5.4,6.7c0.6,1,0.5,0.9,2.9,4.6l0.7,1l0.5,0.8
		l0.5,0.7l0.5,0.8l0.4,0.5l0.3,0.5L148.2,220.6z M129.1,217.7c-4.4,2.6-6,4.7-6,7.8c0,4.1,3,6.9,7.5,6.9c2.5,0,4.7-0.8,6.8-2.6
		C134.2,225.9,133.2,224.4,129.1,217.7z M145.8,204.6c0-3-3-4.8-8.1-4.8c-0.6,0-0.8,0-1.2,0.1c0.8,2.9,2.1,5.7,4.7,10
		C144.3,208.5,145.8,206.7,145.8,204.6z"/>
	<path d="M181.8,211.1c0,3.7-0.1,6.4-0.1,6.4c-0.1,3.4,0.1,10.6,0.1,15.2c1,0.1,1.5,0.2,2.1,0.2c6,0,11.6-3.5,14.6-9.1
		c0.4-0.6,0.6-0.9,1-0.9c0.4,0,0.8,0.3,0.8,0.7c0,1-2,3.9-4,5.8c-3.3,3.1-8.1,5.1-12.4,5.1c-10.2,0-18.5-8.2-18.5-18.3
		c0-10,8.2-18.2,18.1-18.2c4.9,0,9.1,1.7,12.6,4.9c1.5,1.4,2.5,2.7,2.5,3.4c0,0.4-0.4,0.8-0.8,0.8c-0.4,0-0.7-0.3-1.2-1
		c-2.9-4-7.9-6.5-13.3-6.5c-0.7,0-1,0.1-1.8,0.2c0,2.5-0.1,2.8-0.1,5.8V211.1z"/>
	<path d="M240,233.4h-17.4l-2.4-4.6h-8.5l-2.5-0.1H203l-1.7,3c-1,1.8-1.1,2.1-1.7,2.1c-0.5,0-0.9-0.3-0.9-0.7c0-0.4,0.1-0.6,0.7-1.6
		c0.2-0.4,0.6-1,1.1-1.9l0.7-1.2c3.2-5.5,2.2-3.6,3.5-5.9c1.4-2.4,2.7-4.6,4.1-6.9c3.4-5.7,5.1-8.5,7.4-12.4
		c2.2-3.7,1.4-2.4,2.7-4.5c0.6-1,0.5-0.9,1-1.7L240,233.4z M212.1,213.4c-0.8,1.3-0.4,0.7-2,3.3c-3.2,5.5-2.1,3.6-3.5,5.9
		c-2.6,4.4-2,3.4-2.5,4.4c2.8,0.1,4.6,0.1,7.7,0.1c3.3,0,4.6,0,7.4-0.1L212.1,213.4z"/>
	<path d="M256.6,210c-0.1,2.7-0.1,4.8-0.1,6.1c0,1.2,0,3.7,0.1,7.2c0.1,11.8,0.1,8.6,0.1,10.1h-15.4c0.1-1.3,0.1-1.6,0.1-6.7
		c0-0.9,0.1-2,0.1-3v-2.8l0.1-2.9V215c0-0.9,0-3.9-0.1-8.8c-0.1-3.9-0.1-5.5-0.2-7.3H268c2.5,0,2.6,0.1,2.6,0.9
		c0,0.6-0.4,0.9-1.1,0.9c-0.1,0-0.8-0.1-1.4-0.1c-2.1-0.1-3.9,0-5.5-0.1l-2-0.1h-1.9h-2l-0.1,7.8c1.1,0.1,2.2,0.1,2.6,0.1
		c1.2,0,2.1,0,3.6-0.1l1.8-0.1l1.8-0.1h1.8c0.2-0.1,0.6-0.1,1.3-0.1h1c1,0,1.4,0.3,1.4,0.9c0,0.7-0.5,1-1.7,1l-7.3-0.1h-5.6H256.6z"
		/>
	<path d="M288.2,210c-0.1,1.1-0.1,1.1-0.1,2.8c0,0,0,0.9,0,2.8v2.8c0,7.6,0.1,8.5,0.2,13.3l8.6-0.1c2.8-0.1,2.7-0.1,4.1-0.1h1.9
		c1.1,0,1.5,0.3,1.5,0.9c0,0.9-0.1,0.9-2.8,0.9h-28.6v-1.3l0.1-2.8v-5.6l0.1-2.8v-2.9l0.1-2.9c0-1,0-4.3-0.1-8.8
		c0-4-0.1-5.5-0.2-7.3h26.7c2.5,0,2.6,0.1,2.6,0.9c0,0.6-0.4,0.9-1.1,0.9h-0.9c-0.2,0-0.4,0-0.5-0.1c-4.9-0.1-6.3-0.1-11.3-0.1
		l-0.1,7.8c1.1,0.1,2.2,0.1,2.6,0.1c1.2,0,2.1,0,3.6-0.1l1.8-0.1l1.8-0.1h1.8c0.2-0.1,0.6-0.1,1.3-0.1h1c1,0,1.4,0.3,1.4,0.9
		c0,0.7-0.5,1-1.7,1l-7.3-0.1h-5.6H288.2z M287.5,189.3h8.9l-5.4,6.9H285L287.5,189.3z"/>
</g>
<g>
	<path d="M325.3,245.2H0V0h325.3V245.2z M2,243.2h321.3V2H2V243.2z"/>
</g>
<g>
	<rect x="1" y="183.4" width="323.3" height="2"/>
</g>
<g>
	<path d="M297.7,175.7c-0.6-0.1-1.1,0.2-1.5,0.4c-0.9,0.6-1.5,0.6-2.5-0.1c-0.6-0.4-1.3-0.7-2-1c-0.6-0.3-1.5-0.6-1.8-1.1
		c-0.7-0.9-1-2.1-1.5-3.1c-0.2-0.4,0.1-0.7,0.6-0.8c0.3-0.1,0.5-0.1,0.8-0.2c0.3-0.1,0.4-0.3,0.3-0.5c-0.1-0.2-0.1-0.3-0.2-0.5
		c-0.7-1-1.4-1.9-2-3c-1.1-1.9-2.2-3.8-3.2-5.8c-0.6-1.2-1.1-2.3-1.7-3.5c-0.8-1.8-1.7-3.7-2.5-5.6c-0.5-1.1-0.7-2.3-0.7-3.5
		c0-0.5-0.1-0.9-0.5-1.3c-0.2-0.2-0.4-0.5-0.6-0.7c-1-1.7-2-3.5-2.9-5.2c-0.6-1-1.2-2.1-1.7-3.2c-0.5-1-0.8-2.1-1.3-3.1
		c-1.1-2.3-1.8-4.7-2.6-7.1c-0.1-0.4,0-0.7,0.3-0.9c0.5-0.3,1.1-0.6,1.6-0.9c0.5-0.3,1.1-0.6,1.6-1c1.1-0.8,2.2-1.7,3.3-2.6
		c0.7-0.5,1.4-1.1,1.9-1.7c0.7-0.8,1.3-1.7,1.9-2.5c0.3-0.4,0.8-0.5,1.2-0.1c0.4,0.4,0.8,0.8,1.1,1.2c0.8,1.1,1.9,1.7,2.8,2.6
		c0.7,0.6,1.2,0.5,1.8-0.1c0.1-0.1,0.1-0.2,0.2-0.3c0.2-0.1,0.3-0.2,0.5-0.2c1.1,0,1.9,1.3,1.3,2.3c-0.1,0.2-0.2,0.3-0.2,0.5
		c-0.2,0.6-0.1,1.2,0.1,1.8c0.3,0.7,0.4,1.3-0.2,1.9c-0.1,0.1-0.1,0.4-0.1,0.6c0.2,0,0.4,0,0.6,0c0,0,0,0,0.1-0.1
		c0.8-0.6,1.1-0.5,1.2,0.5c0.1,0.8,0.1,1.5,0.1,2.3c0,0.4,0.4,0.8,0.7,0.8c0.3,0,0.5-0.3,0.5-0.8c0-0.5-0.1-1-0.2-1.5
		c-0.1-0.7-0.2-1.4-0.2-2c0-1.4,0.2-2.7,0.2-4.1c0-1-0.2-2-1.1-2.6c-0.4-0.3-0.9-0.6-1.3-0.8c-0.4-0.2-0.6-0.5-0.5-0.9
		c0.1-0.6-0.2-1.1-0.6-1.5c-0.8-0.8-1.6-1.5-2.4-2.3c-0.8-0.8-1.6-1.7-2.4-2.5c-0.3-0.3-0.6-0.6-0.5-1.1c0.1-0.3,0.2-0.7,0.3-1
		c0.1-1.1,0.3-2.2,0.4-3.3c0-0.7,0-1.4-0.1-2.1c-0.1-0.9-0.1-1.8-0.4-2.7c-0.5-1.5-0.8-3.1-1.6-4.5c-1.2-2.2-2.6-4.1-4.6-5.6
		c-0.3-0.2-0.7-0.5-0.5-1c0.2-0.6,0.5-1.2,0.8-1.6c0.3-0.3,0.4-0.6,0.4-1c-0.1-1.3,0.8-2.6,2-3c0.4-0.2,0.8-0.4,1-0.8
		c0.2-0.4,0.5-0.8,0.8-1.2c0.1-0.2,0.4-0.3,0.6-0.2c0.2,0,0.3,0.3,0.4,0.5c0.1,0.6,0.2,1.2-0.1,1.7c-0.2,0.5-0.1,1.1,0.3,1.4
		c0.2,0.1,0.4,0.2,0.6,0.1c0.1,0,0.3-0.3,0.3-0.4c0.2-1,0.5-1.9,1-2.8c0.7-1,0.9-2.1,0.1-3.2c-0.2-0.3-0.2-0.6,0.2-0.8
		c0.4-0.2,0.7-0.5,1-0.8c0.4-0.5,0.1-1-0.6-1c-0.2,0-0.3,0-0.5,0c-0.6,0.1-1.1-0.2-1.4-0.7c-0.2-0.3-0.4-0.6-0.6-0.9
		c-0.3-0.3-0.5-0.7-0.4-1.1c0-0.3-0.1-0.6-0.5-0.7c-0.5-0.1-0.9-0.4-1.1-0.9c-0.3-0.6-0.7-1.3-1-1.9c0-0.1-0.1-0.2-0.2-0.3
		c-0.5-0.4-0.5-0.7-0.2-1.2c0.3-0.5,0.5-1.1,0.7-1.7c0.2-0.4,0-0.8-0.3-0.9c-0.3-0.2-0.8,0-1,0.4c-0.2,0.4-0.3,0.9-0.5,1.3
		c-0.3,1-0.9,1.2-1.8,0.7c0,0-0.1,0-0.1,0c-0.9-0.5-1.8-0.7-2.8-0.6c-0.3,0-0.5,0-0.8,0c-0.7,0-1.3,0.1-1.7,0.8
		c-0.2,0.4-0.6,0.6-1.1,0.6c-0.5,0-0.9,0.2-1.3,0.6c-0.5,0.7-1,1.3-1.4,2.2c-0.4,1-0.5,2-0.1,3c0.1,0.2,0.1,0.5,0.1,0.8
		c0.1,0.3,0,0.7,0.2,1c0.3,0.7,0.6,1.4,1,2c0.2,0.4,0.3,0.7-0.1,1c-0.3,0.3-0.7,0.5-1.1,0.7c-0.2,0.1-0.5,0.1-0.6,0.3
		c-0.1,0.1-0.3,0.4-0.2,0.6c0,0.2,0.3,0.4,0.4,0.5c0.4,0.1,0.8,0.1,1.1-0.2c0.4-0.3,0.9-0.7,1.3-1c0.5-0.3,0.8-0.3,1,0.2
		c0.1,0.3,0.2,0.6,0.3,1c0.1,0.4,0.1,0.9,0.7,1c0.5,0.1,0.8,0.5,0.8,1c0.1,1.1,0,2.2-0.3,3.3c-0.2,0.6-0.5,0.8-1.1,0.6
		c-0.3-0.1-0.6-0.1-1-0.1c-0.7,0-1.2,0.6-1,1.2c0.2,0.6,0,0.8-0.6,0.9c-0.6,0-1.1,0.2-1.6,0.6c-0.4,0.3-0.7,0.6-1.1,1
		c-1.1,1.1-2.3,2.2-3.4,3.3c-1.8,1.8-3.8,3.2-5.9,4.7c-1.5,1-3.1,1.9-4.6,2.9c-0.4,0.3-0.6,0.6-0.6,1.1c-0.1,0.9-0.2,1.7-0.3,2.6
		c-0.2,0.9-0.4,1.9-0.6,2.8c-0.6,2.6-1.2,5.2-1.9,7.8c-0.2,0.7,0.2,1.4,0.9,1.6c0.4,0.1,0.8,0.3,1.2,0.4c0.4,0.1,0.7,0.4,0.7,0.8
		c0,0.5,0,1,0,1.5c0,0.5-0.2,0.9-0.6,1.3c-0.5,0.4-0.7,1-0.9,1.7c-0.1,0.5-0.4,1-0.6,1.6c-0.1,0.3-0.5,0.5-0.2,0.8
		c0.1,0.1,0.5,0,0.8-0.1c0.5-0.1,0.8,0,0.6,0.5c-0.1,0.3-0.2,0.6-0.4,0.8c-0.3,0.4-0.7,0.7-1,1c-0.2,0.2-0.4,0.3-0.2,0.6
		c0.1,0.1,0.3,0.2,0.5,0.2c0.1,0,0.3-0.1,0.4-0.2c0.4-0.4,0.8-0.7,1.1-1.1c0.4-0.5,0.7-1,1-1.6c0.3-0.8,0.5-1.6,0.7-2.4
		c0.1-0.3,0.1-0.7,0.1-1c-0.2-1.1-0.2-2.2,0.1-3.3c0.1-0.3,0.4-0.7,0.5-1c0.1-0.2,0.3-0.4,0.3-0.6c0.3-1.4,0.6-2.9,0.9-4.3
		c0.2-1.4,0.7-2.7,1.2-4c0.4-1.1,0.7-2.1,0.8-3.3c0.1-0.9,0.4-1.8,1.4-2.2c0.3-0.1,0.6-0.2,0.9-0.3c1.4-0.7,2.7-1.4,4.1-2.2
		c1.6-0.9,3.1-2,4.5-3.2c0.5-0.4,1-0.4,1.5,0.1c0.2,0.2,0.4,0.5,0.6,0.7c0.4,1.1,0.9,2.1,1,3.3c0.3,3.4-0.6,6.5-2.6,9.3
		c-1.1,1.5-2.7,2.4-4.6,2.6c-0.7,0.1-1.5,0-2.1,0.7c-0.2,0.2-0.5,0.3-0.8,0.4c-0.3,0.1-0.6,0.2-0.9,0.4c-1.9,1.3-2.9,3.1-2.8,5.4
		c0,0.7,0.2,1.5,0.5,2.1c0.3,0.8,0.9,1.4,1.4,2.1c0.4,0.5,0.4,0.9,0.1,1.4c-0.4,0.8-0.8,1.7-1.2,2.6c-0.6,1.3-1.2,2.5-1.9,3.8
		c-0.5,0.9-1.1,1.6-1.6,2.5c-0.9,1.4-1.8,2.8-2.7,4.2c-0.2,0.3-0.5,0.4-0.8,0.2c-0.5-0.3-1-0.6-1.5-1c-1.1-0.7-2.2-1.3-3.3-2.1
		c-1.1-0.9-2.1-2-3.1-3c-0.4-0.4-0.5-0.9-0.5-1.4c-0.1-0.9-0.2-1.8-0.4-2.6c-0.4-1.6-1-3.2-1.9-4.6c-0.9-1.5-1.8-2.9-3.4-3.8
		c-0.4-0.2-0.5-0.8-0.2-1.1c0.4-0.5,0.9-0.8,1.5-1c0.4-0.1,0.8-0.3,1.1-0.5c0.4-0.4,0.9-0.6,1.5-0.8c0.8-0.2,1-0.6,0.9-1.4
		c0-0.2,0-0.4,0-0.6c0.1-0.6,0.3-1.3,0.5-1.9c0.1-0.3,0.2-0.6,0.4-0.7c0.7-0.6,0.6-0.9-0.2-1.3c-0.1,0-0.1,0-0.2-0.1
		c-0.6-0.3-0.8-0.8-0.6-1.5c0.1-0.2,0.2-0.5,0.1-0.8c-0.2-0.9-0.4-1.7-0.7-2.6c-0.2-0.5-0.6-0.9-0.9-1.3c-0.2-0.3-0.5-0.6-0.5-0.9
		c0-0.8-0.2-0.9-0.9-0.7c-0.5,0.1-0.8,0.1-1.2-0.2c-0.5-0.4-1.1-0.8-1.6-1.2c-0.6-0.4-1.2-0.4-1.8,0c-0.5,0.3-0.9,0.4-1.5,0.2
		c-0.8-0.2-1.4-0.1-2.1,0.5c-0.9,0.8-1.8,1.7-2.9,2.3c-0.2,0.1-0.4,0.4-0.5,0.7c-0.1,0.8-0.2,1.7,0.1,2.5c0.1,0.3,0.2,0.5,0.3,0.8
		c0,0.3-0.1,0.6-0.3,0.7c-0.7,0.5-0.4,1,0,1.4c0.2,0.2,0.4,0.4,0.5,0.7c0.3,0.9,1,1.6,1.7,2.2c1,0.8,1.7,1.7,1.7,3
		c0,0.8-0.1,1-0.9,1c-0.6,0-0.9,0.1-1.1,0.7c-0.4,0.9-0.8,1-1.7,0.9c-0.6-0.1-1.4-0.2-1.8,0.1c-1.1,0.6-2.3,1.1-3.5,1.5
		c-0.4,0.1-0.8,0.2-1.1,0.5c-0.8,0.6-1.7,1.3-2.5,2c-0.7,0.6-1.4,1.2-2.1,1.8c-0.1,0.1-0.1,0.1-0.2,0.2c-0.6,0.5-1.2,1.1-1.8,1.6
		c-0.5,0.3-1.1,0.5-1.6,0.8c-0.5,0.2-1,0.4-1,1c0,0.8-0.4,1.5-0.8,2.2c-0.8,1.3-1.6,2.6-2.4,4c-0.8,1.3-1.4,2.7-2.1,4.1
		c-0.1,0.3-0.2,0.6-0.2,0.9c0.1,0.5-0.1,0.8-0.5,1.1c-0.6,0.5-1.2,0.9-1.8,1.4c-0.1,0.1-0.2,0.4-0.2,0.6c0,0.1,0.2,0.3,0.4,0.3
		c0.3,0.1,0.6,0,0.7,0.4c0.1,0.4-0.3,0.5-0.5,0.6c-0.1,0.1-0.3,0.1-0.5,0.2c-0.2,0.1-0.5,0.2-0.7,0.3c-0.3,0.2-0.4,0.5-0.3,0.9
		c0.1,0.4,0.4,0.5,0.7,0.4c0.2,0,0.4-0.1,0.6-0.1c0.6-0.2,1.2-0.4,1.7-0.5c1.2-0.1,1.9-0.7,2.4-1.8c0.3-0.6,0.5-0.7,1.2-0.5
		c1,0.2,1.5-0.1,1.8-1c0.3-0.9,0.5-1.8,0.9-2.7c0.8-1.6,1.6-3.2,2.4-4.8c0.2-0.5,0.5-1,0.8-1.3c0.7-0.6,1.6-1,2.4-1.4
		c0.6-0.3,1.3-0.6,1.9-0.9c0.7-0.4,1.4-0.7,2.1-1.1c0.7-0.3,1.1-0.2,1.4,0.5c0.4,1,0.6,2.1,0.4,3.2c-0.2,1.7-0.8,3.2-1.8,4.5
		c-0.7,0.9-1.6,1.7-2.8,2.1c-0.7,0.2-1.4,0.6-1.9,1.1c-0.9,1-1.9,2-2.4,3.3c-0.5,1.3-0.5,2.5-0.1,3.8c0.2,0.4,0.1,0.8-0.1,1.2
		c-0.5,0.8-1,1.7-1.5,2.5c-0.3,0.6-0.6,1.3-0.8,2c-0.4,1.1-0.7,2.2-1,3.3c-0.1,0.5-0.2,0.9-0.7,1.1c-0.1,0-0.2,0.1-0.3,0.2
		c-0.5,1-1.5,1.6-2.4,2.2c-1.1,0.9-2.3,1.7-3.3,2.7c-1,1.1-1.7,2.3-2.5,3.5c-0.6,0.9-1.2,1.8-1.8,2.7c-0.1,0.1-0.2,0.3-0.4,0.3
		c-0.6,0.4-1.1,0.7-1.7,1c-0.6,0.3-0.7,0.8-0.5,1.4c0.1,0.3,0.2,0.7,0.2,1.1c-0.2,0.9,0.3,1.6,0.4,2.5c0,0.1,0.1,0.1,0.1,0.2
		c0.5,0.4,1.7,0.3,2.1-0.2c0.5-0.6,1.1-0.7,1.8-0.4c0.7,0.3,1.4,0.6,2.1,0.8c1.3,0.4,2.4,0,3.4-0.7c0.5-0.3,0.5-0.8,0-1.1
		c-0.6-0.4-1.2-0.4-1.9-0.1c-0.3,0.1-0.7,0.2-0.9,0c-0.5-0.4-1.1-0.8-1.2-1.5c0-0.1,0-0.2,0.1-0.2c0.3-0.4,0.5-0.8,0.9-1.1
		c1.1-0.9,2.3-1.8,3.4-2.7c0.9-0.7,1.7-1.4,2.6-2.1c0.6-0.5,1.2-1.2,2.1-1.1c1.3,0.1,1.9-0.8,2.6-1.6c0.8-0.8,1.4-1.7,2.1-2.6
		c0.7-0.8,1.4-1.6,2.1-2.4c1-1.1,1.9-2.3,2.9-3.4c1.2-1.4,2.6-2.4,4.4-2.9c0.4-0.1,0.8-0.2,1.2-0.2c1.4,0.1,2.8,0.4,4.1,1.2
		c0.7,0.5,1.5,1,2.1,1.5c0.6,0.5,1.2,1.1,1.7,1.7c0.4,0.5,0.4,0.9-0.1,1.4c-0.7,0.7-1.4,1.4-2.1,2c-0.4,0.4-0.4,0.5-0.1,1
		c0.4,0.5,0.3,0.8-0.1,1.2c-0.3,0.3-0.6,0.5-0.8,0.7c-0.4,0.4-0.9,0.7-1.5,0.8c-0.7,0.1-1.4,0.5-1.8,1.1c-0.4,0.7-0.8,1.4-1.1,2.2
		c-0.4,1.1,0.4,2.1,1.5,2.1c0.4,0,0.7,0.1,1,0.5c0.4,0.5,0.4,1.1,0.3,1.7c-0.1,0.6,0,1.2,0.4,1.7c0.5,0.7,1.1,1.5,1.7,2.2
		c0.8,1,1.7,1.2,2.9,0.8c0.5-0.2,0.9-0.4,1.4-0.6c0.6-0.3,0.6-0.9,0.1-1.3c-0.2-0.1-0.4-0.2-0.6-0.2c-1.7-0.2-1.7-0.2-2-1.8
		c-0.2-1.1-0.5-2.2-0.7-3.3c-0.2-1.1-0.3-2.2,0.1-3.3c0.3-0.7,0.7-1.4,1.1-2.1c0.4-0.8,0.8-0.8,1.2,0c0.3,0.6,0.9,0.6,1.2,0
		c0.3-0.6,0.7-1.2,1.1-1.8c0.3-0.5,0.8-0.5,1.1,0c0.6,0.8,1.1,1.7,1.8,2.5c0.6,0.8,1.4,1.5,2.1,2.2c1.1,1.1,2.5,1.8,3.4,3
		c0.3,0.4,0.7,0.9,1,1.3c0.6,0.7,0.9,1.4,1.1,2.3c0.3,1.4,0.7,1.4,1.6,1c0.4-0.1,0.6,0,0.7,0.3c0.2,0.6,0.5,1.1,1.1,1.5
		c0.8,0.6,2,0.4,2.4-0.6c0.2-0.5,0.5-0.7,1.1-0.7c0.8,0,1.6,0,2.2-0.6c0.6-0.4,1.2-0.9,1.7-1.4c0.4-0.4,0.8-0.8,1.2-1.3
		c0.3-0.4,0-0.8-0.5-0.9c-0.6-0.1-1,0.2-1.4,0.5c-0.6,0.4-1.2,0.6-1.9,0.5c-0.5-0.1-1.1-0.1-1.6-0.1c-0.5,0-0.8-0.1-1.1-0.5
		c-0.3-0.4-0.8-0.7-1.2-1c-0.2-0.1-0.3-0.3-0.5-0.4c-0.1-0.1-0.2-0.3-0.3-0.5c-0.4-0.6-0.9-1.2-1.3-1.8c-0.3-0.5-0.5-1-0.8-1.4
		c-1.2-1.8-1.9-3.9-2.8-5.8c-0.3-0.7-0.7-1.3-1.1-1.9c-0.3-0.4-0.6-0.8-0.7-1.3c-0.1-0.5-0.3-1-0.7-1.4c-0.3-0.3-0.4-0.7-0.1-1.1
		c0.9-1.3,1.8-2.6,2.8-3.8c0.8-1,1.7-1.8,2.5-2.8c0.3-0.3,0.6-0.4,1-0.4c0.5,0.1,0.6,0,0.7-0.6c0-0.1,0-0.2,0-0.3
		c0.1-0.1,0.2-0.2,0.3-0.3c0.1,0.1,0.2,0.1,0.2,0.2c0.1,0.2,0,0.4,0.1,0.6c0.1,0.2,0.3,0.5,0.5,0.6c0.3,0,0.5-0.3,0.5-0.6
		c0-0.4-0.1-0.9-0.1-1.3c0-0.4-0.1-0.9,0-1.3c0.3-0.7,0.8-1.4,1.3-2.1c0.6-0.8,1.2-1.6,1.8-2.4c0.7-0.9,1.3-1.7,2-2.6
		c0.9-1.1,1.8-2.1,2.8-3.1c0.7-0.7,1.4-1.3,2.2-1.9c0.3-0.2,0.7-0.3,0.9,0.1c0.4,0.6,0.8,1.2,1.1,1.8c0.6,1,1.2,2.1,1.9,3.2
		c0.7,1.1,1.4,2.2,2.2,3.3c0.7,1,1.4,2,2.2,3c0.5,0.6,0.8,1.1,0.8,1.9c0,0.3,0.1,0.7,0.3,1c0.7,1.4,1.5,2.7,2.2,4.1
		c0.6,1.2,1.2,2.4,1.6,3.6c0.4,1,0.7,2,1.3,2.9c0.1,0.1,0.1,0.2,0.2,0.3c0.7,1.5,1.4,3.1,2.1,4.6c0.7,1.7,1.7,3.4,1.8,5.4
		c0,0.1,0.1,0.2,0.1,0.4c0.1,0.5,0.2,1,0.2,1.5c0,0.3,0.1,0.5,0.2,0.7c0.2,0.3,0.6,0.3,0.7,0c0.2-0.4,0.5-0.6,0.9-0.7
		c0.5-0.2,0.8-0.1,1,0.4c0.2,0.5,0.3,1,0.4,1.5c0,0.5,0,1-0.2,1.4c-0.4,0.7-0.3,1.3,0.1,1.9c0.2,0.5,0.5,1,0.7,1.5
		c0.2,0.5,0.6,0.8,1.2,0.8c0.6,0,1.1-0.3,1.3-0.8c0.2-0.5,0.4-0.6,1-0.5c0.3,0.1,0.5,0.1,0.7,0.2c0.4,0.2,0.8,0.6,1.3,0.7
		c1.6,0.3,3.2,0.4,4.5-0.8c0.5-0.5,1-1,1.5-1.5C298.4,176.3,298.2,175.8,297.7,175.7z M247.1,146.4c-1,1.4-2,2.7-3,4.1
		c-0.6,0.8-1.2,1.7-1.8,2.5c-0.4,0.5-0.8,0.5-1.1,0c-0.9-1.3-1.8-2.6-2.7-3.9c-0.4-0.5-0.8-1-1.1-1.5c-0.7-0.8-0.6-1.1,0-2
		c0.7-0.9,1.4-1.9,2.1-2.9c0.2-0.3,0.3-0.7,0.5-1c0.3-0.5,0.6-0.6,1.2-0.3c0.8,0.4,1.5,0.8,2.3,1.2c1.2,0.6,2.5,1.2,3.7,1.8
		c0.3,0.2,0.7,0.4,0.7,1C247.6,145.7,247.4,146.1,247.1,146.4z"/>
</g>
<g>
</g>
<g>
</g>
<g>
</g>
<g>
</g>
<g>
</g>
<g>
</g>
</svg>
