<svg id="Layer_1" data-name="Layer 1" xmlns="http://www.w3.org/2000/svg" width="325.3" height="245.2" viewBox="0 0 325.3 245.2"><defs><style>.cls-1{fill:#fff;}</style></defs><path class="cls-1" d="M71.6,17.6a1.38,1.38,0,0,1,.3-.4"/><path class="cls-1" d="M111.8,60.9h-2.5c-1.9,0-1.7,0-5.5.1l-11.5.1c-.1-6.4-.2-7.5-.2-17.8V35.8c0-2.3,0-2.3.1-3.8h8.3l9.8.1c1.6,0,2.2-.3,2.2-1.3,0-.8-.6-1.2-1.9-1.2h-1.3a6.25,6.25,0,0,0-1.7.1h-2.4l-2.4.1-2.4.1c-2,.1-3.2.1-4.8.1-.6,0-1.9,0-3.5-.1l.1-10.4c6.6,0,8.6,0,15.1.1a1.48,1.48,0,0,0,.7.1h1.2c1,0,1.5-.3,1.5-1.2,0-1.2-.1-1.2-3.5-1.2H71.9c-.1.1-.2.3-.3.4-.2.3-.4.8-.7,1.4-1.3,2.8-4.8,9.7-7.1,13.9L57.7,44.3l-15.3-27H18.7L47.5,67,71.7,23.3v3.8c.1,5.9.1,10.4.1,11.8l-.1,3.9v3.9l-.1,3.8V58l-.1,3.7v1.8h38.4c3.7,0,3.8-.1,3.8-1.2C113.9,61.3,113.3,60.9,111.8,60.9Z"/><path class="cls-1" d="M118.2,56.4a18.86,18.86,0,0,0,13.4,6.1c2.5,0,3.9-.9,3.9-2.4a6.85,6.85,0,0,0-1.4-3.4,94.29,94.29,0,0,0-6.6-7.6c-5.3-5.6-7.1-7.8-8.8-10.5-1.9-3.1-2.9-5.9-2.9-8.6,0-8.2,7.9-14.2,18.7-14.2a22.81,22.81,0,0,1,10.7,2.4c2.2,1.2,4,2.8,4,3.8a1.12,1.12,0,0,1-1.2,1c-.4,0-.7-.2-1.6-1A16.76,16.76,0,0,0,136,18c-2.4,0-3.9,1-3.9,2.6,0,1.8,1.7,4.3,5.7,8.6,3.6,3.8,7.1,7.6,8.9,9.8,4,4.8,5.7,8.3,5.7,11.8,0,8.3-8.2,13.9-20.2,13.9a22.74,22.74,0,0,1-13.1-4c-2.4-1.7-3.6-3-3.7-4a1.2,1.2,0,0,1,1.1-1.2C117.1,55.5,117.5,55.7,118.2,56.4Z"/><path class="cls-1" d="M195.3,17.2c2.9,0,3.3.2,3.3,1.3q0,1.2-1.8,1.2c-.2,0-1.5-.1-2.8-.1-.5,0-2.1,0-4.4-.1-4.5-.1-3.3-.1-4.2-.1,0,.9-.1,1.7-.1,1.8v2.9l-.1,2.9v3l-.1,3.3v3.3L185,40V52.6c0,4.8.1,8.3.1,9.5a5.74,5.74,0,0,0,.1,1.2H164.6c.1-2.1-.1-1.8.1-8.5l.1-3.5v-5c0-5.7.1-10,.1-10s0-2.6-.1-6.1l-.1-3V24.6l-.1-2.6V19.4h-2.2a41.62,41.62,0,0,0-4.9.1l-1.3.1h-1.6l-.8.1H153c-1.2,0-1.7-.3-1.7-1.2s.3-1.2,2.6-1.2h41.4Z"/><path class="cls-1" d="M222.6,32c-.1,1.5-.1,1.5-.1,3.8v7.5c0,10.2.1,11.4.2,17.8l11.5-.1c3.8-.1,3.6-.1,5.5-.1h2.5c1.5,0,2.1.3,2.1,1.2,0,1.2-.1,1.2-3.8,1.2H202.1V61.5l.1-3.7V50.3l.1-3.8V42.6l.1-3.9c0-1.3,0-5.8-.1-11.8,0-5.3-.1-7.3-.2-9.8h35.8c3.4,0,3.5.1,3.5,1.2q0,1.2-1.5,1.2h-1.2a1.48,1.48,0,0,1-.7-.1c-6.5-.1-8.5-.1-15.1-.1l-.1,10.4c1.5.1,2.9.1,3.5.1,1.7,0,2.8,0,4.8-.1l2.4-.1,2.4-.1h2.4a6.25,6.25,0,0,1,1.7-.1h1.3c1.3,0,1.9.3,1.9,1.2s-.6,1.3-2.2,1.3l-9.8-.1h-8.6Z"/><path class="cls-1" d="M262,17.2c12.1,0,17.3.6,21.6,2.4a18.9,18.9,0,0,1,11.3,17.2c0,10.3-7.9,18.3-18.5,18.9a38.56,38.56,0,0,0,15.1,6.2c.7.1,1,.5,1,1,0,.7-.6,1.1-1.6,1.1-2.1,0-6.3-1.3-10.3-3.3s-6.7-3.8-11.8-7.9V63.3H248.3c0-5.1.1-8.2.1-12.5.1-6.7.1-10.2.1-13.2l-.1-20.4Zm6.8,30.7c0,.1,0,1.2.1,2.1a39.15,39.15,0,0,0,4.4,3.7,13.05,13.05,0,0,0,1.7.1c10.1,0,17.9-7.2,17.9-16.6a16.55,16.55,0,0,0-11.3-15.9c-3.3-1.1-6.7-1.5-12.4-1.6-.2,6.2-.3,9.3-.3,13.1V36l-.1,3.2v8.7Z"/><path class="cls-1" d="M63.8,87.9c2.3-4.2,5.8-11.1,7.1-13.9,1-1.9,1.3-2.4,2.1-2.4a1.44,1.44,0,0,1,1.5,1.3c0,.5-.2,1-1,2.4q-.3.45-.9,1.5l-25,45L18.7,72.2H42.4l15.3,27Z"/><path class="cls-1" d="M121.4,95.2a24.54,24.54,0,0,1-24.8,24.5c-13.1,0-24.2-11.3-24.2-24.5a24.5,24.5,0,0,1,49,0ZM94.3,74.5c-.3,5.9,0,6.1-.1,9.1,0,2.3-.1,4.2-.1,6.5v6.8c0,2.7.1,7.1.1,9.5v2.4c0,6.1.1,3.3.1,8.8a15.48,15.48,0,0,0,2.1.1c12.9,0,22.8-9.8,22.8-22.6A22.2,22.2,0,0,0,96.7,73a19.42,19.42,0,0,0-2.4.2Z"/><path class="cls-1" d="M163.9,87.9c2.3-4.2,5.8-11.1,7.1-13.9,1-1.9,1.3-2.4,2.1-2.4a1.44,1.44,0,0,1,1.5,1.3c0,.5-.2,1-1,2.4q-.3.45-.9,1.5l-25,45L118.9,72.1h23.7l15.3,27Z"/><path class="cls-1" d="M63.8,142.9c2.3-4.2,5.8-11.1,7.1-13.9,1-1.9,1.3-2.4,2.1-2.4a1.44,1.44,0,0,1,1.5,1.3c0,.5-.2,1-1,2.4q-.3.45-.9,1.5l-25,45L18.8,127.1H42.5l15.3,27Z"/><path class="cls-1" d="M121.4,150.2a24.54,24.54,0,0,1-24.8,24.5c-13.1,0-24.2-11.3-24.2-24.5a24.5,24.5,0,0,1,49,0ZM94.3,129.5c-.3,5.9,0,6.1-.1,9.1,0,2.3-.1,4.2-.1,6.5v6.8c0,2.7.1,7.1.1,9.5v2.4c0,6.1.1,3.3.1,8.8a15.48,15.48,0,0,0,2.1.1c12.9,0,22.8-9.8,22.8-22.6A22.2,22.2,0,0,0,96.7,128a19.42,19.42,0,0,0-2.4.2Z"/><path class="cls-1" d="M163.9,142.9c2.3-4.2,5.8-11.1,7.1-13.9,1-1.9,1.3-2.4,2.1-2.4a1.44,1.44,0,0,1,1.5,1.3c0,.5-.2,1-1,2.4q-.3.45-.9,1.5l-25,45-28.8-49.7h23.7l15.3,27Z"/><path class="cls-1" d="M35.5,199c6.7,0,8.2.2,10.9,1,5.2,1.6,8.5,5.6,8.5,10.3a8.82,8.82,0,0,1-5,8.2c2.3,1.7,3.6,3.8,3.6,6.1a8.75,8.75,0,0,1-5.6,7.8c-2,.8-3.5.9-7.8,1-.7,0-1.1.1-2.8.1H22V233c0-1,.1-.2.1-2.4v-3.3l.1-3.2v-3.2l.1-3.3-.1-3.5c-.2-9.3-.1-5.8-.1-10.5,0-2.4,0-2.3-.1-4.7H35.5Zm4.2,32.7c5.2,0,7.6-.5,9.5-2a6.59,6.59,0,0,0,2.7-5.2c0-2.2-1.2-4-4-5.5a7.14,7.14,0,0,1-2,.2c-2.7,0-4.4-.9-4.4-2.4a.46.46,0,0,1,.4-.5,1.6,1.6,0,0,1,.8.3,9.64,9.64,0,0,0,3.8.9,6.76,6.76,0,0,0,6.8-7.1c0-3.4-1.9-6.2-5.3-7.9-2.7-1.4-5-1.8-9.4-1.8H37.5c-.1,4-.2,7.1-.2,9.1v7.7c0,2.7.1,7.2.1,10.5v2.5l.1.7v.7h2.2Z"/><path class="cls-1" d="M72.7,214.6v6.5c0,7.7.1,8.3.1,12.4H57.4c.1-7.5.2-15.4.2-20.4,0-2.4-.1-3.9-.1-5.4v-2.4l-.1-2.4-.1-2.4V199H72.7Z"/><path class="cls-1" d="M112.1,216.2A18.3,18.3,0,1,1,93.9,198,18.14,18.14,0,0,1,112.1,216.2ZM91.8,200.7c-.2,4.4,0,4.5-.1,6.8,0,1.7-.1,3.1-.1,4.9v5.1c0,2,.1,5.3.1,7.1v1.8c0,4.5.1,2.5.1,6.6a8.6,8.6,0,0,0,1.6.1,16.7,16.7,0,1,0,.2-33.4,11,11,0,0,0-1.8.2Z"/><path class="cls-1" d="M148.2,220.6c4-3.9,6.8-5.7,8.8-5.7.8,0,1.3.4,1.3,1.1s-.2.8-1.9,1-3.5,1.4-7.2,4.9a104.07,104.07,0,0,0,9.4,11.5H140.9a13.62,13.62,0,0,1-2.4-2.4,12.07,12.07,0,0,1-8.2,3c-5.3,0-9.1-3.5-9.1-8.4,0-3.9,2.1-6.8,6.9-9.4-2.2-4.2-2.9-6.2-2.9-8.6,0-5.7,5-9.5,12.5-9.5,5.9,0,9.6,2.5,9.6,6.5,0,2.7-1.8,4.9-5.4,6.7.6,1,.5.9,2.9,4.6l.7,1,.5.8.5.7.5.8.4.5.3.5Zm-19.1-2.9c-4.4,2.6-6,4.7-6,7.8,0,4.1,3,6.9,7.5,6.9a10,10,0,0,0,6.8-2.6C134.2,225.9,133.2,224.4,129.1,217.7Zm16.7-13.1c0-3-3-4.8-8.1-4.8a4.12,4.12,0,0,0-1.2.1,38.83,38.83,0,0,0,4.7,10C144.3,208.5,145.8,206.7,145.8,204.6Z"/><path class="cls-1" d="M181.8,211.1c0,3.7-.1,6.4-.1,6.4-.1,3.4.1,10.6.1,15.2,1,.1,1.5.2,2.1.2a16.75,16.75,0,0,0,14.6-9.1c.4-.6.6-.9,1-.9a.77.77,0,0,1,.8.7c0,1-2,3.9-4,5.8a19.06,19.06,0,0,1-12.4,5.1,18.25,18.25,0,1,1-.4-36.5,18.11,18.11,0,0,1,12.6,4.9c1.5,1.4,2.5,2.7,2.5,3.4a.86.86,0,0,1-.8.8c-.4,0-.7-.3-1.2-1a16.44,16.44,0,0,0-13.3-6.5,12.37,12.37,0,0,0-1.8.2c0,2.5-.1,2.8-.1,5.8v5.5Z"/><path class="cls-1" d="M240,233.4H222.6l-2.4-4.6h-8.5l-2.5-.1H203l-1.7,3c-1,1.8-1.1,2.1-1.7,2.1a.81.81,0,0,1-.9-.7c0-.4.1-.6.7-1.6.2-.4.6-1,1.1-1.9l.7-1.2c3.2-5.5,2.2-3.6,3.5-5.9s2.7-4.6,4.1-6.9c3.4-5.7,5.1-8.5,7.4-12.4,2.2-3.7,1.4-2.4,2.7-4.5.6-1,.5-.9,1-1.7Zm-27.9-20c-.8,1.3-.4.7-2,3.3-3.2,5.5-2.1,3.6-3.5,5.9a38,38,0,0,0-2.5,4.4c2.8.1,4.6.1,7.7.1,3.3,0,4.6,0,7.4-.1Z"/><path class="cls-1" d="M256.6,210c-.1,2.7-.1,4.8-.1,6.1s0,3.7.1,7.2c.1,11.8.1,8.6.1,10.1H241.3c.1-1.3.1-1.6.1-6.7,0-.9.1-2,.1-3v-2.8l.1-2.9v-3c0-.9,0-3.9-.1-8.8-.1-3.9-.1-5.5-.2-7.3H268c2.5,0,2.6.1,2.6.9,0,.6-.4.9-1.1.9-.1,0-.8-.1-1.4-.1-2.1-.1-3.9,0-5.5-.1l-2-.1h-3.9l-.1,7.8c1.1.1,2.2.1,2.6.1,1.2,0,2.1,0,3.6-.1l1.8-.1,1.8-.1h1.8a3.81,3.81,0,0,1,1.3-.1h1c1,0,1.4.3,1.4.9s-.5,1-1.7,1l-7.3-.1h-6.3Z"/><path class="cls-1" d="M288.2,210a21,21,0,0,0-.1,2.8v5.6c0,7.6.1,8.5.2,13.3l8.6-.1c2.8-.1,2.7-.1,4.1-.1h1.9c1.1,0,1.5.3,1.5.9,0,.9-.1.9-2.8.9H273V232l.1-2.8v-5.6l.1-2.8v-2.9l.1-2.9c0-1,0-4.3-.1-8.8,0-4-.1-5.5-.2-7.3h26.7c2.5,0,2.6.1,2.6.9,0,.6-.4.9-1.1.9h-.9a.75.75,0,0,1-.5-.1c-4.9-.1-6.3-.1-11.3-.1l-.1,7.8c1.1.1,2.2.1,2.6.1,1.2,0,2.1,0,3.6-.1l1.8-.1,1.8-.1H300a3.81,3.81,0,0,1,1.3-.1h1c1,0,1.4.3,1.4.9s-.5,1-1.7,1l-7.3-.1h-6.5Zm-.7-20.7h8.9l-5.4,6.9h-6Z"/><path class="cls-1" d="M325.3,245.2H0V0H325.3ZM2,243.2H323.3V2H2Z"/><rect class="cls-1" x="1" y="183.4" width="323.3" height="2"/><path class="cls-1" d="M297.7,175.7a2.41,2.41,0,0,0-1.5.4,1.85,1.85,0,0,1-2.5-.1,12.44,12.44,0,0,0-2-1c-.6-.3-1.5-.6-1.8-1.1a17.72,17.72,0,0,1-1.5-3.1c-.2-.4.1-.7.6-.8.3-.1.5-.1.8-.2s.4-.3.3-.5-.1-.3-.2-.5a31.27,31.27,0,0,1-2-3c-1.1-1.9-2.2-3.8-3.2-5.8-.6-1.2-1.1-2.3-1.7-3.5-.8-1.8-1.7-3.7-2.5-5.6a8.42,8.42,0,0,1-.7-3.5,1.66,1.66,0,0,0-.5-1.3c-.2-.2-.4-.5-.6-.7-1-1.7-2-3.5-2.9-5.2a32.39,32.39,0,0,1-1.7-3.2c-.5-1-.8-2.1-1.3-3.1a60.35,60.35,0,0,1-2.6-7.1.76.76,0,0,1,.3-.9c.5-.3,1.1-.6,1.6-.9a14,14,0,0,0,1.6-1c1.1-.8,2.2-1.7,3.3-2.6a10.46,10.46,0,0,0,1.9-1.7c.7-.8,1.3-1.7,1.9-2.5a.75.75,0,0,1,1.2-.1,12,12,0,0,1,1.1,1.2,22.71,22.71,0,0,0,2.8,2.6,1.13,1.13,0,0,0,1.8-.1c.1-.1.1-.2.2-.3s.3-.2.5-.2a1.55,1.55,0,0,1,1.3,2.3c-.1.2-.2.3-.2.5a2.79,2.79,0,0,0,.1,1.8,1.51,1.51,0,0,1-.2,1.9c-.1.1-.1.4-.1.6h.6l.1-.1c.8-.6,1.1-.5,1.2.5a17.7,17.7,0,0,1,.1,2.3.86.86,0,0,0,.7.8c.3,0,.5-.3.5-.8a7.72,7.72,0,0,0-.2-1.5,15,15,0,0,1-.2-2c0-1.4.2-2.7.2-4.1a2.88,2.88,0,0,0-1.1-2.6,9.13,9.13,0,0,0-1.3-.8.76.76,0,0,1-.5-.9,1.72,1.72,0,0,0-.6-1.5c-.8-.8-1.6-1.5-2.4-2.3s-1.6-1.7-2.4-2.5c-.3-.3-.6-.6-.5-1.1.1-.3.2-.7.3-1,.1-1.1.3-2.2.4-3.3a14.77,14.77,0,0,0-.1-2.1,12.59,12.59,0,0,0-.4-2.7,24.11,24.11,0,0,0-1.6-4.5,16.68,16.68,0,0,0-4.6-5.6c-.3-.2-.7-.5-.5-1a6,6,0,0,1,.8-1.6,1.28,1.28,0,0,0,.4-1,3,3,0,0,1,2-3,2,2,0,0,0,1-.8A8.34,8.34,0,0,1,282,83a.48.48,0,0,1,.6-.2c.2,0,.3.3.4.5a2.46,2.46,0,0,1-.1,1.7,1.2,1.2,0,0,0,.3,1.4.66.66,0,0,0,.6.1c.1,0,.3-.3.3-.4a9.38,9.38,0,0,1,1-2.8,2.56,2.56,0,0,0,.1-3.2.49.49,0,0,1,.2-.8,3.92,3.92,0,0,0,1-.8c.4-.5.1-1-.6-1h-.5a1.34,1.34,0,0,1-1.4-.7l-.6-.9a1.19,1.19,0,0,1-.4-1.1.64.64,0,0,0-.5-.7,1.44,1.44,0,0,1-1.1-.9c-.3-.6-.7-1.3-1-1.9,0-.1-.1-.2-.2-.3-.5-.4-.5-.7-.2-1.2a8.65,8.65,0,0,0,.7-1.7.63.63,0,0,0-.3-.9.76.76,0,0,0-1,.4c-.2.4-.3.9-.5,1.3-.3,1-.9,1.2-1.8.7h-.1a4.61,4.61,0,0,0-2.8-.6h-.8a1.69,1.69,0,0,0-1.7.8,1.15,1.15,0,0,1-1.1.6,1.76,1.76,0,0,0-1.3.6,11.84,11.84,0,0,0-1.4,2.2,3.91,3.91,0,0,0-.1,3,2,2,0,0,1,.1.8c.1.3,0,.7.2,1a12.44,12.44,0,0,0,1,2c.2.4.3.7-.1,1a4.13,4.13,0,0,1-1.1.7c-.2.1-.5.1-.6.3s-.3.4-.2.6.3.4.4.5a1.09,1.09,0,0,0,1.1-.2l1.3-1c.5-.3.8-.3,1,.2.1.3.2.6.3,1s.1.9.7,1a1,1,0,0,1,.8,1,9.26,9.26,0,0,1-.3,3.3c-.2.6-.5.8-1.1.6a3.08,3.08,0,0,0-1-.1,1,1,0,0,0-1,1.2c.2.6,0,.8-.6.9a2.45,2.45,0,0,0-1.6.6,10,10,0,0,0-1.1,1c-1.1,1.1-2.3,2.2-3.4,3.3a45.07,45.07,0,0,1-5.9,4.7c-1.5,1-3.1,1.9-4.6,2.9a1.25,1.25,0,0,0-.6,1.1c-.1.9-.2,1.7-.3,2.6s-.4,1.9-.6,2.8c-.6,2.6-1.2,5.2-1.9,7.8a1.28,1.28,0,0,0,.9,1.6c.4.1.8.3,1.2.4a.85.85,0,0,1,.7.8v1.5a1.76,1.76,0,0,1-.6,1.3,3.11,3.11,0,0,0-.9,1.7,16.59,16.59,0,0,1-.6,1.6c-.1.3-.5.5-.2.8.1.1.5,0,.8-.1.5-.1.8,0,.6.5a2,2,0,0,1-.4.8,9.43,9.43,0,0,1-1,1c-.2.2-.4.3-.2.6a.6.6,0,0,0,.9,0,11.41,11.41,0,0,0,1.1-1.1,8.64,8.64,0,0,0,1-1.6,21.72,21.72,0,0,0,.7-2.4,3.4,3.4,0,0,0,.1-1,7.36,7.36,0,0,1,.1-3.3c.1-.3.4-.7.5-1s.3-.4.3-.6c.3-1.4.6-2.9.9-4.3a18.45,18.45,0,0,1,1.2-4,12.26,12.26,0,0,0,.8-3.3,2.4,2.4,0,0,1,1.4-2.2l.9-.3c1.4-.7,2.7-1.4,4.1-2.2a28.27,28.27,0,0,0,4.5-3.2,1,1,0,0,1,1.5.1c.2.2.4.5.6.7a12.6,12.6,0,0,1,1,3.3,13.52,13.52,0,0,1-2.6,9.3,6.39,6.39,0,0,1-4.6,2.6c-.7.1-1.5,0-2.1.7a2,2,0,0,1-.8.4,3.55,3.55,0,0,0-.9.4,5.94,5.94,0,0,0-2.8,5.4,5,5,0,0,0,.5,2.1,9.61,9.61,0,0,0,1.4,2.1,1.07,1.07,0,0,1,.1,1.4c-.4.8-.8,1.7-1.2,2.6-.6,1.3-1.2,2.5-1.9,3.8-.5.9-1.1,1.6-1.6,2.5l-2.7,4.2a.54.54,0,0,1-.8.2,13,13,0,0,1-1.5-1c-1.1-.7-2.2-1.3-3.3-2.1s-2.1-2-3.1-3a1.87,1.87,0,0,1-.5-1.4,20.24,20.24,0,0,0-.4-2.6,15.43,15.43,0,0,0-1.9-4.6,9.58,9.58,0,0,0-3.4-3.8.72.72,0,0,1-.2-1.1,3.07,3.07,0,0,1,1.5-1,3.7,3.7,0,0,0,1.1-.5,3.61,3.61,0,0,1,1.5-.8c.8-.2,1-.6.9-1.4v-.6a13.32,13.32,0,0,1,.5-1.9c.1-.3.2-.6.4-.7.7-.6.6-.9-.2-1.3-.1,0-.1,0-.2-.1a1.14,1.14,0,0,1-.6-1.5,1.06,1.06,0,0,0,.1-.8,25,25,0,0,0-.7-2.6,6,6,0,0,0-.9-1.3c-.2-.3-.5-.6-.5-.9,0-.8-.2-.9-.9-.7a1.28,1.28,0,0,1-1.2-.2c-.5-.4-1.1-.8-1.6-1.2a1.5,1.5,0,0,0-1.8,0,1.6,1.6,0,0,1-1.5.2,2.09,2.09,0,0,0-2.1.5,16.3,16.3,0,0,1-2.9,2.3,1.28,1.28,0,0,0-.5.7,5.3,5.3,0,0,0,.1,2.5c.1.3.2.5.3.8a.78.78,0,0,1-.3.7c-.7.5-.4,1,0,1.4a1.79,1.79,0,0,1,.5.7,5.25,5.25,0,0,0,1.7,2.2,3.76,3.76,0,0,1,1.7,3c0,.8-.1,1-.9,1-.6,0-.9.1-1.1.7-.4.9-.8,1-1.7.9a2.7,2.7,0,0,0-1.8.1,21.69,21.69,0,0,1-3.5,1.5,2.22,2.22,0,0,0-1.1.5c-.8.6-1.7,1.3-2.5,2l-2.1,1.8-.2.2c-.6.5-1.2,1.1-1.8,1.6-.5.3-1.1.5-1.6.8s-1,.4-1,1a4.53,4.53,0,0,1-.8,2.2c-.8,1.3-1.6,2.6-2.4,4s-1.4,2.7-2.1,4.1a2.92,2.92,0,0,0-.2.9,1,1,0,0,1-.5,1.1c-.6.5-1.2.9-1.8,1.4a1.07,1.07,0,0,0-.2.6.45.45,0,0,0,.4.3c.3.1.6,0,.7.4s-.3.5-.5.6-.3.1-.5.2-.5.2-.7.3a.76.76,0,0,0-.3.9.51.51,0,0,0,.7.4c.2,0,.4-.1.6-.1a15.43,15.43,0,0,1,1.7-.5,2.69,2.69,0,0,0,2.4-1.8c.3-.6.5-.7,1.2-.5a1.33,1.33,0,0,0,1.8-1c.3-.9.5-1.8.9-2.7l2.4-4.8a4.11,4.11,0,0,1,.8-1.3,11.57,11.57,0,0,1,2.4-1.4c.6-.3,1.3-.6,1.9-.9s1.4-.7,2.1-1.1,1.1-.2,1.4.5a5.82,5.82,0,0,1,.4,3.2,9,9,0,0,1-1.8,4.5,6,6,0,0,1-2.8,2.1,4.53,4.53,0,0,0-1.9,1.1,11.19,11.19,0,0,0-2.4,3.3,5.52,5.52,0,0,0-.1,3.8,1.29,1.29,0,0,1-.1,1.2c-.5.8-1,1.7-1.5,2.5a11.92,11.92,0,0,0-.8,2c-.4,1.1-.7,2.2-1,3.3-.1.5-.2.9-.7,1.1-.1,0-.2.1-.3.2a6.36,6.36,0,0,1-2.4,2.2c-1.1.9-2.3,1.7-3.3,2.7a28,28,0,0,0-2.5,3.5l-1.8,2.7c-.1.1-.2.3-.4.3a15.05,15.05,0,0,1-1.7,1,1,1,0,0,0-.5,1.4,3.59,3.59,0,0,1,.2,1.1c-.2.9.3,1.6.4,2.5,0,.1.1.1.1.2a1.81,1.81,0,0,0,2.1-.2,1.4,1.4,0,0,1,1.8-.4,18,18,0,0,0,2.1.8,3.74,3.74,0,0,0,3.4-.7.59.59,0,0,0,0-1.1,1.84,1.84,0,0,0-1.9-.1c-.3.1-.7.2-.9,0-.5-.4-1.1-.8-1.2-1.5,0-.1,0-.2.1-.2a4.81,4.81,0,0,1,.9-1.1c1.1-.9,2.3-1.8,3.4-2.7.9-.7,1.7-1.4,2.6-2.1.6-.5,1.2-1.2,2.1-1.1,1.3.1,1.9-.8,2.6-1.6a26.5,26.5,0,0,0,2.1-2.6l2.1-2.4c1-1.1,1.9-2.3,2.9-3.4a8.76,8.76,0,0,1,4.4-2.9,5,5,0,0,1,1.2-.2,8.82,8.82,0,0,1,4.1,1.2c.7.5,1.5,1,2.1,1.5a13.65,13.65,0,0,1,1.7,1.7.9.9,0,0,1-.1,1.4c-.7.7-1.4,1.4-2.1,2-.4.4-.4.5-.1,1s.3.8-.1,1.2-.6.5-.8.7a2.75,2.75,0,0,1-1.5.8,2.65,2.65,0,0,0-1.8,1.1,15.05,15.05,0,0,0-1.1,2.2,1.54,1.54,0,0,0,1.5,2.1,1.11,1.11,0,0,1,1,.5,2,2,0,0,1,.3,1.7,2.09,2.09,0,0,0,.4,1.7c.5.7,1.1,1.5,1.7,2.2a2.34,2.34,0,0,0,2.9.8c.5-.2.9-.4,1.4-.6a.72.72,0,0,0,.1-1.3,1.42,1.42,0,0,0-.6-.2c-1.7-.2-1.7-.2-2-1.8-.2-1.1-.5-2.2-.7-3.3a6.17,6.17,0,0,1,.1-3.3,21.16,21.16,0,0,1,1.1-2.1q.6-1.2,1.2,0a.62.62,0,0,0,1.2,0,17.39,17.39,0,0,1,1.1-1.8.59.59,0,0,1,1.1,0c.6.8,1.1,1.7,1.8,2.5a21.83,21.83,0,0,0,2.1,2.2c1.1,1.1,2.5,1.8,3.4,3l1,1.3a4.93,4.93,0,0,1,1.1,2.3c.3,1.4.7,1.4,1.6,1,.4-.1.6,0,.7.3a2.7,2.7,0,0,0,1.1,1.5,1.55,1.55,0,0,0,2.4-.6,1,1,0,0,1,1.1-.7,2.86,2.86,0,0,0,2.2-.6,11.51,11.51,0,0,0,1.7-1.4,15.38,15.38,0,0,0,1.2-1.3c.3-.4,0-.8-.5-.9a1.74,1.74,0,0,0-1.4.5,2.62,2.62,0,0,1-1.9.5,8.6,8.6,0,0,0-1.6-.1,1.17,1.17,0,0,1-1.1-.5,5.8,5.8,0,0,0-1.2-1c-.2-.1-.3-.3-.5-.4a2.19,2.19,0,0,1-.3-.5c-.4-.6-.9-1.2-1.3-1.8s-.5-1-.8-1.4a44.14,44.14,0,0,1-2.8-5.8,11.78,11.78,0,0,0-1.1-1.9,3.29,3.29,0,0,1-.7-1.3,2.67,2.67,0,0,0-.7-1.4.78.78,0,0,1-.1-1.1c.9-1.3,1.8-2.6,2.8-3.8.8-1,1.7-1.8,2.5-2.8a1.28,1.28,0,0,1,1-.4c.5.1.6,0,.7-.6v-.3l.3-.3c.1.1.2.1.2.2s0,.4.1.6a1.47,1.47,0,0,0,.5.6.56.56,0,0,0,.5-.6c0-.4-.1-.9-.1-1.3a5.65,5.65,0,0,1,0-1.3,12,12,0,0,1,1.3-2.1l1.8-2.4,2-2.6a41.21,41.21,0,0,1,2.8-3.1,20,20,0,0,1,2.2-1.9c.3-.2.7-.3.9.1a17.39,17.39,0,0,1,1.1,1.8c.6,1,1.2,2.1,1.9,3.2s1.4,2.2,2.2,3.3,1.4,2,2.2,3a2.73,2.73,0,0,1,.8,1.9,1.93,1.93,0,0,0,.3,1c.7,1.4,1.5,2.7,2.2,4.1a28.33,28.33,0,0,1,1.6,3.6,15.11,15.11,0,0,0,1.3,2.9c.1.1.1.2.2.3.7,1.5,1.4,3.1,2.1,4.6.7,1.7,1.7,3.4,1.8,5.4,0,.1.1.2.1.4a7.72,7.72,0,0,1,.2,1.5,1.45,1.45,0,0,0,.2.7c.2.3.6.3.7,0a1.27,1.27,0,0,1,.9-.7c.5-.2.8-.1,1,.4a8.33,8.33,0,0,1,.4,1.5,3.18,3.18,0,0,1-.2,1.4,1.65,1.65,0,0,0,.1,1.9c.2.5.5,1,.7,1.5a1.21,1.21,0,0,0,1.2.8,1.34,1.34,0,0,0,1.3-.8c.2-.5.4-.6,1-.5a6.37,6.37,0,0,1,.7.2,5.39,5.39,0,0,0,1.3.7c1.6.3,3.2.4,4.5-.8l1.5-1.5C298.4,176.3,298.2,175.8,297.7,175.7Zm-50.6-29.3c-1,1.4-2,2.7-3,4.1-.6.8-1.2,1.7-1.8,2.5-.4.5-.8.5-1.1,0l-2.7-3.9a14.31,14.31,0,0,1-1.1-1.5c-.7-.8-.6-1.1,0-2s1.4-1.9,2.1-2.9c.2-.3.3-.7.5-1,.3-.5.6-.6,1.2-.3.8.4,1.5.8,2.3,1.2,1.2.6,2.5,1.2,3.7,1.8.3.2.7.4.7,1C247.6,145.7,247.4,146.1,247.1,146.4Z"/></svg>